<svg xmlns="http://www.w3.org/2000/svg" xmlns:xlink="http://www.w3.org/1999/xlink" contentStyleType="text/css" height="851px" preserveAspectRatio="none" style="width:2693px;height:851px;background:#FFFFFF;" version="1.1" viewBox="0 0 2693 851" width="2693px" zoomAndPan="magnify"><defs/><g><rect fill="none" height="13.9688" style="stroke:none;stroke-width:1.0;" width="2660.1055" x="15" y="11.3301"/><rect fill="#E8F4F8" height="828.5938" style="stroke:#E8F4F8;stroke-width:1.0;" width="293.5898" x="15" y="11.3301"/><ellipse cx="162.7949" cy="40.2988" fill="#222222" rx="10" ry="10" style="stroke:#222222;stroke-width:1.0;"/><rect fill="#FFFFFF" height="33.9688" rx="12.5" ry="12.5" style="stroke:#2C3E50;stroke-width:0.5;" width="283.5898" x="21" y="70.2988"/><text fill="#000000" font-family="sans-serif" font-size="12" lengthAdjust="spacing" textLength="263.5898" x="31" y="91.4375">Book Scheduled Ride (T_pickup in Advance)</text><line style="stroke:#000000;stroke-width:1.5;" x1="15" x2="15" y1="11.3301" y2="839.9238"/><rect fill="#FDF2E9" height="828.5938" style="stroke:#FDF2E9;stroke-width:1.0;" width="634.3066" x="308.5898" y="11.3301"/><rect fill="#FFFFFF" height="33.9688" rx="12.5" ry="12.5" style="stroke:#2C3E50;stroke-width:0.5;" width="203.3516" x="380.2939" y="124.2676"/><text fill="#000000" font-family="sans-serif" font-size="12" lengthAdjust="spacing" textLength="183.3516" x="390.2939" y="145.4063">Store Reservation in Database</text><rect fill="#FFFFFF" height="33.9688" rx="12.5" ry="12.5" style="stroke:#2C3E50;stroke-width:0.5;" width="334.7598" x="314.5898" y="178.2363"/><text fill="#000000" font-family="sans-serif" font-size="12" lengthAdjust="spacing" textLength="314.7598" x="324.5898" y="199.375">Calculate Driver Match Window (T_pickup - 30 mins)</text><rect fill="#FFFFFF" height="33.9688" rx="12.5" ry="12.5" style="stroke:#2C3E50;stroke-width:0.5;" width="296.6855" x="333.627" y="232.2051"/><text fill="#000000" font-family="sans-serif" font-size="12" lengthAdjust="spacing" textLength="276.6855" x="343.627" y="253.3438">Wait for Trigger Window (Cron / Delay Queue)</text><rect fill="#FFFFFF" height="33.9688" rx="12.5" ry="12.5" style="stroke:#2C3E50;stroke-width:0.5;" width="356.6094" x="582.2871" y="438.1113"/><text fill="#000000" font-family="sans-serif" font-size="12" lengthAdjust="spacing" textLength="336.6094" x="592.2871" y="459.25">Fall Back to Standard Dynamic Dispatch Pool at T - 15m</text><rect fill="#FFFFFF" height="33.9688" rx="12.5" ry="12.5" style="stroke:#2C3E50;stroke-width:0.5;" width="270.2598" x="625.4619" y="492.0801"/><text fill="#000000" font-family="sans-serif" font-size="12" lengthAdjust="spacing" textLength="250.2598" x="635.4619" y="513.2188">Broadcast Request to General Driver Pool</text><ellipse cx="760.5918" cy="557.0488" fill="none" rx="11" ry="11" style="stroke:#222222;stroke-width:1.0;"/><ellipse cx="760.5918" cy="557.0488" fill="#222222" rx="6" ry="6" style="stroke:#222222;stroke-width:1.0;"/><line style="stroke:#000000;stroke-width:1.5;" x1="308.5898" x2="308.5898" y1="11.3301" y2="839.9238"/><rect fill="#FEF9E7" height="828.5938" style="stroke:#FEF9E7;stroke-width:1.0;" width="294.7266" x="942.8965" y="11.3301"/><rect fill="#FFFFFF" height="33.9688" rx="12.5" ry="12.5" style="stroke:#2C3E50;stroke-width:0.5;" width="284.7266" x="948.8965" y="286.1738"/><text fill="#000000" font-family="sans-serif" font-size="12" lengthAdjust="spacing" textLength="264.7266" x="958.8965" y="307.3125">Query High-Rating Drivers (Rating &gt;= 4.85)</text><rect fill="#FFFFFF" height="33.9688" rx="12.5" ry="12.5" style="stroke:#2C3E50;stroke-width:0.5;" width="261.6934" x="960.4131" y="340.1426"/><text fill="#000000" font-family="sans-serif" font-size="12" lengthAdjust="spacing" textLength="241.6934" x="970.4131" y="361.2813">Send Advance Offer to Candidate Driver</text><line style="stroke:#000000;stroke-width:1.5;" x1="942.8965" x2="942.8965" y1="11.3301" y2="839.9238"/><rect fill="#EAECEE" height="828.5938" style="stroke:#EAECEE;stroke-width:1.0;" width="413.1777" x="1237.623" y="11.3301"/><polygon fill="#FFFFFF" points="1310.7324,394.1113,1494.9102,394.1113,1506.9102,406.1113,1494.9102,418.1113,1310.7324,418.1113,1298.7324,406.1113,1310.7324,394.1113" style="stroke:#2C3E50;stroke-width:0.5;"/><text fill="#000000" font-family="sans-serif" font-size="12" lengthAdjust="spacing" textLength="184.1777" x="1310.7324" y="410.2656">Driver Accepts Advance Offer?</text><text fill="#000000" font-family="sans-serif" font-size="12" lengthAdjust="spacing" textLength="56.1094" x="1242.623" y="403.2813">Accepted</text><text fill="#000000" font-family="sans-serif" font-size="12" lengthAdjust="spacing" textLength="138.8906" x="1506.9102" y="403.2813">Declined / 60s Timeout</text><line style="stroke:#000000;stroke-width:1.5;" x1="1237.623" x2="1237.623" y1="11.3301" y2="839.9238"/><rect fill="#E8F8F5" height="828.5938" style="stroke:#E8F8F5;stroke-width:1.0;" width="685.3525" x="1650.8008" y="11.3301"/><rect fill="#FFFFFF" height="33.9688" rx="12.5" ry="12.5" style="stroke:#2C3E50;stroke-width:0.5;" width="179.7207" x="1882.3535" y="438.1113"/><text fill="#000000" font-family="sans-serif" font-size="12" lengthAdjust="spacing" textLength="159.7207" x="1892.3535" y="459.25">Lock Reservation to Driver</text><rect fill="#FFFFFF" height="33.9688" rx="12.5" ry="12.5" style="stroke:#2C3E50;stroke-width:0.5;" width="342.7871" x="1800.8203" y="492.0801"/><text fill="#000000" font-family="sans-serif" font-size="12" lengthAdjust="spacing" textLength="322.7871" x="1810.8203" y="513.2188">Start Liveness Heartbeat Check at T_pickup - 20 mins</text><polygon fill="#FFFFFF" points="1853.4561,546.0488,2090.9717,546.0488,2102.9717,558.0488,2090.9717,570.0488,1853.4561,570.0488,1841.4561,558.0488,1853.4561,546.0488" style="stroke:#2C3E50;stroke-width:0.5;"/><text fill="#000000" font-family="sans-serif" font-size="12" lengthAdjust="spacing" textLength="237.5156" x="1853.4561" y="562.2031">Driver Online &amp; Moving Toward Pickup?</text><text fill="#000000" font-family="sans-serif" font-size="12" lengthAdjust="spacing" textLength="100.8223" x="1740.6338" y="555.2188">Active &amp; Healthy</text><text fill="#000000" font-family="sans-serif" font-size="12" lengthAdjust="spacing" textLength="228.1816" x="2102.9717" y="555.2188">Unresponsive / Offline / No Movement</text><rect fill="#FFFFFF" height="33.9688" rx="12.5" ry="12.5" style="stroke:#2C3E50;stroke-width:0.5;" width="297.8691" x="1656.8008" y="590.0488"/><text fill="#000000" font-family="sans-serif" font-size="12" lengthAdjust="spacing" textLength="277.8691" x="1666.8008" y="611.1875">Dispatch Final Trip Start at T_pickup - 10 mins</text><rect fill="#FFFFFF" height="33.9688" rx="12.5" ry="12.5" style="stroke:#2C3E50;stroke-width:0.5;" width="279.0371" x="1666.2168" y="644.0176"/><text fill="#000000" font-family="sans-serif" font-size="12" lengthAdjust="spacing" textLength="259.0371" x="1676.2168" y="665.1563">Transition to Standard Ride Execution Flow</text><ellipse cx="1805.7354" cy="708.9863" fill="none" rx="11" ry="11" style="stroke:#222222;stroke-width:1.0;"/><ellipse cx="1805.7354" cy="708.9863" fill="#222222" rx="6" ry="6" style="stroke:#222222;stroke-width:1.0;"/><line style="stroke:#000000;stroke-width:1.5;" x1="1650.8008" x2="1650.8008" y1="11.3301" y2="839.9238"/><rect fill="#FADBD8" height="828.5938" style="stroke:#FADBD8;stroke-width:1.0;" width="338.0449" x="2336.1533" y="11.3301"/><rect fill="#FFFFFF" height="33.9688" rx="12.5" ry="12.5" style="stroke:#2C3E50;stroke-width:0.5;" width="253.666" x="2379.3428" y="590.0488"/><text fill="#000000" font-family="sans-serif" font-size="12" lengthAdjust="spacing" textLength="233.666" x="2389.3428" y="611.1875">Cancel Driver Assignment with Penalty</text><rect fill="#FFFFFF" height="33.9688" rx="12.5" ry="12.5" style="stroke:#2C3E50;stroke-width:0.5;" width="243.8926" x="2384.2295" y="644.0176"/><text fill="#000000" font-family="sans-serif" font-size="12" lengthAdjust="spacing" textLength="223.8926" x="2394.2295" y="665.1563">Trigger High-Priority Instant Dispatch</text><rect fill="#FFFFFF" height="33.9688" rx="12.5" ry="12.5" style="stroke:#2C3E50;stroke-width:0.5;" width="294.6875" x="2358.832" y="697.9863"/><text fill="#000000" font-family="sans-serif" font-size="12" lengthAdjust="spacing" textLength="274.6875" x="2368.832" y="719.125">Assign Nearest Dedicated Hot-Standby Driver</text><rect fill="#FFFFFF" height="33.9688" rx="12.5" ry="12.5" style="stroke:#2C3E50;stroke-width:0.5;" width="328.0449" x="2342.1533" y="751.9551"/><text fill="#000000" font-family="sans-serif" font-size="12" lengthAdjust="spacing" textLength="308.0449" x="2352.1533" y="773.0938">Notify Passenger of Seamless Driver Reassignment</text><ellipse cx="2506.1758" cy="816.9238" fill="none" rx="11" ry="11" style="stroke:#222222;stroke-width:1.0;"/><ellipse cx="2506.1758" cy="816.9238" fill="#222222" rx="6" ry="6" style="stroke:#222222;stroke-width:1.0;"/><line style="stroke:#000000;stroke-width:1.5;" x1="2336.1533" x2="2336.1533" y1="11.3301" y2="839.9238"/><line style="stroke:#000000;stroke-width:1.5;" x1="2674.1982" x2="2674.1982" y1="11.3301" y2="839.9238"/><line style="stroke:#2980B9;stroke-width:1.0;" x1="162.7949" x2="162.7949" y1="50.2988" y2="70.2988"/><polygon fill="#2980B9" points="158.7949,60.2988,162.7949,70.2988,166.7949,60.2988,162.7949,64.2988" style="stroke:#2980B9;stroke-width:1.0;"/><line style="stroke:#2980B9;stroke-width:1.0;" x1="481.9697" x2="481.9697" y1="158.2363" y2="178.2363"/><polygon fill="#2980B9" points="477.9697,168.2363,481.9697,178.2363,485.9697,168.2363,481.9697,172.2363" style="stroke:#2980B9;stroke-width:1.0;"/><line style="stroke:#2980B9;stroke-width:1.0;" x1="481.9697" x2="481.9697" y1="212.2051" y2="232.2051"/><polygon fill="#2980B9" points="477.9697,222.2051,481.9697,232.2051,485.9697,222.2051,481.9697,226.2051" style="stroke:#2980B9;stroke-width:1.0;"/><line style="stroke:#2980B9;stroke-width:1.0;" x1="760.5918" x2="760.5918" y1="472.0801" y2="492.0801"/><polygon fill="#2980B9" points="756.5918,482.0801,760.5918,492.0801,764.5918,482.0801,760.5918,486.0801" style="stroke:#2980B9;stroke-width:1.0;"/><line style="stroke:#2980B9;stroke-width:1.0;" x1="760.5918" x2="760.5918" y1="526.0488" y2="546.0488"/><polygon fill="#2980B9" points="756.5918,536.0488,760.5918,546.0488,764.5918,536.0488,760.5918,540.0488" style="stroke:#2980B9;stroke-width:1.0;"/><line style="stroke:#2980B9;stroke-width:1.0;" x1="1091.2598" x2="1091.2598" y1="320.1426" y2="340.1426"/><polygon fill="#2980B9" points="1087.2598,330.1426,1091.2598,340.1426,1095.2598,330.1426,1091.2598,334.1426" style="stroke:#2980B9;stroke-width:1.0;"/><line style="stroke:#2980B9;stroke-width:1.0;" x1="1972.2139" x2="1972.2139" y1="472.0801" y2="492.0801"/><polygon fill="#2980B9" points="1968.2139,482.0801,1972.2139,492.0801,1976.2139,482.0801,1972.2139,486.0801" style="stroke:#2980B9;stroke-width:1.0;"/><line style="stroke:#2980B9;stroke-width:1.0;" x1="1805.7354" x2="1805.7354" y1="624.0176" y2="644.0176"/><polygon fill="#2980B9" points="1801.7354,634.0176,1805.7354,644.0176,1809.7354,634.0176,1805.7354,638.0176" style="stroke:#2980B9;stroke-width:1.0;"/><line style="stroke:#2980B9;stroke-width:1.0;" x1="1805.7354" x2="1805.7354" y1="677.9863" y2="697.9863"/><polygon fill="#2980B9" points="1801.7354,687.9863,1805.7354,697.9863,1809.7354,687.9863,1805.7354,691.9863" style="stroke:#2980B9;stroke-width:1.0;"/><line style="stroke:#2980B9;stroke-width:1.0;" x1="1841.4561" x2="1805.7354" y1="558.0488" y2="558.0488"/><line style="stroke:#2980B9;stroke-width:1.0;" x1="1805.7354" x2="1805.7354" y1="558.0488" y2="590.0488"/><polygon fill="#2980B9" points="1801.7354,580.0488,1805.7354,590.0488,1809.7354,580.0488,1805.7354,584.0488" style="stroke:#2980B9;stroke-width:1.0;"/><line style="stroke:#2980B9;stroke-width:1.0;" x1="1972.2139" x2="1972.2139" y1="526.0488" y2="546.0488"/><polygon fill="#2980B9" points="1968.2139,536.0488,1972.2139,546.0488,1976.2139,536.0488,1972.2139,540.0488" style="stroke:#2980B9;stroke-width:1.0;"/><line style="stroke:#2980B9;stroke-width:1.0;" x1="2506.1758" x2="2506.1758" y1="624.0176" y2="644.0176"/><polygon fill="#2980B9" points="2502.1758,634.0176,2506.1758,644.0176,2510.1758,634.0176,2506.1758,638.0176" style="stroke:#2980B9;stroke-width:1.0;"/><line style="stroke:#2980B9;stroke-width:1.0;" x1="2506.1758" x2="2506.1758" y1="677.9863" y2="697.9863"/><polygon fill="#2980B9" points="2502.1758,687.9863,2506.1758,697.9863,2510.1758,687.9863,2506.1758,691.9863" style="stroke:#2980B9;stroke-width:1.0;"/><line style="stroke:#2980B9;stroke-width:1.0;" x1="2506.1758" x2="2506.1758" y1="731.9551" y2="751.9551"/><polygon fill="#2980B9" points="2502.1758,741.9551,2506.1758,751.9551,2510.1758,741.9551,2506.1758,745.9551" style="stroke:#2980B9;stroke-width:1.0;"/><line style="stroke:#2980B9;stroke-width:1.0;" x1="2506.1758" x2="2506.1758" y1="785.9238" y2="805.9238"/><polygon fill="#2980B9" points="2502.1758,795.9238,2506.1758,805.9238,2510.1758,795.9238,2506.1758,799.9238" style="stroke:#2980B9;stroke-width:1.0;"/><line style="stroke:#2980B9;stroke-width:1.0;" x1="162.7949" x2="162.7949" y1="104.2676" y2="109.2676"/><line style="stroke:#2980B9;stroke-width:1.0;" x1="162.7949" x2="481.9697" y1="109.2676" y2="109.2676"/><line style="stroke:#2980B9;stroke-width:1.0;" x1="481.9697" x2="481.9697" y1="109.2676" y2="124.2676"/><polygon fill="#2980B9" points="477.9697,114.2676,481.9697,124.2676,485.9697,114.2676,481.9697,118.2676" style="stroke:#2980B9;stroke-width:1.0;"/><line style="stroke:#2980B9;stroke-width:1.0;" x1="481.9697" x2="481.9697" y1="266.1738" y2="271.1738"/><line style="stroke:#2980B9;stroke-width:1.0;" x1="481.9697" x2="1091.2598" y1="271.1738" y2="271.1738"/><line style="stroke:#2980B9;stroke-width:1.0;" x1="1091.2598" x2="1091.2598" y1="271.1738" y2="286.1738"/><polygon fill="#2980B9" points="1087.2598,276.1738,1091.2598,286.1738,1095.2598,276.1738,1091.2598,280.1738" style="stroke:#2980B9;stroke-width:1.0;"/><line style="stroke:#2980B9;stroke-width:1.0;" x1="2102.9717" x2="2506.1758" y1="558.0488" y2="558.0488"/><line style="stroke:#2980B9;stroke-width:1.0;" x1="2506.1758" x2="2506.1758" y1="558.0488" y2="590.0488"/><polygon fill="#2980B9" points="2502.1758,580.0488,2506.1758,590.0488,2510.1758,580.0488,2506.1758,584.0488" style="stroke:#2980B9;stroke-width:1.0;"/><line style="stroke:#2980B9;stroke-width:1.0;" x1="1298.7324" x2="1286.7324" y1="406.1113" y2="406.1113"/><line style="stroke:#2980B9;stroke-width:1.0;" x1="1286.7324" x2="1286.7324" y1="406.1113" y2="424.1113"/><line style="stroke:#2980B9;stroke-width:1.0;" x1="1286.7324" x2="1972.2139" y1="424.1113" y2="424.1113"/><line style="stroke:#2980B9;stroke-width:1.0;" x1="1972.2139" x2="1972.2139" y1="424.1113" y2="438.1113"/><polygon fill="#2980B9" points="1968.2139,428.1113,1972.2139,438.1113,1976.2139,428.1113,1972.2139,432.1113" style="stroke:#2980B9;stroke-width:1.0;"/><line style="stroke:#2980B9;stroke-width:1.0;" x1="1506.9102" x2="1518.9102" y1="406.1113" y2="406.1113"/><line style="stroke:#2980B9;stroke-width:1.0;" x1="1518.9102" x2="1518.9102" y1="406.1113" y2="424.1113"/><line style="stroke:#2980B9;stroke-width:1.0;" x1="1518.9102" x2="760.5918" y1="424.1113" y2="424.1113"/><line style="stroke:#2980B9;stroke-width:1.0;" x1="760.5918" x2="760.5918" y1="424.1113" y2="438.1113"/><polygon fill="#2980B9" points="756.5918,428.1113,760.5918,438.1113,764.5918,428.1113,760.5918,432.1113" style="stroke:#2980B9;stroke-width:1.0;"/><line style="stroke:#2980B9;stroke-width:1.0;" x1="1091.2598" x2="1091.2598" y1="374.1113" y2="379.1113"/><line style="stroke:#2980B9;stroke-width:1.0;" x1="1091.2598" x2="1402.8213" y1="379.1113" y2="379.1113"/><line style="stroke:#2980B9;stroke-width:1.0;" x1="1402.8213" x2="1402.8213" y1="379.1113" y2="394.1113"/><polygon fill="#2980B9" points="1398.8213,384.1113,1402.8213,394.1113,1406.8213,384.1113,1402.8213,388.1113" style="stroke:#2980B9;stroke-width:1.0;"/><text fill="#000000" font-family="sans-serif" font-size="12" lengthAdjust="spacing" textLength="106.7988" x="108.3955" y="22.4688">Passenger (Rider)</text><text fill="#000000" font-family="sans-serif" font-size="12" lengthAdjust="spacing" textLength="157.1367" x="547.1748" y="22.4688">Scheduled Ride Scheduler</text><text fill="#000000" font-family="sans-serif" font-size="12" lengthAdjust="spacing" textLength="155.7949" x="1012.3623" y="22.4688">Advance Matching Engine</text><text fill="#000000" font-family="sans-serif" font-size="12" lengthAdjust="spacing" textLength="84.8906" x="1401.7666" y="22.4688">Driver Partner</text><text fill="#000000" font-family="sans-serif" font-size="12" lengthAdjust="spacing" textLength="152.7832" x="1917.0854" y="22.4688">Liveness Monitoring Loop</text><text fill="#000000" font-family="sans-serif" font-size="12" lengthAdjust="spacing" textLength="166.0898" x="2422.1309" y="22.4688">Emergency Fallback Engine</text><!--SRC=[ZLJTRzCm47_FNt7Q9DH96_k6hXEWjadOf7sKjcYFo7CkhLN73hRJ4YZ_EsTdwLh40tbAVBwxtyTTx4AeaXbMGA6LvdEZ2uISIOkHtOGop5abNQgLUs0KtxjL3iqXtA1SeXES7O9boXvPD2BV-tVYHFn4E3tR2ZBkn5Au6dv500F65pEZAvKDjTG6zjFm-8Ws6PgNqxFXUN9vGgTzO_IgFRpgdWokejzHjDvFkkb5sbt3Y5cBQeO6EcD1-GUmZgnZnaMzWTOBcF0vPfN437mOEjDlfU2BgWIXe9yjcU9uSEqBfd5wbboj_qveFmtLxKsSDWXZ9FvBveHMlahC77jc5g-Ztf19Nadc468ZbfHppnoVmvDGcLvjzJw2ynCeXBBKklV4X8ES-4sDc7aYxVMXeGR74ADaDNofi6gH9kbLydxTmc-Q23M3HCs4GW-KRfiQRiHiVZGce1Hh05bIgVd- -04ktdOlFO09gcnJx37F2OBJC6Gg4zahbz0wwIV395ctz4QaimhIY1mwBuTzph5qThVYfmDmSrJGQQAO7P2tmSLkUhc6EyfKQ2tSQoL8P8_mJkkIAWFqxZHVxAXEy5fG59vukrzBt21zFYDpC9mZ9TBBbl1dZV0-SGlpev9UkJVKV-bxJ_MAcGn68MiBEmsolqKjf9lNdWFrZuKjWy-fK4nw6qjeCEssFdrjJLbJGviaMZfqNsM-PHYwv0VoAeHIgLTDWdMwf1UaZONELsNGbfeA49vZBt70VmmFsbF00fLhqD6uzED1J9kI56Xcg7WDAPFocVRmTM02eg6tIxRUzgqLC-KBmKguEOoGoBbwWxwPrJ1Y8oF8CbhmMqMhHmcj8Y-NcrBmGCQWfIXcz2kX6O0RxOu2y-Twor3AUD1EvFNMSkiS9iWAwGr-0JX6je6uAn4DRXurGiN8lJ8PIVFknC9K5AWhrmpVVsmyGV5YXR_MZarnhLWX-8OfZBIMmMzlz6KH1dDWDCiu8yfZ_5vvwbJYCqsfOHkPVPw_7B07v7y0]--></g></svg>