<svg xmlns="http://www.w3.org/2000/svg" xmlns:xlink="http://www.w3.org/1999/xlink" contentStyleType="text/css" height="866px" preserveAspectRatio="none" style="width:2427px;height:866px;background:#FFFFFF;" version="1.1" viewBox="0 0 2427 866" width="2427px" zoomAndPan="magnify"><defs/><g><rect fill="none" height="15.0938" style="stroke:none;stroke-width:1.0;" width="2394.0811" x="15" y="11.1367"/><rect fill="#E8F4F8" height="843.2188" style="stroke:#E8F4F8;stroke-width:1.0;" width="268.1367" x="15" y="11.1367"/><ellipse cx="150.0684" cy="41.2305" fill="#222222" rx="10" ry="10" style="stroke:#222222;stroke-width:1.0;"/><rect fill="#FFFFFF" height="35.0938" rx="12.5" ry="12.5" style="stroke:#2C3E50;stroke-width:0.5;" width="258.1367" x="21" y="71.2305"/><text fill="#000000" font-family="sans-serif" font-size="12" lengthAdjust="spacing" textLength="238.1367" x="31" y="93.6875">Book Scheduled Ride (T_pickup in Advance)</text><line style="stroke:#000000;stroke-width:1.5;" x1="15" x2="15" y1="11.1367" y2="854.3555"/><rect fill="#FDF2E9" height="843.2188" style="stroke:#FDF2E9;stroke-width:1.0;" width="570.6973" x="283.1367" y="11.1367"/><rect fill="#FFFFFF" height="35.0938" rx="12.5" ry="12.5" style="stroke:#2C3E50;stroke-width:0.5;" width="183.4238" x="347.4668" y="126.3242"/><text fill="#000000" font-family="sans-serif" font-size="12" lengthAdjust="spacing" textLength="163.4238" x="357.4668" y="148.7813">Store Reservation in Database</text><rect fill="#FFFFFF" height="35.0938" rx="12.5" ry="12.5" style="stroke:#2C3E50;stroke-width:0.5;" width="300.084" x="289.1367" y="181.418"/><text fill="#000000" font-family="sans-serif" font-size="12" lengthAdjust="spacing" textLength="280.084" x="299.1367" y="203.875">Calculate Driver Match Window (T_pickup - 30 mins)</text><rect fill="#FFFFFF" height="35.0938" rx="12.5" ry="12.5" style="stroke:#2C3E50;stroke-width:0.5;" width="266.0762" x="306.1406" y="236.5117"/><text fill="#000000" font-family="sans-serif" font-size="12" lengthAdjust="spacing" textLength="246.0762" x="316.1406" y="258.9688">Wait for Trigger Window (Cron / Delay Queue)</text><rect fill="#FFFFFF" height="35.0938" rx="12.5" ry="12.5" style="stroke:#2C3E50;stroke-width:0.5;" width="320.123" x="529.7109" y="445.793"/><text fill="#000000" font-family="sans-serif" font-size="12" lengthAdjust="spacing" textLength="300.123" x="539.7109" y="468.25">Fall Back to Standard Dynamic Dispatch Pool at T - 15m</text><rect fill="#FFFFFF" height="35.0938" rx="12.5" ry="12.5" style="stroke:#2C3E50;stroke-width:0.5;" width="244.1094" x="567.7178" y="500.8867"/><text fill="#000000" font-family="sans-serif" font-size="12" lengthAdjust="spacing" textLength="224.1094" x="577.7178" y="523.3438">Broadcast Request to General Driver Pool</text><ellipse cx="689.7725" cy="566.9805" fill="none" rx="11" ry="11" style="stroke:#222222;stroke-width:1.0;"/><ellipse cx="689.7725" cy="566.9805" fill="#222222" rx="6" ry="6" style="stroke:#222222;stroke-width:1.0;"/><line style="stroke:#000000;stroke-width:1.5;" x1="283.1367" x2="283.1367" y1="11.1367" y2="854.3555"/><rect fill="#FEF9E7" height="843.2188" style="stroke:#FEF9E7;stroke-width:1.0;" width="260.7598" x="853.834" y="11.1367"/><rect fill="#FFFFFF" height="35.0938" rx="12.5" ry="12.5" style="stroke:#2C3E50;stroke-width:0.5;" width="250.7598" x="859.834" y="291.6055"/><text fill="#000000" font-family="sans-serif" font-size="12" lengthAdjust="spacing" textLength="230.7598" x="869.834" y="314.0625">Query High-Rating Drivers (Rating &gt;= 4.85)</text><rect fill="#FFFFFF" height="35.0938" rx="12.5" ry="12.5" style="stroke:#2C3E50;stroke-width:0.5;" width="234.7813" x="867.8232" y="346.6992"/><text fill="#000000" font-family="sans-serif" font-size="12" lengthAdjust="spacing" textLength="214.7813" x="877.8232" y="369.1563">Send Advance Offer to Candidate Driver</text><line style="stroke:#000000;stroke-width:1.5;" x1="853.834" x2="853.834" y1="11.1367" y2="854.3555"/><rect fill="#EAECEE" height="843.2188" style="stroke:#EAECEE;stroke-width:1.0;" width="371.4883" x="1114.5938" y="11.1367"/><polygon fill="#FFFFFF" points="1181.627,401.793,1346.3574,401.793,1358.3574,413.793,1346.3574,425.793,1181.627,425.793,1169.627,413.793,1181.627,401.793" style="stroke:#2C3E50;stroke-width:0.5;"/><text fill="#000000" font-family="sans-serif" font-size="12" lengthAdjust="spacing" textLength="164.7305" x="1181.627" y="418.7031">Driver Accepts Advance Offer?</text><text fill="#000000" font-family="sans-serif" font-size="12" lengthAdjust="spacing" textLength="50.0332" x="1119.5938" y="411.1563">Accepted</text><text fill="#000000" font-family="sans-serif" font-size="12" lengthAdjust="spacing" textLength="122.7246" x="1358.3574" y="411.1563">Declined / 60s Timeout</text><line style="stroke:#000000;stroke-width:1.5;" x1="1114.5938" x2="1114.5938" y1="11.1367" y2="854.3555"/><rect fill="#E8F8F5" height="843.2188" style="stroke:#E8F8F5;stroke-width:1.0;" width="616.2207" x="1486.082" y="11.1367"/><rect fill="#FFFFFF" height="35.0938" rx="12.5" ry="12.5" style="stroke:#2C3E50;stroke-width:0.5;" width="161.3867" x="1695.4834" y="445.793"/><text fill="#000000" font-family="sans-serif" font-size="12" lengthAdjust="spacing" textLength="141.3867" x="1705.4834" y="468.25">Lock Reservation to Driver</text><rect fill="#FFFFFF" height="35.0938" rx="12.5" ry="12.5" style="stroke:#2C3E50;stroke-width:0.5;" width="307.4668" x="1622.4434" y="500.8867"/><text fill="#000000" font-family="sans-serif" font-size="12" lengthAdjust="spacing" textLength="287.4668" x="1632.4434" y="523.3438">Start Liveness Heartbeat Check at T_pickup - 20 mins</text><polygon fill="#FFFFFF" points="1669.8027,555.9805,1882.5508,555.9805,1894.5508,567.9805,1882.5508,579.9805,1669.8027,579.9805,1657.8027,567.9805,1669.8027,555.9805" style="stroke:#2C3E50;stroke-width:0.5;"/><text fill="#000000" font-family="sans-serif" font-size="12" lengthAdjust="spacing" textLength="212.748" x="1669.8027" y="572.8906">Driver Online &amp; Moving Toward Pickup?</text><text fill="#000000" font-family="sans-serif" font-size="12" lengthAdjust="spacing" textLength="88.0371" x="1569.7656" y="565.3438">Active &amp; Healthy</text><text fill="#000000" font-family="sans-serif" font-size="12" lengthAdjust="spacing" textLength="202.752" x="1894.5508" y="565.3438">Unresponsive / Offline / No Movement</text><rect fill="#FFFFFF" height="35.0938" rx="12.5" ry="12.5" style="stroke:#2C3E50;stroke-width:0.5;" width="266.7559" x="1492.082" y="599.9805"/><text fill="#000000" font-family="sans-serif" font-size="12" lengthAdjust="spacing" textLength="246.7559" x="1502.082" y="622.4375">Dispatch Final Trip Start at T_pickup - 10 mins</text><rect fill="#FFFFFF" height="35.0938" rx="12.5" ry="12.5" style="stroke:#2C3E50;stroke-width:0.5;" width="250.7832" x="1500.0684" y="655.0742"/><text fill="#000000" font-family="sans-serif" font-size="12" lengthAdjust="spacing" textLength="230.7832" x="1510.0684" y="677.5313">Transition to Standard Ride Execution Flow</text><ellipse cx="1625.46" cy="721.168" fill="none" rx="11" ry="11" style="stroke:#222222;stroke-width:1.0;"/><ellipse cx="1625.46" cy="721.168" fill="#222222" rx="6" ry="6" style="stroke:#222222;stroke-width:1.0;"/><line style="stroke:#000000;stroke-width:1.5;" x1="1486.082" x2="1486.082" y1="11.1367" y2="854.3555"/><rect fill="#FADBD8" height="843.2188" style="stroke:#FADBD8;stroke-width:1.0;" width="306.1113" x="2102.3027" y="11.1367"/><rect fill="#FFFFFF" height="35.0938" rx="12.5" ry="12.5" style="stroke:#2C3E50;stroke-width:0.5;" width="226.748" x="2142.9844" y="599.9805"/><text fill="#000000" font-family="sans-serif" font-size="12" lengthAdjust="spacing" textLength="206.748" x="2152.9844" y="622.4375">Cancel Driver Assignment with Penalty</text><rect fill="#FFFFFF" height="35.0938" rx="12.5" ry="12.5" style="stroke:#2C3E50;stroke-width:0.5;" width="216.7344" x="2147.9912" y="655.0742"/><text fill="#000000" font-family="sans-serif" font-size="12" lengthAdjust="spacing" textLength="196.7344" x="2157.9912" y="677.5313">Trigger High-Priority Instant Dispatch</text><rect fill="#FFFFFF" height="35.0938" rx="12.5" ry="12.5" style="stroke:#2C3E50;stroke-width:0.5;" width="264.1074" x="2124.3047" y="710.168"/><text fill="#000000" font-family="sans-serif" font-size="12" lengthAdjust="spacing" textLength="244.1074" x="2134.3047" y="732.625">Assign Nearest Dedicated Hot-Standby Driver</text><rect fill="#FFFFFF" height="35.0938" rx="12.5" ry="12.5" style="stroke:#2C3E50;stroke-width:0.5;" width="296.1113" x="2108.3027" y="765.2617"/><text fill="#000000" font-family="sans-serif" font-size="12" lengthAdjust="spacing" textLength="276.1113" x="2118.3027" y="787.7188">Notify Passenger of Seamless Driver Reassignment</text><ellipse cx="2256.3584" cy="831.3555" fill="none" rx="11" ry="11" style="stroke:#222222;stroke-width:1.0;"/><ellipse cx="2256.3584" cy="831.3555" fill="#222222" rx="6" ry="6" style="stroke:#222222;stroke-width:1.0;"/><line style="stroke:#000000;stroke-width:1.5;" x1="2102.3027" x2="2102.3027" y1="11.1367" y2="854.3555"/><line style="stroke:#000000;stroke-width:1.5;" x1="2408.4141" x2="2408.4141" y1="11.1367" y2="854.3555"/><line style="stroke:#2980B9;stroke-width:1.0;" x1="150.0684" x2="150.0684" y1="51.2305" y2="71.2305"/><polygon fill="#2980B9" points="146.0684,61.2305,150.0684,71.2305,154.0684,61.2305,150.0684,65.2305" style="stroke:#2980B9;stroke-width:1.0;"/><line style="stroke:#2980B9;stroke-width:1.0;" x1="439.1787" x2="439.1787" y1="161.418" y2="181.418"/><polygon fill="#2980B9" points="435.1787,171.418,439.1787,181.418,443.1787,171.418,439.1787,175.418" style="stroke:#2980B9;stroke-width:1.0;"/><line style="stroke:#2980B9;stroke-width:1.0;" x1="439.1787" x2="439.1787" y1="216.5117" y2="236.5117"/><polygon fill="#2980B9" points="435.1787,226.5117,439.1787,236.5117,443.1787,226.5117,439.1787,230.5117" style="stroke:#2980B9;stroke-width:1.0;"/><line style="stroke:#2980B9;stroke-width:1.0;" x1="689.7725" x2="689.7725" y1="480.8867" y2="500.8867"/><polygon fill="#2980B9" points="685.7725,490.8867,689.7725,500.8867,693.7725,490.8867,689.7725,494.8867" style="stroke:#2980B9;stroke-width:1.0;"/><line style="stroke:#2980B9;stroke-width:1.0;" x1="689.7725" x2="689.7725" y1="535.9805" y2="555.9805"/><polygon fill="#2980B9" points="685.7725,545.9805,689.7725,555.9805,693.7725,545.9805,689.7725,549.9805" style="stroke:#2980B9;stroke-width:1.0;"/><line style="stroke:#2980B9;stroke-width:1.0;" x1="985.2139" x2="985.2139" y1="326.6992" y2="346.6992"/><polygon fill="#2980B9" points="981.2139,336.6992,985.2139,346.6992,989.2139,336.6992,985.2139,340.6992" style="stroke:#2980B9;stroke-width:1.0;"/><line style="stroke:#2980B9;stroke-width:1.0;" x1="1776.1768" x2="1776.1768" y1="480.8867" y2="500.8867"/><polygon fill="#2980B9" points="1772.1768,490.8867,1776.1768,500.8867,1780.1768,490.8867,1776.1768,494.8867" style="stroke:#2980B9;stroke-width:1.0;"/><line style="stroke:#2980B9;stroke-width:1.0;" x1="1625.46" x2="1625.46" y1="635.0742" y2="655.0742"/><polygon fill="#2980B9" points="1621.46,645.0742,1625.46,655.0742,1629.46,645.0742,1625.46,649.0742" style="stroke:#2980B9;stroke-width:1.0;"/><line style="stroke:#2980B9;stroke-width:1.0;" x1="1625.46" x2="1625.46" y1="690.168" y2="710.168"/><polygon fill="#2980B9" points="1621.46,700.168,1625.46,710.168,1629.46,700.168,1625.46,704.168" style="stroke:#2980B9;stroke-width:1.0;"/><line style="stroke:#2980B9;stroke-width:1.0;" x1="1657.8027" x2="1625.46" y1="567.9805" y2="567.9805"/><line style="stroke:#2980B9;stroke-width:1.0;" x1="1625.46" x2="1625.46" y1="567.9805" y2="599.9805"/><polygon fill="#2980B9" points="1621.46,589.9805,1625.46,599.9805,1629.46,589.9805,1625.46,593.9805" style="stroke:#2980B9;stroke-width:1.0;"/><line style="stroke:#2980B9;stroke-width:1.0;" x1="1776.1768" x2="1776.1768" y1="535.9805" y2="555.9805"/><polygon fill="#2980B9" points="1772.1768,545.9805,1776.1768,555.9805,1780.1768,545.9805,1776.1768,549.9805" style="stroke:#2980B9;stroke-width:1.0;"/><line style="stroke:#2980B9;stroke-width:1.0;" x1="2256.3584" x2="2256.3584" y1="635.0742" y2="655.0742"/><polygon fill="#2980B9" points="2252.3584,645.0742,2256.3584,655.0742,2260.3584,645.0742,2256.3584,649.0742" style="stroke:#2980B9;stroke-width:1.0;"/><line style="stroke:#2980B9;stroke-width:1.0;" x1="2256.3584" x2="2256.3584" y1="690.168" y2="710.168"/><polygon fill="#2980B9" points="2252.3584,700.168,2256.3584,710.168,2260.3584,700.168,2256.3584,704.168" style="stroke:#2980B9;stroke-width:1.0;"/><line style="stroke:#2980B9;stroke-width:1.0;" x1="2256.3584" x2="2256.3584" y1="745.2617" y2="765.2617"/><polygon fill="#2980B9" points="2252.3584,755.2617,2256.3584,765.2617,2260.3584,755.2617,2256.3584,759.2617" style="stroke:#2980B9;stroke-width:1.0;"/><line style="stroke:#2980B9;stroke-width:1.0;" x1="2256.3584" x2="2256.3584" y1="800.3555" y2="820.3555"/><polygon fill="#2980B9" points="2252.3584,810.3555,2256.3584,820.3555,2260.3584,810.3555,2256.3584,814.3555" style="stroke:#2980B9;stroke-width:1.0;"/><line style="stroke:#2980B9;stroke-width:1.0;" x1="150.0684" x2="150.0684" y1="106.3242" y2="111.3242"/><line style="stroke:#2980B9;stroke-width:1.0;" x1="150.0684" x2="439.1787" y1="111.3242" y2="111.3242"/><line style="stroke:#2980B9;stroke-width:1.0;" x1="439.1787" x2="439.1787" y1="111.3242" y2="126.3242"/><polygon fill="#2980B9" points="435.1787,116.3242,439.1787,126.3242,443.1787,116.3242,439.1787,120.3242" style="stroke:#2980B9;stroke-width:1.0;"/><line style="stroke:#2980B9;stroke-width:1.0;" x1="439.1787" x2="439.1787" y1="271.6055" y2="276.6055"/><line style="stroke:#2980B9;stroke-width:1.0;" x1="439.1787" x2="985.2139" y1="276.6055" y2="276.6055"/><line style="stroke:#2980B9;stroke-width:1.0;" x1="985.2139" x2="985.2139" y1="276.6055" y2="291.6055"/><polygon fill="#2980B9" points="981.2139,281.6055,985.2139,291.6055,989.2139,281.6055,985.2139,285.6055" style="stroke:#2980B9;stroke-width:1.0;"/><line style="stroke:#2980B9;stroke-width:1.0;" x1="1894.5508" x2="2256.3584" y1="567.9805" y2="567.9805"/><line style="stroke:#2980B9;stroke-width:1.0;" x1="2256.3584" x2="2256.3584" y1="567.9805" y2="599.9805"/><polygon fill="#2980B9" points="2252.3584,589.9805,2256.3584,599.9805,2260.3584,589.9805,2256.3584,593.9805" style="stroke:#2980B9;stroke-width:1.0;"/><line style="stroke:#2980B9;stroke-width:1.0;" x1="1169.627" x2="1157.627" y1="413.793" y2="413.793"/><line style="stroke:#2980B9;stroke-width:1.0;" x1="1157.627" x2="1157.627" y1="413.793" y2="431.793"/><line style="stroke:#2980B9;stroke-width:1.0;" x1="1157.627" x2="1776.1768" y1="431.793" y2="431.793"/><line style="stroke:#2980B9;stroke-width:1.0;" x1="1776.1768" x2="1776.1768" y1="431.793" y2="445.793"/><polygon fill="#2980B9" points="1772.1768,435.793,1776.1768,445.793,1780.1768,435.793,1776.1768,439.793" style="stroke:#2980B9;stroke-width:1.0;"/><line style="stroke:#2980B9;stroke-width:1.0;" x1="1358.3574" x2="1370.3574" y1="413.793" y2="413.793"/><line style="stroke:#2980B9;stroke-width:1.0;" x1="1370.3574" x2="1370.3574" y1="413.793" y2="431.793"/><line style="stroke:#2980B9;stroke-width:1.0;" x1="1370.3574" x2="689.7725" y1="431.793" y2="431.793"/><line style="stroke:#2980B9;stroke-width:1.0;" x1="689.7725" x2="689.7725" y1="431.793" y2="445.793"/><polygon fill="#2980B9" points="685.7725,435.793,689.7725,445.793,693.7725,435.793,689.7725,439.793" style="stroke:#2980B9;stroke-width:1.0;"/><line style="stroke:#2980B9;stroke-width:1.0;" x1="985.2139" x2="985.2139" y1="381.793" y2="386.793"/><line style="stroke:#2980B9;stroke-width:1.0;" x1="985.2139" x2="1263.9922" y1="386.793" y2="386.793"/><line style="stroke:#2980B9;stroke-width:1.0;" x1="1263.9922" x2="1263.9922" y1="386.793" y2="401.793"/><polygon fill="#2980B9" points="1259.9922,391.793,1263.9922,401.793,1267.9922,391.793,1263.9922,395.793" style="stroke:#2980B9;stroke-width:1.0;"/><text fill="#000000" font-family="sans-serif" font-size="12" lengthAdjust="spacing" textLength="97.3711" x="100.3828" y="23.5938">Passenger (Rider)</text><text fill="#000000" font-family="sans-serif" font-size="12" lengthAdjust="spacing" textLength="142.0957" x="497.4375" y="23.5938">Scheduled Ride Scheduler</text><text fill="#000000" font-family="sans-serif" font-size="12" lengthAdjust="spacing" textLength="139.4238" x="914.502" y="23.5938">Advance Matching Engine</text><text fill="#000000" font-family="sans-serif" font-size="12" lengthAdjust="spacing" textLength="74.6836" x="1262.9961" y="23.5938">Driver Partner</text><text fill="#000000" font-family="sans-serif" font-size="12" lengthAdjust="spacing" textLength="136.752" x="1725.8164" y="23.5938">Liveness Monitoring Loop</text><text fill="#000000" font-family="sans-serif" font-size="12" lengthAdjust="spacing" textLength="149.4082" x="2180.6543" y="23.5938">Emergency Fallback Engine</text><!--SRC=[ZLJTRzCm47_FNt7Q9DH96_k6hXEWjadOf7sKjcYFo7CkhLN73hRJ4YZ_EsTdwLh40tbAVBwxtyTTx4AeaXbMGA6LvdEZ2uISIOkHtOGop5abNQgLUs0KtxjL3iqXtA1SeXES7O9boXvPD2BV-tVYHFn4E3tR2ZBkn5Au6dv500F65pEZAvKDjTG6zjFm-8Ws6PgNqxFXUN9vGgTzO_IgFRpgdWokejzHjDvFkkb5sbt3Y5cBQeO6EcD1-GUmZgnZnaMzWTOBcF0vPfN437mOEjDlfU2BgWIXe9yjcU9uSEqBfd5wbboj_qveFmtLxKsSDWXZ9FvBveHMlahC77jc5g-Ztf19Nadc468ZbfHppnoVmvDGcLvjzJw2ynCeXBBKklV4X8ES-4sDc7aYxVMXeGR74ADaDNofi6gH9kbLydxTmc-Q23M3HCs4GW-KRfiQRiHiVZGce1Hh05bIgVd- -04ktdOlFO09gcnJx37F2OBJC6Gg4zahbz0wwIV395ctz4QaimhIY1mwBuTzph5qThVYfmDmSrJGQQAO7P2tmSLkUhc6EyfKQ2tSQoL8P8_mJkkIAWFqxZHVxAXEy5fG59vukrzBt21zFYDpC9mZ9TBBbl1dZV0-SGlpev9UkJVKV-bxJ_MAcGn68MiBEmsolqKjf9lNdWFrZuKjWy-fK4nw6qjeCEssFdrjJLbJGviaMZfqNsM-PHYwv0VoAeHIgLTDWdMwf1UaZONELsNGbfeA49vZBt70VmmFsbF00fLhqD6uzED1J9kI56Xcg7WDAPFocVRmTM02eg6tIxRUzgqLC-KBmKguEOoGoBbwWxwPrJ1Y8oF8CbhmMqMhHmcj8Y-NcrBmGCQWfIXcz2kX6O0RxOu2y-Twor3AUD1EvFNMSkiS9iWAwGr-0JX6je6uAn4DRXurGiN8lJ8PIVFknC9K5AWhrmpVVsmyGV5YXR_MZarnhLWX-8OfZBIMmMzlz6KH1dDWDCiu8yfZ_5vvwbJYCqsfOHkPVPw_7B07v7y0]--></g></svg>