<svg xmlns="http://www.w3.org/2000/svg" xmlns:xlink="http://www.w3.org/1999/xlink" contentStyleType="text/css" height="994px" preserveAspectRatio="none" style="width:2521px;height:994px;background:#FFFFFF;" version="1.1" viewBox="0 0 2521 994" width="2521px" zoomAndPan="magnify"><defs/><g><rect fill="none" height="349.2656" style="stroke:#000000;stroke-width:1.5;" width="2494.5044" x="10" y="547.1563"/><line style="stroke:#181818;stroke-width:0.5;stroke-dasharray:5.0,5.0;" x1="132" x2="132" y1="81.2969" y2="913.4219"/><line style="stroke:#181818;stroke-width:0.5;stroke-dasharray:5.0,5.0;" x1="728.3794" x2="728.3794" y1="81.2969" y2="913.4219"/><line style="stroke:#181818;stroke-width:0.5;stroke-dasharray:5.0,5.0;" x1="1133.8823" x2="1133.8823" y1="81.2969" y2="913.4219"/><line style="stroke:#181818;stroke-width:0.5;stroke-dasharray:5.0,5.0;" x1="1290.9321" x2="1290.9321" y1="81.2969" y2="913.4219"/><line style="stroke:#181818;stroke-width:0.5;stroke-dasharray:5.0,5.0;" x1="1474.5825" x2="1474.5825" y1="81.2969" y2="913.4219"/><line style="stroke:#181818;stroke-width:0.5;stroke-dasharray:5.0,5.0;" x1="1669.4058" x2="1669.4058" y1="81.2969" y2="913.4219"/><line style="stroke:#181818;stroke-width:0.5;stroke-dasharray:5.0,5.0;" x1="2136.7007" x2="2136.7007" y1="81.2969" y2="913.4219"/><line style="stroke:#181818;stroke-width:0.5;stroke-dasharray:5.0,5.0;" x1="2299.604" x2="2299.604" y1="81.2969" y2="913.4219"/><line style="stroke:#181818;stroke-width:0.5;stroke-dasharray:5.0,5.0;" x1="2439.3521" x2="2439.3521" y1="81.2969" y2="913.4219"/><path d="M25,55 L240.8984,55 C245.8984,55 245.8984,68.1484 245.8984,68.1484 C245.8984,68.1484 245.8984,81.2969 240.8984,81.2969 L25,81.2969 C20,81.2969 20,68.1484 20,68.1484 C20,68.1484 20,55 25,55 " fill="#E2E2F0" style="stroke:#181818;stroke-width:0.5;"/><path d="M240.8984,55 C235.8984,55 235.8984,68.1484 235.8984,68.1484 C235.8984,81.2969 240.8984,81.2969 240.8984,81.2969 " fill="none" style="stroke:#181818;stroke-width:0.5;"/><text fill="#000000" font-family="sans-serif" font-size="14" lengthAdjust="spacing" textLength="205.8984" x="25" y="72.9951">Kafka (order.lifecycle.events)</text><path d="M25,912.4219 L240.8984,912.4219 C245.8984,912.4219 245.8984,925.5703 245.8984,925.5703 C245.8984,925.5703 245.8984,938.7188 240.8984,938.7188 L25,938.7188 C20,938.7188 20,925.5703 20,925.5703 C20,925.5703 20,912.4219 25,912.4219 " fill="#E2E2F0" style="stroke:#181818;stroke-width:0.5;"/><path d="M240.8984,912.4219 C235.8984,912.4219 235.8984,925.5703 235.8984,925.5703 C235.8984,938.7188 240.8984,938.7188 240.8984,938.7188 " fill="none" style="stroke:#181818;stroke-width:0.5;"/><text fill="#000000" font-family="sans-serif" font-size="14" lengthAdjust="spacing" textLength="205.8984" x="25" y="930.417">Kafka (order.lifecycle.events)</text><rect fill="#E2E2F0" height="30.2969" rx="2.5" ry="2.5" style="stroke:#181818;stroke-width:0.5;" width="130.7988" x="663.3794" y="50"/><text fill="#000000" font-family="sans-serif" font-size="14" lengthAdjust="spacing" textLength="116.7988" x="670.3794" y="69.9951">Matching Engine</text><rect fill="#E2E2F0" height="30.2969" rx="2.5" ry="2.5" style="stroke:#181818;stroke-width:0.5;" width="130.7988" x="663.3794" y="912.4219"/><text fill="#000000" font-family="sans-serif" font-size="14" lengthAdjust="spacing" textLength="116.7988" x="670.3794" y="932.417">Matching Engine</text><text fill="#000000" font-family="sans-serif" font-size="14" lengthAdjust="spacing" textLength="139.0498" x="1061.8823" y="77.9951">Redis Spatial Cache</text><path d="M1116.4072,29 C1116.4072,19 1134.4072,19 1134.4072,19 C1134.4072,19 1152.4072,19 1152.4072,29 L1152.4072,55 C1152.4072,65 1134.4072,65 1134.4072,65 C1134.4072,65 1116.4072,65 1116.4072,55 L1116.4072,29 " fill="#E2E2F0" style="stroke:#181818;stroke-width:1.5;"/><path d="M1116.4072,29 C1116.4072,39 1134.4072,39 1134.4072,39 C1134.4072,39 1152.4072,39 1152.4072,29 " fill="none" style="stroke:#181818;stroke-width:1.5;"/><text fill="#000000" font-family="sans-serif" font-size="14" lengthAdjust="spacing" textLength="139.0498" x="1061.8823" y="925.417">Redis Spatial Cache</text><path d="M1116.4072,938.7188 C1116.4072,928.7188 1134.4072,928.7188 1134.4072,928.7188 C1134.4072,928.7188 1152.4072,928.7188 1152.4072,938.7188 L1152.4072,964.7188 C1152.4072,974.7188 1134.4072,974.7188 1134.4072,974.7188 C1134.4072,974.7188 1116.4072,974.7188 1116.4072,964.7188 L1116.4072,938.7188 " fill="#E2E2F0" style="stroke:#181818;stroke-width:1.5;"/><path d="M1116.4072,938.7188 C1116.4072,948.7188 1134.4072,948.7188 1134.4072,948.7188 C1134.4072,948.7188 1152.4072,948.7188 1152.4072,938.7188 " fill="none" style="stroke:#181818;stroke-width:1.5;"/><rect fill="#E2E2F0" height="30.2969" rx="2.5" ry="2.5" style="stroke:#181818;stroke-width:0.5;" width="129.6504" x="1226.9321" y="50"/><text fill="#000000" font-family="sans-serif" font-size="14" lengthAdjust="spacing" textLength="115.6504" x="1233.9321" y="69.9951">Location Service</text><rect fill="#E2E2F0" height="30.2969" rx="2.5" ry="2.5" style="stroke:#181818;stroke-width:0.5;" width="129.6504" x="1226.9321" y="912.4219"/><text fill="#000000" font-family="sans-serif" font-size="14" lengthAdjust="spacing" textLength="115.6504" x="1233.9321" y="932.417">Location Service</text><rect fill="#E2E2F0" height="30.2969" rx="2.5" ry="2.5" style="stroke:#181818;stroke-width:0.5;" width="177.8232" x="1386.5825" y="50"/><text fill="#000000" font-family="sans-serif" font-size="14" lengthAdjust="spacing" textLength="163.8232" x="1393.5825" y="69.9951">Routing Engine (OSRM)</text><rect fill="#E2E2F0" height="30.2969" rx="2.5" ry="2.5" style="stroke:#181818;stroke-width:0.5;" width="177.8232" x="1386.5825" y="912.4219"/><text fill="#000000" font-family="sans-serif" font-size="14" lengthAdjust="spacing" textLength="163.8232" x="1393.5825" y="932.417">Routing Engine (OSRM)</text><rect fill="#E2E2F0" height="30.2969" rx="2.5" ry="2.5" style="stroke:#181818;stroke-width:0.5;" width="150.5205" x="1594.4058" y="50"/><text fill="#000000" font-family="sans-serif" font-size="14" lengthAdjust="spacing" textLength="136.5205" x="1601.4058" y="69.9951">Notification Service</text><rect fill="#E2E2F0" height="30.2969" rx="2.5" ry="2.5" style="stroke:#181818;stroke-width:0.5;" width="150.5205" x="1594.4058" y="912.4219"/><text fill="#000000" font-family="sans-serif" font-size="14" lengthAdjust="spacing" textLength="136.5205" x="1601.4058" y="932.417">Notification Service</text><text fill="#000000" font-family="sans-serif" font-size="14" lengthAdjust="spacing" textLength="150.9033" x="2058.7007" y="77.9951">Candidate Driver App</text><ellipse cx="2137.1523" cy="13.5" fill="#E2E2F0" rx="8" ry="8" style="stroke:#181818;stroke-width:0.5;"/><path d="M2137.1523,21.5 L2137.1523,48.5 M2124.1523,29.5 L2150.1523,29.5 M2137.1523,48.5 L2124.1523,63.5 M2137.1523,48.5 L2150.1523,63.5 " fill="none" style="stroke:#181818;stroke-width:0.5;"/><text fill="#000000" font-family="sans-serif" font-size="14" lengthAdjust="spacing" textLength="150.9033" x="2058.7007" y="925.417">Candidate Driver App</text><ellipse cx="2137.1523" cy="937.2188" fill="#E2E2F0" rx="8" ry="8" style="stroke:#181818;stroke-width:0.5;"/><path d="M2137.1523,945.2188 L2137.1523,972.2188 M2124.1523,953.2188 L2150.1523,953.2188 M2137.1523,972.2188 L2124.1523,987.2188 M2137.1523,972.2188 L2150.1523,987.2188 " fill="none" style="stroke:#181818;stroke-width:0.5;"/><text fill="#000000" font-family="sans-serif" font-size="14" lengthAdjust="spacing" textLength="142.748" x="2225.604" y="77.9951">PostgreSQL Core DB</text><path d="M2281.978,29 C2281.978,19 2299.978,19 2299.978,19 C2299.978,19 2317.978,19 2317.978,29 L2317.978,55 C2317.978,65 2299.978,65 2299.978,65 C2299.978,65 2281.978,65 2281.978,55 L2281.978,29 " fill="#E2E2F0" style="stroke:#181818;stroke-width:1.5;"/><path d="M2281.978,29 C2281.978,39 2299.978,39 2299.978,39 C2299.978,39 2317.978,39 2317.978,29 " fill="none" style="stroke:#181818;stroke-width:1.5;"/><text fill="#000000" font-family="sans-serif" font-size="14" lengthAdjust="spacing" textLength="142.748" x="2225.604" y="925.417">PostgreSQL Core DB</text><path d="M2281.978,938.7188 C2281.978,928.7188 2299.978,928.7188 2299.978,928.7188 C2299.978,928.7188 2317.978,928.7188 2317.978,938.7188 L2317.978,964.7188 C2317.978,974.7188 2299.978,974.7188 2299.978,974.7188 C2299.978,974.7188 2281.978,974.7188 2281.978,964.7188 L2281.978,938.7188 " fill="#E2E2F0" style="stroke:#181818;stroke-width:1.5;"/><path d="M2281.978,938.7188 C2281.978,948.7188 2299.978,948.7188 2299.978,948.7188 C2299.978,948.7188 2317.978,948.7188 2317.978,938.7188 " fill="none" style="stroke:#181818;stroke-width:1.5;"/><text fill="#000000" font-family="sans-serif" font-size="14" lengthAdjust="spacing" textLength="104.1523" x="2384.3521" y="77.9951">Passenger App</text><ellipse cx="2439.4282" cy="13.5" fill="#E2E2F0" rx="8" ry="8" style="stroke:#181818;stroke-width:0.5;"/><path d="M2439.4282,21.5 L2439.4282,48.5 M2426.4282,29.5 L2452.4282,29.5 M2439.4282,48.5 L2426.4282,63.5 M2439.4282,48.5 L2452.4282,63.5 " fill="none" style="stroke:#181818;stroke-width:0.5;"/><text fill="#000000" font-family="sans-serif" font-size="14" lengthAdjust="spacing" textLength="104.1523" x="2384.3521" y="925.417">Passenger App</text><ellipse cx="2439.4282" cy="937.2188" fill="#E2E2F0" rx="8" ry="8" style="stroke:#181818;stroke-width:0.5;"/><path d="M2439.4282,945.2188 L2439.4282,972.2188 M2426.4282,953.2188 L2452.4282,953.2188 M2439.4282,972.2188 L2426.4282,987.2188 M2439.4282,972.2188 L2452.4282,987.2188 " fill="none" style="stroke:#181818;stroke-width:0.5;"/><rect fill="#EEEEEE" height="3" style="stroke:#EEEEEE;stroke-width:1.0;" width="2514.5044" x="0" y="111.8633"/><line style="stroke:#000000;stroke-width:1.0;" x1="0" x2="2514.5044" y1="111.8633" y2="111.8633"/><line style="stroke:#000000;stroke-width:1.0;" x1="0" x2="2514.5044" y1="114.8633" y2="114.8633"/><rect fill="#EEEEEE" height="23.1328" style="stroke:#000000;stroke-width:2.0;" width="292.8398" x="1110.8323" y="101.2969"/><text fill="#000000" font-family="sans-serif" font-size="13" font-weight="bold" lengthAdjust="spacing" textLength="274.314" x="1116.8323" y="117.3638">Step 1: Ingest &amp; Candidate Discovery</text><polygon fill="#181818" points="716.7788,151.5625,726.7788,155.5625,716.7788,159.5625,720.7788,155.5625" style="stroke:#181818;stroke-width:1.0;"/><line style="stroke:#181818;stroke-width:1.0;" x1="132.9492" x2="722.7788" y1="155.5625" y2="155.5625"/><text fill="#000000" font-family="sans-serif" font-size="13" font-weight="bold" lengthAdjust="spacing" textLength="9.0454" x="139.9492" y="150.4966">1</text><text fill="#000000" font-family="sans-serif" font-size="13" lengthAdjust="spacing" textLength="558.7842" x="152.9946" y="150.4966">Consume("ORDER_REQUESTED", ride_id="ride_77218", pickup_h3="881f1d488ffffff")</text><polygon fill="#181818" points="1122.4072,180.6953,1132.4072,184.6953,1122.4072,188.6953,1126.4072,184.6953" style="stroke:#181818;stroke-width:1.0;"/><line style="stroke:#181818;stroke-width:1.0;" x1="728.7788" x2="1128.4072" y1="184.6953" y2="184.6953"/><text fill="#000000" font-family="sans-serif" font-size="13" font-weight="bold" lengthAdjust="spacing" textLength="9.0454" x="735.7788" y="179.6294">2</text><text fill="#000000" font-family="sans-serif" font-size="13" lengthAdjust="spacing" textLength="368.583" x="748.8242" y="179.6294">Query available drivers in kRing(pickup_h3, radius=1..2)</text><polygon fill="#181818" points="739.7788,209.8281,729.7788,213.8281,739.7788,217.8281,735.7788,213.8281" style="stroke:#181818;stroke-width:1.0;"/><line style="stroke:#181818;stroke-width:1.0;stroke-dasharray:2.0,2.0;" x1="733.7788" x2="1133.4072" y1="213.8281" y2="213.8281"/><text fill="#000000" font-family="sans-serif" font-size="13" font-weight="bold" lengthAdjust="spacing" textLength="9.0454" x="745.7788" y="208.7622">3</text><text fill="#000000" font-family="sans-serif" font-size="13" lengthAdjust="spacing" textLength="290.2021" x="758.8242" y="208.7622">Returns [driver_101, driver_204, driver_309]</text><polygon fill="#181818" points="1463.4941,238.9609,1473.4941,242.9609,1463.4941,246.9609,1467.4941,242.9609" style="stroke:#181818;stroke-width:1.0;"/><line style="stroke:#181818;stroke-width:1.0;" x1="728.7788" x2="1469.4941" y1="242.9609" y2="242.9609"/><text fill="#000000" font-family="sans-serif" font-size="13" font-weight="bold" lengthAdjust="spacing" textLength="9.0454" x="735.7788" y="237.895">4</text><text fill="#000000" font-family="sans-serif" font-size="13" lengthAdjust="spacing" textLength="270.9243" x="748.8242" y="237.895">Batch Distance Matrix (Drivers -&gt; Pickup)</text><polygon fill="#181818" points="739.7788,268.0938,729.7788,272.0938,739.7788,276.0938,735.7788,272.0938" style="stroke:#181818;stroke-width:1.0;"/><line style="stroke:#181818;stroke-width:1.0;stroke-dasharray:2.0,2.0;" x1="733.7788" x2="1474.4941" y1="272.0938" y2="272.0938"/><text fill="#000000" font-family="sans-serif" font-size="13" font-weight="bold" lengthAdjust="spacing" textLength="9.0454" x="745.7788" y="267.0278">5</text><text fill="#000000" font-family="sans-serif" font-size="13" lengthAdjust="spacing" textLength="411.2266" x="758.8242" y="267.0278">[driver_101: ETA 3m, driver_204: ETA 5m, driver_309: ETA 7m]</text><line style="stroke:#181818;stroke-width:1.0;" x1="728.7788" x2="770.7788" y1="316.3594" y2="316.3594"/><line style="stroke:#181818;stroke-width:1.0;" x1="770.7788" x2="770.7788" y1="316.3594" y2="329.3594"/><line style="stroke:#181818;stroke-width:1.0;" x1="729.7788" x2="770.7788" y1="329.3594" y2="329.3594"/><polygon fill="#181818" points="739.7788,325.3594,729.7788,329.3594,739.7788,333.3594,735.7788,329.3594" style="stroke:#181818;stroke-width:1.0;"/><text fill="#000000" font-family="sans-serif" font-size="13" font-weight="bold" lengthAdjust="spacing" textLength="9.0454" x="735.7788" y="303.7271">6</text><text fill="#000000" font-family="sans-serif" font-size="13" lengthAdjust="spacing" textLength="186.9512" x="748.8242" y="296.1606">Rank Drivers by Utility Score</text><text fill="#000000" font-family="sans-serif" font-size="13" lengthAdjust="spacing" textLength="353.7485" x="748.8242" y="311.2935">(Score = w1*ETA + w2*AcceptanceRate + w3*Rating)</text><path d="M1113.7939,296.1602 L1113.7939,321.1602 L1345.7939,321.1602 L1345.7939,306.1602 L1335.7939,296.1602 L1113.7939,296.1602 " fill="#FEFFDD" style="stroke:#181818;stroke-width:0.5;"/><path d="M1335.7939,296.1602 L1335.7939,306.1602 L1345.7939,306.1602 L1335.7939,296.1602 " fill="#FEFFDD" style="stroke:#181818;stroke-width:0.5;"/><text fill="#000000" font-family="sans-serif" font-size="13" lengthAdjust="spacing" textLength="211.4785" x="1119.7939" y="313.2271">Selected Best Driver: driver_101</text><rect fill="#EEEEEE" height="3" style="stroke:#EEEEEE;stroke-width:1.0;" width="2514.5044" x="0" y="357.9258"/><line style="stroke:#000000;stroke-width:1.0;" x1="0" x2="2514.5044" y1="357.9258" y2="357.9258"/><line style="stroke:#000000;stroke-width:1.0;" x1="0" x2="2514.5044" y1="360.9258" y2="360.9258"/><rect fill="#EEEEEE" height="23.1328" style="stroke:#000000;stroke-width:2.0;" width="335.2358" x="1089.6343" y="347.3594"/><text fill="#000000" font-family="sans-serif" font-size="13" font-weight="bold" lengthAdjust="spacing" textLength="316.71" x="1095.6343" y="363.4263">Step 2: Lock Driver &amp; Dispatch Timed Offer</text><polygon fill="#181818" points="1122.4072,397.625,1132.4072,401.625,1122.4072,405.625,1126.4072,401.625" style="stroke:#181818;stroke-width:1.0;"/><line style="stroke:#181818;stroke-width:1.0;" x1="728.7788" x2="1128.4072" y1="401.625" y2="401.625"/><text fill="#000000" font-family="sans-serif" font-size="13" font-weight="bold" lengthAdjust="spacing" textLength="9.0454" x="735.7788" y="396.5591">7</text><text fill="#000000" font-family="sans-serif" font-size="13" lengthAdjust="spacing" textLength="280.4395" x="748.8242" y="396.5591">SET lock:driver:101 "ride_77218" NX EX 16</text><polygon fill="#181818" points="739.7788,426.7578,729.7788,430.7578,739.7788,434.7578,735.7788,430.7578" style="stroke:#181818;stroke-width:1.0;"/><line style="stroke:#181818;stroke-width:1.0;stroke-dasharray:2.0,2.0;" x1="733.7788" x2="1133.4072" y1="430.7578" y2="430.7578"/><text fill="#000000" font-family="sans-serif" font-size="13" font-weight="bold" lengthAdjust="spacing" textLength="9.0454" x="745.7788" y="425.6919">8</text><text fill="#000000" font-family="sans-serif" font-size="13" lengthAdjust="spacing" textLength="158.3486" x="758.8242" y="425.6919">Lock Acquired (Success)</text><polygon fill="#181818" points="1657.666,455.8906,1667.666,459.8906,1657.666,463.8906,1661.666,459.8906" style="stroke:#181818;stroke-width:1.0;"/><line style="stroke:#181818;stroke-width:1.0;" x1="728.7788" x2="1663.666" y1="459.8906" y2="459.8906"/><text fill="#000000" font-family="sans-serif" font-size="13" font-weight="bold" lengthAdjust="spacing" textLength="9.0454" x="735.7788" y="454.8247">9</text><text fill="#000000" font-family="sans-serif" font-size="13" lengthAdjust="spacing" textLength="469.5488" x="748.8242" y="454.8247">DispatchOffer(driver_101, ride_id, payout=$14.80, eta=3m, timer=15s)</text><polygon fill="#181818" points="2125.1523,485.0234,2135.1523,489.0234,2125.1523,493.0234,2129.1523,489.0234" style="stroke:#181818;stroke-width:1.0;"/><line style="stroke:#181818;stroke-width:1.0;" x1="1669.666" x2="2131.1523" y1="489.0234" y2="489.0234"/><text fill="#000000" font-family="sans-serif" font-size="13" font-weight="bold" lengthAdjust="spacing" textLength="18.0908" x="1676.666" y="483.9575">10</text><text fill="#000000" font-family="sans-serif" font-size="13" lengthAdjust="spacing" textLength="421.3955" x="1698.7568" y="483.9575">Push/WebSocket Notification ("New Ride Offer: 15s Countdown")</text><rect fill="#EEEEEE" height="3" style="stroke:#EEEEEE;stroke-width:1.0;" width="2514.5044" x="0" y="517.5898"/><line style="stroke:#000000;stroke-width:1.0;" x1="0" x2="2514.5044" y1="517.5898" y2="517.5898"/><line style="stroke:#000000;stroke-width:1.0;" x1="0" x2="2514.5044" y1="520.5898" y2="520.5898"/><rect fill="#EEEEEE" height="23.1328" style="stroke:#000000;stroke-width:2.0;" width="235.9966" x="1139.2539" y="507.0234"/><text fill="#000000" font-family="sans-serif" font-size="13" font-weight="bold" lengthAdjust="spacing" textLength="217.4707" x="1145.2539" y="523.0903">Step 3: Driver Response Loop</text><path d="M10,547.1563 L74.4429,547.1563 L74.4429,554.2891 L64.4429,564.2891 L10,564.2891 L10,547.1563 " fill="#EEEEEE" style="stroke:#000000;stroke-width:1.5;"/><rect fill="none" height="349.2656" style="stroke:#000000;stroke-width:1.5;" width="2494.5044" x="10" y="547.1563"/><text fill="#000000" font-family="sans-serif" font-size="13" font-weight="bold" lengthAdjust="spacing" textLength="19.4429" x="25" y="560.2231">alt</text><text fill="#000000" font-family="sans-serif" font-size="11" font-weight="bold" lengthAdjust="spacing" textLength="216.7183" x="89.4429" y="559.3667">[Driver Accepts within 15 seconds]</text><polygon fill="#181818" points="739.7788,581.4219,729.7788,585.4219,739.7788,589.4219,735.7788,585.4219" style="stroke:#181818;stroke-width:1.0;"/><line style="stroke:#181818;stroke-width:1.0;" x1="733.7788" x2="2136.1523" y1="585.4219" y2="585.4219"/><text fill="#000000" font-family="sans-serif" font-size="13" font-weight="bold" lengthAdjust="spacing" textLength="18.0908" x="745.7788" y="580.356">11</text><text fill="#000000" font-family="sans-serif" font-size="13" lengthAdjust="spacing" textLength="372.9438" x="767.8696" y="580.356">POST /api/v1/driver/offers/accept {ride_id: "ride_77218"}</text><polygon fill="#181818" points="2287.978,610.5547,2297.978,614.5547,2287.978,618.5547,2291.978,614.5547" style="stroke:#181818;stroke-width:1.0;"/><line style="stroke:#181818;stroke-width:1.0;" x1="728.7788" x2="2293.978" y1="614.5547" y2="614.5547"/><text fill="#000000" font-family="sans-serif" font-size="13" font-weight="bold" lengthAdjust="spacing" textLength="18.0908" x="735.7788" y="609.4888">12</text><text fill="#000000" font-family="sans-serif" font-size="13" lengthAdjust="spacing" textLength="568.7183" x="757.8696" y="609.4888">UPDATE rides SET driver_id='driver_101', status='ALLOCATED' WHERE id='ride_77218'</text><polygon fill="#181818" points="1122.4072,639.6875,1132.4072,643.6875,1122.4072,647.6875,1126.4072,643.6875" style="stroke:#181818;stroke-width:1.0;"/><line style="stroke:#181818;stroke-width:1.0;" x1="728.7788" x2="1128.4072" y1="643.6875" y2="643.6875"/><text fill="#000000" font-family="sans-serif" font-size="13" font-weight="bold" lengthAdjust="spacing" textLength="18.0908" x="735.7788" y="638.6216">13</text><text fill="#000000" font-family="sans-serif" font-size="13" lengthAdjust="spacing" textLength="278.897" x="757.8696" y="638.6216">SET driver:101:status "EN_ROUTE_PICKUP"</text><polygon fill="#181818" points="143.9492,668.8203,133.9492,672.8203,143.9492,676.8203,139.9492,672.8203" style="stroke:#181818;stroke-width:1.0;"/><line style="stroke:#181818;stroke-width:1.0;" x1="137.9492" x2="727.7788" y1="672.8203" y2="672.8203"/><text fill="#000000" font-family="sans-serif" font-size="13" font-weight="bold" lengthAdjust="spacing" textLength="18.0908" x="149.9492" y="667.7544">14</text><text fill="#000000" font-family="sans-serif" font-size="13" lengthAdjust="spacing" textLength="345.6362" x="172.04" y="667.7544">Publish("ORDER_ALLOCATED", {ride_id, driver_101})</text><polygon fill="#181818" points="2125.1523,697.9531,2135.1523,701.9531,2125.1523,705.9531,2129.1523,701.9531" style="stroke:#181818;stroke-width:1.0;"/><line style="stroke:#181818;stroke-width:1.0;stroke-dasharray:2.0,2.0;" x1="728.7788" x2="2131.1523" y1="701.9531" y2="701.9531"/><text fill="#000000" font-family="sans-serif" font-size="13" font-weight="bold" lengthAdjust="spacing" textLength="18.0908" x="735.7788" y="696.8872">15</text><text fill="#000000" font-family="sans-serif" font-size="13" lengthAdjust="spacing" textLength="245.6162" x="757.8696" y="696.8872">200 OK (Initiate Navigation to Pickup)</text><polygon fill="#181818" points="2427.4282,727.0859,2437.4282,731.0859,2427.4282,735.0859,2431.4282,731.0859" style="stroke:#181818;stroke-width:1.0;"/><line style="stroke:#181818;stroke-width:1.0;" x1="728.7788" x2="2433.4282" y1="731.0859" y2="731.0859"/><text fill="#000000" font-family="sans-serif" font-size="13" font-weight="bold" lengthAdjust="spacing" textLength="18.0908" x="735.7788" y="726.02">16</text><text fill="#000000" font-family="sans-serif" font-size="13" lengthAdjust="spacing" textLength="539.6079" x="757.8696" y="726.02">WebSocket Event ("DRIVER_ASSIGNED", {driver_name, vehicle, eta: 3m, live_loc})</text><line style="stroke:#000000;stroke-width:1.0;stroke-dasharray:2.0,2.0;" x1="10" x2="2504.5044" y1="740.0859" y2="740.0859"/><text fill="#000000" font-family="sans-serif" font-size="11" font-weight="bold" lengthAdjust="spacing" textLength="234.0562" x="15" y="750.2964">[Driver Rejects OR 15s Timer Expires]</text><line style="stroke:#181818;stroke-width:2.0;" x1="735.7788" x2="745.7788" y1="770.0234" y2="780.0234"/><line style="stroke:#181818;stroke-width:2.0;" x1="735.7788" x2="745.7788" y1="780.0234" y2="770.0234"/><line style="stroke:#181818;stroke-width:1.0;stroke-dasharray:2.0,2.0;" x1="740.7788" x2="2136.1523" y1="775.0234" y2="775.0234"/><text fill="#000000" font-family="sans-serif" font-size="13" font-weight="bold" lengthAdjust="spacing" textLength="18.0908" x="745.7788" y="769.9575">17</text><text fill="#000000" font-family="sans-serif" font-size="13" lengthAdjust="spacing" textLength="198.561" x="767.8696" y="769.9575">POST /reject OR Timer Expired</text><polygon fill="#181818" points="1122.4072,800.1563,1132.4072,804.1563,1122.4072,808.1563,1126.4072,804.1563" style="stroke:#181818;stroke-width:1.0;"/><line style="stroke:#181818;stroke-width:1.0;" x1="728.7788" x2="1128.4072" y1="804.1563" y2="804.1563"/><text fill="#000000" font-family="sans-serif" font-size="13" font-weight="bold" lengthAdjust="spacing" textLength="18.0908" x="735.7788" y="799.0903">18</text><text fill="#000000" font-family="sans-serif" font-size="13" lengthAdjust="spacing" textLength="127.6577" x="757.8696" y="799.0903">DEL lock:driver:101</text><line style="stroke:#181818;stroke-width:1.0;" x1="728.7788" x2="770.7788" y1="833.2891" y2="833.2891"/><line style="stroke:#181818;stroke-width:1.0;" x1="770.7788" x2="770.7788" y1="833.2891" y2="846.2891"/><line style="stroke:#181818;stroke-width:1.0;" x1="729.7788" x2="770.7788" y1="846.2891" y2="846.2891"/><polygon fill="#181818" points="739.7788,842.2891,729.7788,846.2891,739.7788,850.2891,735.7788,846.2891" style="stroke:#181818;stroke-width:1.0;"/><text fill="#000000" font-family="sans-serif" font-size="13" font-weight="bold" lengthAdjust="spacing" textLength="18.0908" x="735.7788" y="828.2231">19</text><text fill="#000000" font-family="sans-serif" font-size="13" lengthAdjust="spacing" textLength="246.2192" x="757.8696" y="828.2231">Penalize driver_101 acceptance score</text><line style="stroke:#181818;stroke-width:1.0;" x1="728.7788" x2="770.7788" y1="875.4219" y2="875.4219"/><line style="stroke:#181818;stroke-width:1.0;" x1="770.7788" x2="770.7788" y1="875.4219" y2="888.4219"/><line style="stroke:#181818;stroke-width:1.0;" x1="729.7788" x2="770.7788" y1="888.4219" y2="888.4219"/><polygon fill="#181818" points="739.7788,884.4219,729.7788,888.4219,739.7788,892.4219,735.7788,888.4219" style="stroke:#181818;stroke-width:1.0;"/><text fill="#000000" font-family="sans-serif" font-size="13" font-weight="bold" lengthAdjust="spacing" textLength="18.0908" x="735.7788" y="870.356">20</text><text fill="#000000" font-family="sans-serif" font-size="13" lengthAdjust="spacing" textLength="352.46" x="757.8696" y="870.356">Pick next candidate (driver_204) and re-dispatch offer</text><!--SRC=[XLLjR-964FxkNp6ogiQaIS0arr1BhWJ1QgFamB6XTr9ReSLUO1kpzddNlFHq_xspQx1DGbk-OC_EFlFCp3DZKiYK5-ivpGtnodX6ShA6GRhpIHmplWIxqx3x99SiOXdXid5kV2beGS5y8ejN0bQQnpI_ITY2HlieeJTqGxaKBHE80ErYP3KCc1-9Z5OAoUDBngbsqxRotOY997CY43-WCHCGPaGoai03YLQbjxQVWZwd4Ngb74AQRrXK-g4nt4IdZa5Qo3euMECm-5XIFPoSkezIoHRi3BO-KEWaacaEvWFXCKFg58Ovsz0S-bcc7SlNHbP-AkGof-7BCpoaEVeFIh_14SedGb2-R60432ji6AuBeQGPs0uyuhcGy3qquZ8HfHXg3wvhbAsv_hbPMGVZSL6igMMEWw4Np0BlPUg54szeNa6E8MOiTatzS7_VjNjepLZqMcIprQrhzdhsmexlUhs5_fajem6j8kckEF1IA0faGrX2vWc5MESlW75u3R2-LeM9GKdC2k7QDpVTbb5s-_ejvu3A8kS2VY-1PdR7lZg0phgTk-hvjlFJdyOxJcLF7HWekogH93oYAaBETc0D3-JGrTUqaCP18E-8D0Wuu4twSBjk4Ybj7zPDGgNjVlsUs6cAXB_2aSfy3rF94YRt44QeZp-ufV_1XQrzgV1-W6ttiXz5DDF91AhvQBkzn2TatZ9uYfQSBLVIGSqcD98qXe7IInd4WJgLMbLTHmtCaGXA2wkLwR9Ds1e1nei5cb5Rv_iUUXD8yBvJOZk83KqnmUWpU9_1_l7V6gs3zwCl1SincXKMcA4GhNUbEqwUKn7KpAocFWvgHW6JFVRJ_Sw-k-brhe1AuggsISmeT-qF27-4Kz37ylY5MBK_qNc8bAY4aoLWcIEwrHDPLiG1XC79AhYCqot7kQWgUkiSYnbGaU7iKKmopLGDIIAhHQ4xAM3B9Av5H0D1evJ7mW3y7PpU5iiVXnDeauorDtQxpBoTAZgYJJGUV3tKm3dfmZSD-gQYmu43Kt_OdtYwS4Btyb1EN0aNTMKlhW0dIEBCNlIVdySFU6Lu0Pz-zG8Fb6STwU9Se8PKQfKu9IAOtcWMZASJR-O_FZnDVVCSWjvhga7pX8dLSP5LN71bVQrwNzF-rdgFrMXtjzE1yHDOZvpXbmPdPqGsR5csMwRLPZYNa5hC3jHIyTIt3pKo31v_KyJ2yF6NKSdhG8UJDRs23Lqn_5PgHJfwaoHuEiC1Gguq4RHMpbyulmB6WTQP6iKSl5s6Gt8gaElTEONa-hgwtRmP_qTpXjxpspa-vtqQYtAIiBzfe-H0gWK5Gksl_mV1CWEdEmbHzKspwltQ0hH2Jg_ZurhIUZSeZur_0000]--></g></svg>