<svg xmlns="http://www.w3.org/2000/svg" xmlns:xlink="http://www.w3.org/1999/xlink" contentStyleType="text/css" height="1028px" preserveAspectRatio="none" style="width:2289px;height:1028px;background:#FFFFFF;" version="1.1" viewBox="0 0 2289 1028" width="2289px" zoomAndPan="magnify"><defs/><g><rect fill="none" height="363.7031" style="stroke:#000000;stroke-width:1.5;" width="2262.5391" x="10" y="565.5313"/><line style="stroke:#181818;stroke-width:0.5;stroke-dasharray:5.0,5.0;" x1="120" x2="120" y1="82.6094" y2="946.2344"/><line style="stroke:#181818;stroke-width:0.5;stroke-dasharray:5.0,5.0;" x1="658.5098" x2="658.5098" y1="82.6094" y2="946.2344"/><line style="stroke:#181818;stroke-width:0.5;stroke-dasharray:5.0,5.0;" x1="1016.8164" x2="1016.8164" y1="82.6094" y2="946.2344"/><line style="stroke:#181818;stroke-width:0.5;stroke-dasharray:5.0,5.0;" x1="1161.6641" x2="1161.6641" y1="82.6094" y2="946.2344"/><line style="stroke:#181818;stroke-width:0.5;stroke-dasharray:5.0,5.0;" x1="1333.167" x2="1333.167" y1="82.6094" y2="946.2344"/><line style="stroke:#181818;stroke-width:0.5;stroke-dasharray:5.0,5.0;" x1="1512.1182" x2="1512.1182" y1="82.6094" y2="946.2344"/><line style="stroke:#181818;stroke-width:0.5;stroke-dasharray:5.0,5.0;" x1="1930.127" x2="1930.127" y1="82.6094" y2="946.2344"/><line style="stroke:#181818;stroke-width:0.5;stroke-dasharray:5.0,5.0;" x1="2079.9746" x2="2079.9746" y1="82.6094" y2="946.2344"/><line style="stroke:#181818;stroke-width:0.5;stroke-dasharray:5.0,5.0;" x1="2210.8086" x2="2210.8086" y1="82.6094" y2="946.2344"/><path d="M25,55 L215.5166,55 C220.5166,55 220.5166,68.8047 220.5166,68.8047 C220.5166,68.8047 220.5166,82.6094 215.5166,82.6094 L25,82.6094 C20,82.6094 20,68.8047 20,68.8047 C20,68.8047 20,55 25,55 " fill="#E2E2F0" style="stroke:#181818;stroke-width:0.5;"/><path d="M215.5166,55 C210.5166,55 210.5166,68.8047 210.5166,68.8047 C210.5166,82.6094 215.5166,82.6094 215.5166,82.6094 " fill="none" style="stroke:#181818;stroke-width:0.5;"/><text fill="#000000" font-family="sans-serif" font-size="14" lengthAdjust="spacing" textLength="180.5166" x="25" y="74.5332">Kafka (order.lifecycle.events)</text><path d="M25,945.2344 L215.5166,945.2344 C220.5166,945.2344 220.5166,959.0391 220.5166,959.0391 C220.5166,959.0391 220.5166,972.8438 215.5166,972.8438 L25,972.8438 C20,972.8438 20,959.0391 20,959.0391 C20,959.0391 20,945.2344 25,945.2344 " fill="#E2E2F0" style="stroke:#181818;stroke-width:0.5;"/><path d="M215.5166,945.2344 C210.5166,945.2344 210.5166,959.0391 210.5166,959.0391 C210.5166,972.8438 215.5166,972.8438 215.5166,972.8438 " fill="none" style="stroke:#181818;stroke-width:0.5;"/><text fill="#000000" font-family="sans-serif" font-size="14" lengthAdjust="spacing" textLength="180.5166" x="25" y="964.7676">Kafka (order.lifecycle.events)</text><rect fill="#E2E2F0" height="31.6094" rx="2.5" ry="2.5" style="stroke:#181818;stroke-width:0.5;" width="118.2891" x="599.5098" y="50"/><text fill="#000000" font-family="sans-serif" font-size="14" lengthAdjust="spacing" textLength="104.2891" x="606.5098" y="71.5332">Matching Engine</text><rect fill="#E2E2F0" height="31.6094" rx="2.5" ry="2.5" style="stroke:#181818;stroke-width:0.5;" width="118.2891" x="599.5098" y="945.2344"/><text fill="#000000" font-family="sans-serif" font-size="14" lengthAdjust="spacing" textLength="104.2891" x="606.5098" y="966.7676">Matching Engine</text><text fill="#000000" font-family="sans-serif" font-size="14" lengthAdjust="spacing" textLength="126.8477" x="950.8164" y="79.5332">Redis Spatial Cache</text><path d="M999.2402,29 C999.2402,19 1017.2402,19 1017.2402,19 C1017.2402,19 1035.2402,19 1035.2402,29 L1035.2402,55 C1035.2402,65 1017.2402,65 1017.2402,65 C1017.2402,65 999.2402,65 999.2402,55 L999.2402,29 " fill="#E2E2F0" style="stroke:#181818;stroke-width:1.5;"/><path d="M999.2402,29 C999.2402,39 1017.2402,39 1017.2402,39 C1017.2402,39 1035.2402,39 1035.2402,29 " fill="none" style="stroke:#181818;stroke-width:1.5;"/><text fill="#000000" font-family="sans-serif" font-size="14" lengthAdjust="spacing" textLength="126.8477" x="950.8164" y="959.7676">Redis Spatial Cache</text><path d="M999.2402,972.8438 C999.2402,962.8438 1017.2402,962.8438 1017.2402,962.8438 C1017.2402,962.8438 1035.2402,962.8438 1035.2402,972.8438 L1035.2402,998.8438 C1035.2402,1008.8438 1017.2402,1008.8438 1017.2402,1008.8438 C1017.2402,1008.8438 999.2402,1008.8438 999.2402,998.8438 L999.2402,972.8438 " fill="#E2E2F0" style="stroke:#181818;stroke-width:1.5;"/><path d="M999.2402,972.8438 C999.2402,982.8438 1017.2402,982.8438 1017.2402,982.8438 C1017.2402,982.8438 1035.2402,982.8438 1035.2402,972.8438 " fill="none" style="stroke:#181818;stroke-width:1.5;"/><rect fill="#E2E2F0" height="31.6094" rx="2.5" ry="2.5" style="stroke:#181818;stroke-width:0.5;" width="117.5029" x="1103.6641" y="50"/><text fill="#000000" font-family="sans-serif" font-size="14" lengthAdjust="spacing" textLength="103.5029" x="1110.6641" y="71.5332">Location Service</text><rect fill="#E2E2F0" height="31.6094" rx="2.5" ry="2.5" style="stroke:#181818;stroke-width:0.5;" width="117.5029" x="1103.6641" y="945.2344"/><text fill="#000000" font-family="sans-serif" font-size="14" lengthAdjust="spacing" textLength="103.5029" x="1110.6641" y="966.7676">Location Service</text><rect fill="#E2E2F0" height="31.6094" rx="2.5" ry="2.5" style="stroke:#181818;stroke-width:0.5;" width="164.9512" x="1251.167" y="50"/><text fill="#000000" font-family="sans-serif" font-size="14" lengthAdjust="spacing" textLength="150.9512" x="1258.167" y="71.5332">Routing Engine (OSRM)</text><rect fill="#E2E2F0" height="31.6094" rx="2.5" ry="2.5" style="stroke:#181818;stroke-width:0.5;" width="164.9512" x="1251.167" y="945.2344"/><text fill="#000000" font-family="sans-serif" font-size="14" lengthAdjust="spacing" textLength="150.9512" x="1258.167" y="966.7676">Routing Engine (OSRM)</text><rect fill="#E2E2F0" height="31.6094" rx="2.5" ry="2.5" style="stroke:#181818;stroke-width:0.5;" width="133.8271" x="1446.1182" y="50"/><text fill="#000000" font-family="sans-serif" font-size="14" lengthAdjust="spacing" textLength="119.8271" x="1453.1182" y="71.5332">Notification Service</text><rect fill="#E2E2F0" height="31.6094" rx="2.5" ry="2.5" style="stroke:#181818;stroke-width:0.5;" width="133.8271" x="1446.1182" y="945.2344"/><text fill="#000000" font-family="sans-serif" font-size="14" lengthAdjust="spacing" textLength="119.8271" x="1453.1182" y="966.7676">Notification Service</text><text fill="#000000" font-family="sans-serif" font-size="14" lengthAdjust="spacing" textLength="133.8477" x="1861.127" y="79.5332">Candidate Driver App</text><ellipse cx="1931.0508" cy="13.5" fill="#E2E2F0" rx="8" ry="8" style="stroke:#181818;stroke-width:0.5;"/><path d="M1931.0508,21.5 L1931.0508,48.5 M1918.0508,29.5 L1944.0508,29.5 M1931.0508,48.5 L1918.0508,63.5 M1931.0508,48.5 L1944.0508,63.5 " fill="none" style="stroke:#181818;stroke-width:0.5;"/><text fill="#000000" font-family="sans-serif" font-size="14" lengthAdjust="spacing" textLength="133.8477" x="1861.127" y="959.7676">Candidate Driver App</text><ellipse cx="1931.0508" cy="971.3438" fill="#E2E2F0" rx="8" ry="8" style="stroke:#181818;stroke-width:0.5;"/><path d="M1931.0508,979.3438 L1931.0508,1006.3438 M1918.0508,987.3438 L1944.0508,987.3438 M1931.0508,1006.3438 L1918.0508,1021.3438 M1931.0508,1006.3438 L1944.0508,1021.3438 " fill="none" style="stroke:#181818;stroke-width:0.5;"/><text fill="#000000" font-family="sans-serif" font-size="14" lengthAdjust="spacing" textLength="133.834" x="2010.9746" y="79.5332">PostgreSQL Core DB</text><path d="M2062.8916,29 C2062.8916,19 2080.8916,19 2080.8916,19 C2080.8916,19 2098.8916,19 2098.8916,29 L2098.8916,55 C2098.8916,65 2080.8916,65 2080.8916,65 C2080.8916,65 2062.8916,65 2062.8916,55 L2062.8916,29 " fill="#E2E2F0" style="stroke:#181818;stroke-width:1.5;"/><path d="M2062.8916,29 C2062.8916,39 2080.8916,39 2080.8916,39 C2080.8916,39 2098.8916,39 2098.8916,29 " fill="none" style="stroke:#181818;stroke-width:1.5;"/><text fill="#000000" font-family="sans-serif" font-size="14" lengthAdjust="spacing" textLength="133.834" x="2010.9746" y="959.7676">PostgreSQL Core DB</text><path d="M2062.8916,972.8438 C2062.8916,962.8438 2080.8916,962.8438 2080.8916,962.8438 C2080.8916,962.8438 2098.8916,962.8438 2098.8916,972.8438 L2098.8916,998.8438 C2098.8916,1008.8438 2080.8916,1008.8438 2080.8916,1008.8438 C2080.8916,1008.8438 2062.8916,1008.8438 2062.8916,998.8438 L2062.8916,972.8438 " fill="#E2E2F0" style="stroke:#181818;stroke-width:1.5;"/><path d="M2062.8916,972.8438 C2062.8916,982.8438 2080.8916,982.8438 2080.8916,982.8438 C2080.8916,982.8438 2098.8916,982.8438 2098.8916,972.8438 " fill="none" style="stroke:#181818;stroke-width:1.5;"/><text fill="#000000" font-family="sans-serif" font-size="14" lengthAdjust="spacing" textLength="95.7305" x="2160.8086" y="79.5332">Passenger App</text><ellipse cx="2211.6738" cy="13.5" fill="#E2E2F0" rx="8" ry="8" style="stroke:#181818;stroke-width:0.5;"/><path d="M2211.6738,21.5 L2211.6738,48.5 M2198.6738,29.5 L2224.6738,29.5 M2211.6738,48.5 L2198.6738,63.5 M2211.6738,48.5 L2224.6738,63.5 " fill="none" style="stroke:#181818;stroke-width:0.5;"/><text fill="#000000" font-family="sans-serif" font-size="14" lengthAdjust="spacing" textLength="95.7305" x="2160.8086" y="959.7676">Passenger App</text><ellipse cx="2211.6738" cy="971.3438" fill="#E2E2F0" rx="8" ry="8" style="stroke:#181818;stroke-width:0.5;"/><path d="M2211.6738,979.3438 L2211.6738,1006.3438 M2198.6738,987.3438 L2224.6738,987.3438 M2211.6738,1006.3438 L2198.6738,1021.3438 M2211.6738,1006.3438 L2224.6738,1021.3438 " fill="none" style="stroke:#181818;stroke-width:0.5;"/><rect fill="#EEEEEE" height="3" style="stroke:#EEEEEE;stroke-width:1.0;" width="2282.5391" x="0" y="113.7852"/><line style="stroke:#000000;stroke-width:1.0;" x1="0" x2="2282.5391" y1="113.7852" y2="113.7852"/><line style="stroke:#000000;stroke-width:1.0;" x1="0" x2="2282.5391" y1="116.7852" y2="116.7852"/><rect fill="#EEEEEE" height="24.3516" style="stroke:#000000;stroke-width:2.0;" width="248.0635" x="1017.2378" y="102.6094"/><text fill="#000000" font-family="sans-serif" font-size="13" font-weight="bold" lengthAdjust="spacing" textLength="230.4517" x="1023.2378" y="120.1045">Step 1: Ingest &amp; Candidate Discovery</text><polygon fill="#181818" points="646.6543,155.3125,656.6543,159.3125,646.6543,163.3125,650.6543,159.3125" style="stroke:#181818;stroke-width:1.0;"/><line style="stroke:#181818;stroke-width:1.0;" x1="120.2583" x2="652.6543" y1="159.3125" y2="159.3125"/><text fill="#000000" font-family="sans-serif" font-size="13" font-weight="bold" lengthAdjust="spacing" textLength="7.23" x="127.2583" y="154.4561">1</text><text fill="#000000" font-family="sans-serif" font-size="13" lengthAdjust="spacing" textLength="503.166" x="138.4883" y="154.4561">Consume("ORDER_REQUESTED", ride_id="ride_77218", pickup_h3="881f1d488ffffff")</text><polygon fill="#181818" points="1005.2402,185.6641,1015.2402,189.6641,1005.2402,193.6641,1009.2402,189.6641" style="stroke:#181818;stroke-width:1.0;"/><line style="stroke:#181818;stroke-width:1.0;" x1="658.6543" x2="1011.2402" y1="189.6641" y2="189.6641"/><text fill="#000000" font-family="sans-serif" font-size="13" font-weight="bold" lengthAdjust="spacing" textLength="7.23" x="665.6543" y="184.8076">2</text><text fill="#000000" font-family="sans-serif" font-size="13" lengthAdjust="spacing" textLength="323.356" x="676.8843" y="184.8076">Query available drivers in kRing(pickup_h3, radius=1..2)</text><polygon fill="#181818" points="669.6543,216.0156,659.6543,220.0156,669.6543,224.0156,665.6543,220.0156" style="stroke:#181818;stroke-width:1.0;"/><line style="stroke:#181818;stroke-width:1.0;stroke-dasharray:2.0,2.0;" x1="663.6543" x2="1016.2402" y1="220.0156" y2="220.0156"/><text fill="#000000" font-family="sans-serif" font-size="13" font-weight="bold" lengthAdjust="spacing" textLength="7.23" x="675.6543" y="215.1592">3</text><text fill="#000000" font-family="sans-serif" font-size="13" lengthAdjust="spacing" textLength="255.0806" x="686.8843" y="215.1592">Returns [driver_101, driver_204, driver_309]</text><polygon fill="#181818" points="1321.6426,246.3672,1331.6426,250.3672,1321.6426,254.3672,1325.6426,250.3672" style="stroke:#181818;stroke-width:1.0;"/><line style="stroke:#181818;stroke-width:1.0;" x1="658.6543" x2="1327.6426" y1="250.3672" y2="250.3672"/><text fill="#000000" font-family="sans-serif" font-size="13" font-weight="bold" lengthAdjust="spacing" textLength="7.23" x="665.6543" y="245.5107">4</text><text fill="#000000" font-family="sans-serif" font-size="13" lengthAdjust="spacing" textLength="238.0308" x="676.8843" y="245.5107">Batch Distance Matrix (Drivers -&gt; Pickup)</text><polygon fill="#181818" points="669.6543,276.7188,659.6543,280.7188,669.6543,284.7188,665.6543,280.7188" style="stroke:#181818;stroke-width:1.0;"/><line style="stroke:#181818;stroke-width:1.0;stroke-dasharray:2.0,2.0;" x1="663.6543" x2="1332.6426" y1="280.7188" y2="280.7188"/><text fill="#000000" font-family="sans-serif" font-size="13" font-weight="bold" lengthAdjust="spacing" textLength="7.23" x="675.6543" y="275.8623">5</text><text fill="#000000" font-family="sans-serif" font-size="13" lengthAdjust="spacing" textLength="368.4814" x="686.8843" y="275.8623">[driver_101: ETA 3m, driver_204: ETA 5m, driver_309: ETA 7m]</text><line style="stroke:#181818;stroke-width:1.0;" x1="658.6543" x2="700.6543" y1="327.4219" y2="327.4219"/><line style="stroke:#181818;stroke-width:1.0;" x1="700.6543" x2="700.6543" y1="327.4219" y2="340.4219"/><line style="stroke:#181818;stroke-width:1.0;" x1="659.6543" x2="700.6543" y1="340.4219" y2="340.4219"/><polygon fill="#181818" points="669.6543,336.4219,659.6543,340.4219,669.6543,344.4219,665.6543,340.4219" style="stroke:#181818;stroke-width:1.0;"/><text fill="#000000" font-family="sans-serif" font-size="13" font-weight="bold" lengthAdjust="spacing" textLength="7.23" x="665.6543" y="314.3896">6</text><text fill="#000000" font-family="sans-serif" font-size="13" lengthAdjust="spacing" textLength="165.4263" x="676.8843" y="306.2139">Rank Drivers by Utility Score</text><text fill="#000000" font-family="sans-serif" font-size="13" lengthAdjust="spacing" textLength="310.3496" x="676.8843" y="322.5654">(Score = w1*ETA + w2*AcceptanceRate + w3*Rating)</text><path d="M998.5796,305.3945 L998.5796,331.3945 L1206.5796,331.3945 L1206.5796,315.3945 L1196.5796,305.3945 L998.5796,305.3945 " fill="#FEFFDD" style="stroke:#181818;stroke-width:0.5;"/><path d="M1196.5796,305.3945 L1196.5796,315.3945 L1206.5796,315.3945 L1196.5796,305.3945 " fill="#FEFFDD" style="stroke:#181818;stroke-width:0.5;"/><text fill="#000000" font-family="sans-serif" font-size="13" lengthAdjust="spacing" textLength="187.1416" x="1004.5796" y="323.8896">Selected Best Driver: driver_101</text><rect fill="#EEEEEE" height="3" style="stroke:#EEEEEE;stroke-width:1.0;" width="2282.5391" x="0" y="369.5977"/><line style="stroke:#000000;stroke-width:1.0;" x1="0" x2="2282.5391" y1="369.5977" y2="369.5977"/><line style="stroke:#000000;stroke-width:1.0;" x1="0" x2="2282.5391" y1="372.5977" y2="372.5977"/><rect fill="#EEEEEE" height="24.3516" style="stroke:#000000;stroke-width:2.0;" width="284.1753" x="999.1819" y="358.4219"/><text fill="#000000" font-family="sans-serif" font-size="13" font-weight="bold" lengthAdjust="spacing" textLength="266.5635" x="1005.1819" y="375.917">Step 2: Lock Driver &amp; Dispatch Timed Offer</text><polygon fill="#181818" points="1005.2402,411.125,1015.2402,415.125,1005.2402,419.125,1009.2402,415.125" style="stroke:#181818;stroke-width:1.0;"/><line style="stroke:#181818;stroke-width:1.0;" x1="658.6543" x2="1011.2402" y1="415.125" y2="415.125"/><text fill="#000000" font-family="sans-serif" font-size="13" font-weight="bold" lengthAdjust="spacing" textLength="7.23" x="665.6543" y="410.2686">7</text><text fill="#000000" font-family="sans-serif" font-size="13" lengthAdjust="spacing" textLength="252.0273" x="676.8843" y="410.2686">SET lock:driver:101 "ride_77218" NX EX 16</text><polygon fill="#181818" points="669.6543,441.4766,659.6543,445.4766,669.6543,449.4766,665.6543,445.4766" style="stroke:#181818;stroke-width:1.0;"/><line style="stroke:#181818;stroke-width:1.0;stroke-dasharray:2.0,2.0;" x1="663.6543" x2="1016.2402" y1="445.4766" y2="445.4766"/><text fill="#000000" font-family="sans-serif" font-size="13" font-weight="bold" lengthAdjust="spacing" textLength="7.23" x="675.6543" y="440.6201">8</text><text fill="#000000" font-family="sans-serif" font-size="13" lengthAdjust="spacing" textLength="143.7808" x="686.8843" y="440.6201">Lock Acquired (Success)</text><polygon fill="#181818" points="1501.0317,471.8281,1511.0317,475.8281,1501.0317,479.8281,1505.0317,475.8281" style="stroke:#181818;stroke-width:1.0;"/><line style="stroke:#181818;stroke-width:1.0;" x1="658.6543" x2="1507.0317" y1="475.8281" y2="475.8281"/><text fill="#000000" font-family="sans-serif" font-size="13" font-weight="bold" lengthAdjust="spacing" textLength="7.23" x="665.6543" y="470.9717">9</text><text fill="#000000" font-family="sans-serif" font-size="13" lengthAdjust="spacing" textLength="405.0249" x="676.8843" y="470.9717">DispatchOffer(driver_101, ride_id, payout=$14.80, eta=3m, timer=15s)</text><polygon fill="#181818" points="1919.0508,502.1797,1929.0508,506.1797,1919.0508,510.1797,1923.0508,506.1797" style="stroke:#181818;stroke-width:1.0;"/><line style="stroke:#181818;stroke-width:1.0;" x1="1513.0317" x2="1925.0508" y1="506.1797" y2="506.1797"/><text fill="#000000" font-family="sans-serif" font-size="13" font-weight="bold" lengthAdjust="spacing" textLength="14.46" x="1520.0317" y="501.3232">10</text><text fill="#000000" font-family="sans-serif" font-size="13" lengthAdjust="spacing" textLength="375.5591" x="1538.4917" y="501.3232">Push/WebSocket Notification ("New Ride Offer: 15s Countdown")</text><rect fill="#EEEEEE" height="3" style="stroke:#EEEEEE;stroke-width:1.0;" width="2282.5391" x="0" y="535.3555"/><line style="stroke:#000000;stroke-width:1.0;" x1="0" x2="2282.5391" y1="535.3555" y2="535.3555"/><line style="stroke:#000000;stroke-width:1.0;" x1="0" x2="2282.5391" y1="538.3555" y2="538.3555"/><rect fill="#EEEEEE" height="24.3516" style="stroke:#000000;stroke-width:2.0;" width="203.2617" x="1039.6387" y="524.1797"/><text fill="#000000" font-family="sans-serif" font-size="13" font-weight="bold" lengthAdjust="spacing" textLength="185.6499" x="1045.6387" y="541.6748">Step 3: Driver Response Loop</text><path d="M10,565.5313 L70.1709,565.5313 L70.1709,573.8828 L60.1709,583.8828 L10,583.8828 L10,565.5313 " fill="#EEEEEE" style="stroke:#000000;stroke-width:1.5;"/><rect fill="none" height="363.7031" style="stroke:#000000;stroke-width:1.5;" width="2262.5391" x="10" y="565.5313"/><text fill="#000000" font-family="sans-serif" font-size="13" font-weight="bold" lengthAdjust="spacing" textLength="15.1709" x="25" y="580.0264">alt</text><text fill="#000000" font-family="sans-serif" font-size="11" font-weight="bold" lengthAdjust="spacing" textLength="182.7783" x="85.1709" y="578.9502">[Driver Accepts within 15 seconds]</text><polygon fill="#181818" points="669.6543,602.2344,659.6543,606.2344,669.6543,610.2344,665.6543,606.2344" style="stroke:#181818;stroke-width:1.0;"/><line style="stroke:#181818;stroke-width:1.0;" x1="663.6543" x2="1930.0508" y1="606.2344" y2="606.2344"/><text fill="#000000" font-family="sans-serif" font-size="13" font-weight="bold" lengthAdjust="spacing" textLength="14.46" x="675.6543" y="601.3779">11</text><text fill="#000000" font-family="sans-serif" font-size="13" lengthAdjust="spacing" textLength="324.2954" x="694.1143" y="601.3779">POST /api/v1/driver/offers/accept {ride_id: "ride_77218"}</text><polygon fill="#181818" points="2068.8916,632.5859,2078.8916,636.5859,2068.8916,640.5859,2072.8916,636.5859" style="stroke:#181818;stroke-width:1.0;"/><line style="stroke:#181818;stroke-width:1.0;" x1="658.6543" x2="2074.8916" y1="636.5859" y2="636.5859"/><text fill="#000000" font-family="sans-serif" font-size="13" font-weight="bold" lengthAdjust="spacing" textLength="14.46" x="665.6543" y="631.7295">12</text><text fill="#000000" font-family="sans-serif" font-size="13" lengthAdjust="spacing" textLength="515.9692" x="684.1143" y="631.7295">UPDATE rides SET driver_id='driver_101', status='ALLOCATED' WHERE id='ride_77218'</text><polygon fill="#181818" points="1005.2402,662.9375,1015.2402,666.9375,1005.2402,670.9375,1009.2402,666.9375" style="stroke:#181818;stroke-width:1.0;"/><line style="stroke:#181818;stroke-width:1.0;" x1="658.6543" x2="1011.2402" y1="666.9375" y2="666.9375"/><text fill="#000000" font-family="sans-serif" font-size="13" font-weight="bold" lengthAdjust="spacing" textLength="14.46" x="665.6543" y="662.0811">13</text><text fill="#000000" font-family="sans-serif" font-size="13" lengthAdjust="spacing" textLength="264.2593" x="684.1143" y="662.0811">SET driver:101:status "EN_ROUTE_PICKUP"</text><polygon fill="#181818" points="131.2583,693.2891,121.2583,697.2891,131.2583,701.2891,127.2583,697.2891" style="stroke:#181818;stroke-width:1.0;"/><line style="stroke:#181818;stroke-width:1.0;" x1="125.2583" x2="657.6543" y1="697.2891" y2="697.2891"/><text fill="#000000" font-family="sans-serif" font-size="13" font-weight="bold" lengthAdjust="spacing" textLength="14.46" x="137.2583" y="692.4326">14</text><text fill="#000000" font-family="sans-serif" font-size="13" lengthAdjust="spacing" textLength="315.5864" x="155.7183" y="692.4326">Publish("ORDER_ALLOCATED", {ride_id, driver_101})</text><polygon fill="#181818" points="1919.0508,723.6406,1929.0508,727.6406,1919.0508,731.6406,1923.0508,727.6406" style="stroke:#181818;stroke-width:1.0;"/><line style="stroke:#181818;stroke-width:1.0;stroke-dasharray:2.0,2.0;" x1="658.6543" x2="1925.0508" y1="727.6406" y2="727.6406"/><text fill="#000000" font-family="sans-serif" font-size="13" font-weight="bold" lengthAdjust="spacing" textLength="14.46" x="665.6543" y="722.7842">15</text><text fill="#000000" font-family="sans-serif" font-size="13" lengthAdjust="spacing" textLength="216.7788" x="684.1143" y="722.7842">200 OK (Initiate Navigation to Pickup)</text><polygon fill="#181818" points="2199.6738,753.9922,2209.6738,757.9922,2199.6738,761.9922,2203.6738,757.9922" style="stroke:#181818;stroke-width:1.0;"/><line style="stroke:#181818;stroke-width:1.0;" x1="658.6543" x2="2205.6738" y1="757.9922" y2="757.9922"/><text fill="#000000" font-family="sans-serif" font-size="13" font-weight="bold" lengthAdjust="spacing" textLength="14.46" x="665.6543" y="753.1357">16</text><text fill="#000000" font-family="sans-serif" font-size="13" lengthAdjust="spacing" textLength="485.3672" x="684.1143" y="753.1357">WebSocket Event ("DRIVER_ASSIGNED", {driver_name, vehicle, eta: 3m, live_loc})</text><line style="stroke:#000000;stroke-width:1.0;stroke-dasharray:2.0,2.0;" x1="10" x2="2272.5391" y1="766.9922" y2="766.9922"/><text fill="#000000" font-family="sans-serif" font-size="11" font-weight="bold" lengthAdjust="spacing" textLength="198.0913" x="15" y="778.4111">[Driver Rejects OR 15s Timer Expires]</text><line style="stroke:#181818;stroke-width:2.0;" x1="665.6543" x2="675.6543" y1="799.1797" y2="809.1797"/><line style="stroke:#181818;stroke-width:2.0;" x1="665.6543" x2="675.6543" y1="809.1797" y2="799.1797"/><line style="stroke:#181818;stroke-width:1.0;stroke-dasharray:2.0,2.0;" x1="670.6543" x2="1930.0508" y1="804.1797" y2="804.1797"/><text fill="#000000" font-family="sans-serif" font-size="13" font-weight="bold" lengthAdjust="spacing" textLength="14.46" x="675.6543" y="799.3232">17</text><text fill="#000000" font-family="sans-serif" font-size="13" lengthAdjust="spacing" textLength="182.0381" x="694.1143" y="799.3232">POST /reject OR Timer Expired</text><polygon fill="#181818" points="1005.2402,830.5313,1015.2402,834.5313,1005.2402,838.5313,1009.2402,834.5313" style="stroke:#181818;stroke-width:1.0;"/><line style="stroke:#181818;stroke-width:1.0;" x1="658.6543" x2="1011.2402" y1="834.5313" y2="834.5313"/><text fill="#000000" font-family="sans-serif" font-size="13" font-weight="bold" lengthAdjust="spacing" textLength="14.46" x="665.6543" y="829.6748">18</text><text fill="#000000" font-family="sans-serif" font-size="13" lengthAdjust="spacing" textLength="113.439" x="684.1143" y="829.6748">DEL lock:driver:101</text><line style="stroke:#181818;stroke-width:1.0;" x1="658.6543" x2="700.6543" y1="864.8828" y2="864.8828"/><line style="stroke:#181818;stroke-width:1.0;" x1="700.6543" x2="700.6543" y1="864.8828" y2="877.8828"/><line style="stroke:#181818;stroke-width:1.0;" x1="659.6543" x2="700.6543" y1="877.8828" y2="877.8828"/><polygon fill="#181818" points="669.6543,873.8828,659.6543,877.8828,669.6543,881.8828,665.6543,877.8828" style="stroke:#181818;stroke-width:1.0;"/><text fill="#000000" font-family="sans-serif" font-size="13" font-weight="bold" lengthAdjust="spacing" textLength="14.46" x="665.6543" y="860.0264">19</text><text fill="#000000" font-family="sans-serif" font-size="13" lengthAdjust="spacing" textLength="220.4097" x="684.1143" y="860.0264">Penalize driver_101 acceptance score</text><line style="stroke:#181818;stroke-width:1.0;" x1="658.6543" x2="700.6543" y1="908.2344" y2="908.2344"/><line style="stroke:#181818;stroke-width:1.0;" x1="700.6543" x2="700.6543" y1="908.2344" y2="921.2344"/><line style="stroke:#181818;stroke-width:1.0;" x1="659.6543" x2="700.6543" y1="921.2344" y2="921.2344"/><polygon fill="#181818" points="669.6543,917.2344,659.6543,921.2344,669.6543,925.2344,665.6543,921.2344" style="stroke:#181818;stroke-width:1.0;"/><text fill="#000000" font-family="sans-serif" font-size="13" font-weight="bold" lengthAdjust="spacing" textLength="14.46" x="665.6543" y="903.3779">20</text><text fill="#000000" font-family="sans-serif" font-size="13" lengthAdjust="spacing" textLength="309.2769" x="684.1143" y="903.3779">Pick next candidate (driver_204) and re-dispatch offer</text><!--SRC=[XLLjR-964FxkNp6ogiQaIS0arr1BhWJ1QgFamB6XTr9ReSLUO1kpzddNlFHq_xspQx1DGbk-OC_EFlFCp3DZKiYK5-ivpGtnodX6ShA6GRhpIHmplWIxqx3x99SiOXdXid5kV2beGS5y8ejN0bQQnpI_ITY2HlieeJTqGxaKBHE80ErYP3KCc1-9Z5OAoUDBngbsqxRotOY997CY43-WCHCGPaGoai03YLQbjxQVWZwd4Ngb74AQRrXK-g4nt4IdZa5Qo3euMECm-5XIFPoSkezIoHRi3BO-KEWaacaEvWFXCKFg58Ovsz0S-bcc7SlNHbP-AkGof-7BCpoaEVeFIh_14SedGb2-R60432ji6AuBeQGPs0uyuhcGy3qquZ8HfHXg3wvhbAsv_hbPMGVZSL6igMMEWw4Np0BlPUg54szeNa6E8MOiTatzS7_VjNjepLZqMcIprQrhzdhsmexlUhs5_fajem6j8kckEF1IA0faGrX2vWc5MESlW75u3R2-LeM9GKdC2k7QDpVTbb5s-_ejvu3A8kS2VY-1PdR7lZg0phgTk-hvjlFJdyOxJcLF7HWekogH93oYAaBETc0D3-JGrTUqaCP18E-8D0Wuu4twSBjk4Ybj7zPDGgNjVlsUs6cAXB_2aSfy3rF94YRt44QeZp-ufV_1XQrzgV1-W6ttiXz5DDF91AhvQBkzn2TatZ9uYfQSBLVIGSqcD98qXe7IInd4WJgLMbLTHmtCaGXA2wkLwR9Ds1e1nei5cb5Rv_iUUXD8yBvJOZk83KqnmUWpU9_1_l7V6gs3zwCl1SincXKMcA4GhNUbEqwUKn7KpAocFWvgHW6JFVRJ_Sw-k-brhe1AuggsISmeT-qF27-4Kz37ylY5MBK_qNc8bAY4aoLWcIEwrHDPLiG1XC79AhYCqot7kQWgUkiSYnbGaU7iKKmopLGDIIAhHQ4xAM3B9Av5H0D1evJ7mW3y7PpU5iiVXnDeauorDtQxpBoTAZgYJJGUV3tKm3dfmZSD-gQYmu43Kt_OdtYwS4Btyb1EN0aNTMKlhW0dIEBCNlIVdySFU6Lu0Pz-zG8Fb6STwU9Se8PKQfKu9IAOtcWMZASJR-O_FZnDVVCSWjvhga7pX8dLSP5LN71bVQrwNzF-rdgFrMXtjzE1yHDOZvpXbmPdPqGsR5csMwRLPZYNa5hC3jHIyTIt3pKo31v_KyJ2yF6NKSdhG8UJDRs23Lqn_5PgHJfwaoHuEiC1Gguq4RHMpbyulmB6WTQP6iKSl5s6Gt8gaElTEONa-hgwtRmP_qTpXjxpspa-vtqQYtAIiBzfe-H0gWK5Gksl_mV1CWEdEmbHzKspwltQ0hH2Jg_ZurhIUZSeZur_0000]--></g></svg>