<svg xmlns="http://www.w3.org/2000/svg" xmlns:xlink="http://www.w3.org/1999/xlink" contentStyleType="text/css" height="969px" preserveAspectRatio="none" style="width:2209px;height:969px;background:#FFFFFF;" version="1.1" viewBox="0 0 2209 969" width="2209px" zoomAndPan="magnify"><defs/><g><line style="stroke:#181818;stroke-width:0.5;stroke-dasharray:5.0,5.0;" x1="55" x2="55" y1="82.6094" y2="887.3984"/><line style="stroke:#181818;stroke-width:0.5;stroke-dasharray:5.0,5.0;" x1="403.8447" x2="403.8447" y1="82.6094" y2="887.3984"/><line style="stroke:#181818;stroke-width:0.5;stroke-dasharray:5.0,5.0;" x1="779.1104" x2="779.1104" y1="82.6094" y2="887.3984"/><line style="stroke:#181818;stroke-width:0.5;stroke-dasharray:5.0,5.0;" x1="933.4688" x2="933.4688" y1="82.6094" y2="887.3984"/><line style="stroke:#181818;stroke-width:0.5;stroke-dasharray:5.0,5.0;" x1="1198.5439" x2="1198.5439" y1="82.6094" y2="887.3984"/><line style="stroke:#181818;stroke-width:0.5;stroke-dasharray:5.0,5.0;" x1="1512.7349" x2="1512.7349" y1="82.6094" y2="887.3984"/><line style="stroke:#181818;stroke-width:0.5;stroke-dasharray:5.0,5.0;" x1="1809.0869" x2="1809.0869" y1="82.6094" y2="887.3984"/><line style="stroke:#181818;stroke-width:0.5;stroke-dasharray:5.0,5.0;" x1="1970.252" x2="1970.252" y1="82.6094" y2="887.3984"/><line style="stroke:#181818;stroke-width:0.5;stroke-dasharray:5.0,5.0;" x1="2124.0859" x2="2124.0859" y1="82.6094" y2="887.3984"/><text fill="#000000" font-family="sans-serif" font-size="14" lengthAdjust="spacing" textLength="95.7305" x="5" y="79.5332">Passenger App</text><ellipse cx="55.8652" cy="13.5" fill="#E2E2F0" rx="8" ry="8" style="stroke:#181818;stroke-width:0.5;"/><path d="M55.8652,21.5 L55.8652,48.5 M42.8652,29.5 L68.8652,29.5 M55.8652,48.5 L42.8652,63.5 M55.8652,48.5 L68.8652,63.5 " fill="none" style="stroke:#181818;stroke-width:0.5;"/><text fill="#000000" font-family="sans-serif" font-size="14" lengthAdjust="spacing" textLength="95.7305" x="5" y="900.9316">Passenger App</text><ellipse cx="55.8652" cy="912.5078" fill="#E2E2F0" rx="8" ry="8" style="stroke:#181818;stroke-width:0.5;"/><path d="M55.8652,920.5078 L55.8652,947.5078 M42.8652,928.5078 L68.8652,928.5078 M55.8652,947.5078 L42.8652,962.5078 M55.8652,947.5078 L68.8652,962.5078 " fill="none" style="stroke:#181818;stroke-width:0.5;"/><rect fill="#E2E2F0" height="31.6094" rx="2.5" ry="2.5" style="stroke:#181818;stroke-width:0.5;" width="147.8271" x="330.8447" y="50"/><text fill="#000000" font-family="sans-serif" font-size="14" lengthAdjust="spacing" textLength="133.8271" x="337.8447" y="71.5332">API Gateway (Envoy)</text><rect fill="#E2E2F0" height="31.6094" rx="2.5" ry="2.5" style="stroke:#181818;stroke-width:0.5;" width="147.8271" x="330.8447" y="886.3984"/><text fill="#000000" font-family="sans-serif" font-size="14" lengthAdjust="spacing" textLength="133.8271" x="337.8447" y="907.9316">API Gateway (Envoy)</text><rect fill="#E2E2F0" height="31.6094" rx="2.5" ry="2.5" style="stroke:#181818;stroke-width:0.5;" width="100.3584" x="729.1104" y="50"/><text fill="#000000" font-family="sans-serif" font-size="14" lengthAdjust="spacing" textLength="86.3584" x="736.1104" y="71.5332">Order Service</text><rect fill="#E2E2F0" height="31.6094" rx="2.5" ry="2.5" style="stroke:#181818;stroke-width:0.5;" width="100.3584" x="729.1104" y="886.3984"/><text fill="#000000" font-family="sans-serif" font-size="14" lengthAdjust="spacing" textLength="86.3584" x="736.1104" y="907.9316">Order Service</text><rect fill="#E2E2F0" height="31.6094" rx="2.5" ry="2.5" style="stroke:#181818;stroke-width:0.5;" width="148.6406" x="859.4688" y="50"/><text fill="#000000" font-family="sans-serif" font-size="14" lengthAdjust="spacing" textLength="134.6406" x="866.4688" y="71.5332">Routing / Map Engine</text><rect fill="#E2E2F0" height="31.6094" rx="2.5" ry="2.5" style="stroke:#181818;stroke-width:0.5;" width="148.6406" x="859.4688" y="886.3984"/><text fill="#000000" font-family="sans-serif" font-size="14" lengthAdjust="spacing" textLength="134.6406" x="866.4688" y="907.9316">Routing / Map Engine</text><rect fill="#E2E2F0" height="31.6094" rx="2.5" ry="2.5" style="stroke:#181818;stroke-width:0.5;" width="161.8408" x="1118.5439" y="50"/><text fill="#000000" font-family="sans-serif" font-size="14" lengthAdjust="spacing" textLength="147.8408" x="1125.5439" y="71.5332">Pricing &amp; Surge Service</text><rect fill="#E2E2F0" height="31.6094" rx="2.5" ry="2.5" style="stroke:#181818;stroke-width:0.5;" width="161.8408" x="1118.5439" y="886.3984"/><text fill="#000000" font-family="sans-serif" font-size="14" lengthAdjust="spacing" textLength="147.8408" x="1125.5439" y="907.9316">Pricing &amp; Surge Service</text><rect fill="#E2E2F0" height="31.6094" rx="2.5" ry="2.5" style="stroke:#181818;stroke-width:0.5;" width="101.9238" x="1462.7349" y="50"/><text fill="#000000" font-family="sans-serif" font-size="14" lengthAdjust="spacing" textLength="87.9238" x="1469.7349" y="71.5332">Billing Service</text><rect fill="#E2E2F0" height="31.6094" rx="2.5" ry="2.5" style="stroke:#181818;stroke-width:0.5;" width="101.9238" x="1462.7349" y="886.3984"/><text fill="#000000" font-family="sans-serif" font-size="14" lengthAdjust="spacing" textLength="87.9238" x="1469.7349" y="907.9316">Billing Service</text><rect fill="#E2E2F0" height="31.6094" rx="2.5" ry="2.5" style="stroke:#181818;stroke-width:0.5;" width="143.165" x="1738.0869" y="50"/><text fill="#000000" font-family="sans-serif" font-size="14" lengthAdjust="spacing" textLength="129.165" x="1745.0869" y="71.5332">PSP (Stripe / Adyen)</text><rect fill="#E2E2F0" height="31.6094" rx="2.5" ry="2.5" style="stroke:#181818;stroke-width:0.5;" width="143.165" x="1738.0869" y="886.3984"/><text fill="#000000" font-family="sans-serif" font-size="14" lengthAdjust="spacing" textLength="129.165" x="1745.0869" y="907.9316">PSP (Stripe / Adyen)</text><text fill="#000000" font-family="sans-serif" font-size="14" lengthAdjust="spacing" textLength="133.834" x="1901.252" y="79.5332">PostgreSQL Core DB</text><path d="M1953.1689,29 C1953.1689,19 1971.1689,19 1971.1689,19 C1971.1689,19 1989.1689,19 1989.1689,29 L1989.1689,55 C1989.1689,65 1971.1689,65 1971.1689,65 C1971.1689,65 1953.1689,65 1953.1689,55 L1953.1689,29 " fill="#E2E2F0" style="stroke:#181818;stroke-width:1.5;"/><path d="M1953.1689,29 C1953.1689,39 1971.1689,39 1971.1689,39 C1971.1689,39 1989.1689,39 1989.1689,29 " fill="none" style="stroke:#181818;stroke-width:1.5;"/><text fill="#000000" font-family="sans-serif" font-size="14" lengthAdjust="spacing" textLength="133.834" x="1901.252" y="900.9316">PostgreSQL Core DB</text><path d="M1953.1689,914.0078 C1953.1689,904.0078 1971.1689,904.0078 1971.1689,904.0078 C1971.1689,904.0078 1989.1689,904.0078 1989.1689,914.0078 L1989.1689,940.0078 C1989.1689,950.0078 1971.1689,950.0078 1971.1689,950.0078 C1971.1689,950.0078 1953.1689,950.0078 1953.1689,940.0078 L1953.1689,914.0078 " fill="#E2E2F0" style="stroke:#181818;stroke-width:1.5;"/><path d="M1953.1689,914.0078 C1953.1689,924.0078 1971.1689,924.0078 1971.1689,924.0078 C1971.1689,924.0078 1989.1689,924.0078 1989.1689,914.0078 " fill="none" style="stroke:#181818;stroke-width:1.5;"/><path d="M2056.0859,55 L2192.9199,55 C2197.9199,55 2197.9199,68.8047 2197.9199,68.8047 C2197.9199,68.8047 2197.9199,82.6094 2192.9199,82.6094 L2056.0859,82.6094 C2051.0859,82.6094 2051.0859,68.8047 2051.0859,68.8047 C2051.0859,68.8047 2051.0859,55 2056.0859,55 " fill="#E2E2F0" style="stroke:#181818;stroke-width:0.5;"/><path d="M2192.9199,55 C2187.9199,55 2187.9199,68.8047 2187.9199,68.8047 C2187.9199,82.6094 2192.9199,82.6094 2192.9199,82.6094 " fill="none" style="stroke:#181818;stroke-width:0.5;"/><text fill="#000000" font-family="sans-serif" font-size="14" lengthAdjust="spacing" textLength="126.834" x="2056.0859" y="74.5332">Kafka (order.events)</text><path d="M2056.0859,886.3984 L2192.9199,886.3984 C2197.9199,886.3984 2197.9199,900.2031 2197.9199,900.2031 C2197.9199,900.2031 2197.9199,914.0078 2192.9199,914.0078 L2056.0859,914.0078 C2051.0859,914.0078 2051.0859,900.2031 2051.0859,900.2031 C2051.0859,900.2031 2051.0859,886.3984 2056.0859,886.3984 " fill="#E2E2F0" style="stroke:#181818;stroke-width:0.5;"/><path d="M2192.9199,886.3984 C2187.9199,886.3984 2187.9199,900.2031 2187.9199,900.2031 C2187.9199,914.0078 2192.9199,914.0078 2192.9199,914.0078 " fill="none" style="stroke:#181818;stroke-width:0.5;"/><text fill="#000000" font-family="sans-serif" font-size="14" lengthAdjust="spacing" textLength="126.834" x="2056.0859" y="905.9316">Kafka (order.events)</text><rect fill="#EEEEEE" height="3" style="stroke:#EEEEEE;stroke-width:1.0;" width="2202.9199" x="0" y="113.7852"/><line style="stroke:#000000;stroke-width:1.0;" x1="0" x2="2202.9199" y1="113.7852" y2="113.7852"/><line style="stroke:#000000;stroke-width:1.0;" x1="0" x2="2202.9199" y1="116.7852" y2="116.7852"/><rect fill="#EEEEEE" height="24.3516" style="stroke:#000000;stroke-width:2.0;" width="262.5107" x="970.2046" y="102.6094"/><text fill="#000000" font-family="sans-serif" font-size="13" font-weight="bold" lengthAdjust="spacing" textLength="244.8989" x="976.2046" y="120.1045">Step 1: Request Route &amp; Price Estimate</text><polygon fill="#181818" points="392.7583,171.6641,402.7583,175.6641,392.7583,179.6641,396.7583,175.6641" style="stroke:#181818;stroke-width:1.0;"/><line style="stroke:#181818;stroke-width:1.0;" x1="55.8652" x2="398.7583" y1="175.6641" y2="175.6641"/><text fill="#000000" font-family="sans-serif" font-size="13" font-weight="bold" lengthAdjust="spacing" textLength="7.23" x="62.8652" y="162.6318">1</text><text fill="#000000" font-family="sans-serif" font-size="13" lengthAdjust="spacing" textLength="161.8398" x="74.0952" y="154.4561">POST /api/v1/rides/estimate</text><text fill="#000000" font-family="sans-serif" font-size="13" lengthAdjust="spacing" textLength="231.2515" x="74.0952" y="170.8076">{pickup_lat/lon, dest_lat/lon, tariff_class}</text><polygon fill="#181818" points="1187.4644,202.0156,1197.4644,206.0156,1187.4644,210.0156,1191.4644,206.0156" style="stroke:#181818;stroke-width:1.0;"/><line style="stroke:#181818;stroke-width:1.0;" x1="404.7583" x2="1193.4644" y1="206.0156" y2="206.0156"/><text fill="#000000" font-family="sans-serif" font-size="13" font-weight="bold" lengthAdjust="spacing" textLength="7.23" x="411.7583" y="201.1592">2</text><text fill="#000000" font-family="sans-serif" font-size="13" lengthAdjust="spacing" textLength="171.2598" x="422.9883" y="201.1592">Request Route &amp; Price Quote</text><polygon fill="#181818" points="944.7891,232.3672,934.7891,236.3672,944.7891,240.3672,940.7891,236.3672" style="stroke:#181818;stroke-width:1.0;"/><line style="stroke:#181818;stroke-width:1.0;" x1="938.7891" x2="1198.4644" y1="236.3672" y2="236.3672"/><text fill="#000000" font-family="sans-serif" font-size="13" font-weight="bold" lengthAdjust="spacing" textLength="7.23" x="950.7891" y="231.5107">3</text><text fill="#000000" font-family="sans-serif" font-size="13" lengthAdjust="spacing" textLength="230.4453" x="962.019" y="231.5107">Get Distance &amp; Duration Matrix (OSRM)</text><polygon fill="#181818" points="1187.4644,262.7188,1197.4644,266.7188,1187.4644,270.7188,1191.4644,266.7188" style="stroke:#181818;stroke-width:1.0;"/><line style="stroke:#181818;stroke-width:1.0;stroke-dasharray:2.0,2.0;" x1="933.7891" x2="1193.4644" y1="266.7188" y2="266.7188"/><text fill="#000000" font-family="sans-serif" font-size="13" font-weight="bold" lengthAdjust="spacing" textLength="7.23" x="940.7891" y="261.8623">4</text><text fill="#000000" font-family="sans-serif" font-size="13" lengthAdjust="spacing" textLength="199.418" x="952.019" y="261.8623">Distance: 8.4 km, Duration: 18 min</text><line style="stroke:#181818;stroke-width:1.0;" x1="1199.4644" x2="1241.4644" y1="297.0703" y2="297.0703"/><line style="stroke:#181818;stroke-width:1.0;" x1="1241.4644" x2="1241.4644" y1="297.0703" y2="310.0703"/><line style="stroke:#181818;stroke-width:1.0;" x1="1200.4644" x2="1241.4644" y1="310.0703" y2="310.0703"/><polygon fill="#181818" points="1210.4644,306.0703,1200.4644,310.0703,1210.4644,314.0703,1206.4644,310.0703" style="stroke:#181818;stroke-width:1.0;"/><text fill="#000000" font-family="sans-serif" font-size="13" font-weight="bold" lengthAdjust="spacing" textLength="7.23" x="1206.4644" y="292.2139">5</text><text fill="#000000" font-family="sans-serif" font-size="13" lengthAdjust="spacing" textLength="257.2261" x="1217.6943" y="292.2139">Lookup H3 Res 7 Cell Surge Multiplier (1.4x)</text><line style="stroke:#181818;stroke-width:1.0;" x1="1199.4644" x2="1241.4644" y1="340.4219" y2="340.4219"/><line style="stroke:#181818;stroke-width:1.0;" x1="1241.4644" x2="1241.4644" y1="340.4219" y2="353.4219"/><line style="stroke:#181818;stroke-width:1.0;" x1="1200.4644" x2="1241.4644" y1="353.4219" y2="353.4219"/><polygon fill="#181818" points="1210.4644,349.4219,1200.4644,353.4219,1210.4644,357.4219,1206.4644,353.4219" style="stroke:#181818;stroke-width:1.0;"/><text fill="#000000" font-family="sans-serif" font-size="13" font-weight="bold" lengthAdjust="spacing" textLength="7.23" x="1206.4644" y="335.5654">6</text><text fill="#000000" font-family="sans-serif" font-size="13" lengthAdjust="spacing" textLength="289.0024" x="1217.6943" y="335.5654">Calculate Base + (km * rate) + (min * rate) * Surge</text><polygon fill="#181818" points="415.7583,379.7734,405.7583,383.7734,415.7583,387.7734,411.7583,383.7734" style="stroke:#181818;stroke-width:1.0;"/><line style="stroke:#181818;stroke-width:1.0;stroke-dasharray:2.0,2.0;" x1="409.7583" x2="1198.4644" y1="383.7734" y2="383.7734"/><text fill="#000000" font-family="sans-serif" font-size="13" font-weight="bold" lengthAdjust="spacing" textLength="7.23" x="421.7583" y="378.917">7</text><text fill="#000000" font-family="sans-serif" font-size="13" lengthAdjust="spacing" textLength="309.8735" x="432.9883" y="378.917">Price: $18.50, Token: "quote_tok_991823", TTL: 120s</text><polygon fill="#181818" points="66.8652,410.125,56.8652,414.125,66.8652,418.125,62.8652,414.125" style="stroke:#181818;stroke-width:1.0;"/><line style="stroke:#181818;stroke-width:1.0;stroke-dasharray:2.0,2.0;" x1="60.8652" x2="403.7583" y1="414.125" y2="414.125"/><text fill="#000000" font-family="sans-serif" font-size="13" font-weight="bold" lengthAdjust="spacing" textLength="7.23" x="72.8652" y="409.2686">8</text><text fill="#000000" font-family="sans-serif" font-size="13" lengthAdjust="spacing" textLength="244.9561" x="84.0952" y="409.2686">Return Estimate ($18.50) &amp; Route Polyline</text><rect fill="#EEEEEE" height="3" style="stroke:#EEEEEE;stroke-width:1.0;" width="2202.9199" x="0" y="443.3008"/><line style="stroke:#000000;stroke-width:1.0;" x1="0" x2="2202.9199" y1="443.3008" y2="443.3008"/><line style="stroke:#000000;stroke-width:1.0;" x1="0" x2="2202.9199" y1="446.3008" y2="446.3008"/><rect fill="#EEEEEE" height="24.3516" style="stroke:#000000;stroke-width:2.0;" width="311.5781" x="945.6709" y="432.125"/><text fill="#000000" font-family="sans-serif" font-size="13" font-weight="bold" lengthAdjust="spacing" textLength="293.9663" x="951.6709" y="449.6201">Step 2: Confirm Booking &amp; Place Pre-Auth Hold</text><polygon fill="#181818" points="392.7583,501.1797,402.7583,505.1797,392.7583,509.1797,396.7583,505.1797" style="stroke:#181818;stroke-width:1.0;"/><line style="stroke:#181818;stroke-width:1.0;" x1="55.8652" x2="398.7583" y1="505.1797" y2="505.1797"/><text fill="#000000" font-family="sans-serif" font-size="13" font-weight="bold" lengthAdjust="spacing" textLength="7.23" x="62.8652" y="492.1475">9</text><text fill="#000000" font-family="sans-serif" font-size="13" lengthAdjust="spacing" textLength="148.8398" x="74.0952" y="483.9717">POST /api/v1/rides/create</text><text fill="#000000" font-family="sans-serif" font-size="13" lengthAdjust="spacing" textLength="313.6631" x="74.0952" y="500.3232">{quote_token, payment_method_id, idempotency_key}</text><polygon fill="#181818" points="767.2896,531.5313,777.2896,535.5313,767.2896,539.5313,771.2896,535.5313" style="stroke:#181818;stroke-width:1.0;"/><line style="stroke:#181818;stroke-width:1.0;" x1="404.7583" x2="773.2896" y1="535.5313" y2="535.5313"/><text fill="#000000" font-family="sans-serif" font-size="13" font-weight="bold" lengthAdjust="spacing" textLength="14.46" x="411.7583" y="530.6748">10</text><text fill="#000000" font-family="sans-serif" font-size="13" lengthAdjust="spacing" textLength="188.5889" x="430.2183" y="530.6748">CreateRide(CreateRideRequest)</text><polygon fill="#181818" points="1187.4644,561.8828,1197.4644,565.8828,1187.4644,569.8828,1191.4644,565.8828" style="stroke:#181818;stroke-width:1.0;"/><line style="stroke:#181818;stroke-width:1.0;" x1="779.2896" x2="1193.4644" y1="565.8828" y2="565.8828"/><text fill="#000000" font-family="sans-serif" font-size="13" font-weight="bold" lengthAdjust="spacing" textLength="14.46" x="786.2896" y="561.0264">11</text><text fill="#000000" font-family="sans-serif" font-size="13" lengthAdjust="spacing" textLength="177.7598" x="804.7495" y="561.0264">Validate Quote Token &amp; Expiry</text><polygon fill="#181818" points="790.2896,592.2344,780.2896,596.2344,790.2896,600.2344,786.2896,596.2344" style="stroke:#181818;stroke-width:1.0;"/><line style="stroke:#181818;stroke-width:1.0;stroke-dasharray:2.0,2.0;" x1="784.2896" x2="1198.4644" y1="596.2344" y2="596.2344"/><text fill="#000000" font-family="sans-serif" font-size="13" font-weight="bold" lengthAdjust="spacing" textLength="14.46" x="796.2896" y="591.3779">12</text><text fill="#000000" font-family="sans-serif" font-size="13" lengthAdjust="spacing" textLength="172.707" x="814.7495" y="591.3779">Token Valid (Amount: $18.50)</text><polygon fill="#181818" points="1501.6968,622.5859,1511.6968,626.5859,1501.6968,630.5859,1505.6968,626.5859" style="stroke:#181818;stroke-width:1.0;"/><line style="stroke:#181818;stroke-width:1.0;" x1="779.2896" x2="1507.6968" y1="626.5859" y2="626.5859"/><text fill="#000000" font-family="sans-serif" font-size="13" font-weight="bold" lengthAdjust="spacing" textLength="14.46" x="786.2896" y="621.7295">13</text><text fill="#000000" font-family="sans-serif" font-size="13" lengthAdjust="spacing" textLength="285.8223" x="804.7495" y="621.7295">PreAuthorizeHold(userId, $18.50 * 1.15 = $21.28)</text><polygon fill="#181818" points="1797.6694,652.9375,1807.6694,656.9375,1797.6694,660.9375,1801.6694,656.9375" style="stroke:#181818;stroke-width:1.0;"/><line style="stroke:#181818;stroke-width:1.0;" x1="1513.6968" x2="1803.6694" y1="656.9375" y2="656.9375"/><text fill="#000000" font-family="sans-serif" font-size="13" font-weight="bold" lengthAdjust="spacing" textLength="14.46" x="1520.6968" y="652.0811">14</text><text fill="#000000" font-family="sans-serif" font-size="13" lengthAdjust="spacing" textLength="161.1543" x="1539.1567" y="652.0811">Auth Hold Request ($21.28)</text><polygon fill="#181818" points="1524.6968,683.2891,1514.6968,687.2891,1524.6968,691.2891,1520.6968,687.2891" style="stroke:#181818;stroke-width:1.0;"/><line style="stroke:#181818;stroke-width:1.0;stroke-dasharray:2.0,2.0;" x1="1518.6968" x2="1808.6694" y1="687.2891" y2="687.2891"/><text fill="#000000" font-family="sans-serif" font-size="13" font-weight="bold" lengthAdjust="spacing" textLength="14.46" x="1530.6968" y="682.4326">15</text><text fill="#000000" font-family="sans-serif" font-size="13" lengthAdjust="spacing" textLength="253.5127" x="1549.1567" y="682.4326">Auth Succeeded (psp_hold_id: "ch_3N198")</text><polygon fill="#181818" points="790.2896,713.6406,780.2896,717.6406,790.2896,721.6406,786.2896,717.6406" style="stroke:#181818;stroke-width:1.0;"/><line style="stroke:#181818;stroke-width:1.0;stroke-dasharray:2.0,2.0;" x1="784.2896" x2="1512.6968" y1="717.6406" y2="717.6406"/><text fill="#000000" font-family="sans-serif" font-size="13" font-weight="bold" lengthAdjust="spacing" textLength="14.46" x="796.2896" y="712.7842">16</text><text fill="#000000" font-family="sans-serif" font-size="13" lengthAdjust="spacing" textLength="90.3145" x="814.7495" y="712.7842">Hold Confirmed</text><polygon fill="#181818" points="1959.1689,743.9922,1969.1689,747.9922,1959.1689,751.9922,1963.1689,747.9922" style="stroke:#181818;stroke-width:1.0;"/><line style="stroke:#181818;stroke-width:1.0;" x1="779.2896" x2="1965.1689" y1="747.9922" y2="747.9922"/><text fill="#000000" font-family="sans-serif" font-size="13" font-weight="bold" lengthAdjust="spacing" textLength="14.46" x="786.2896" y="743.1357">17</text><text fill="#000000" font-family="sans-serif" font-size="13" lengthAdjust="spacing" textLength="272.5938" x="804.7495" y="743.1357">INSERT INTO rides (status='REQUESTED', ...)</text><polygon fill="#181818" points="790.2896,774.3438,780.2896,778.3438,790.2896,782.3438,786.2896,778.3438" style="stroke:#181818;stroke-width:1.0;"/><line style="stroke:#181818;stroke-width:1.0;stroke-dasharray:2.0,2.0;" x1="784.2896" x2="1970.1689" y1="778.3438" y2="778.3438"/><text fill="#000000" font-family="sans-serif" font-size="13" font-weight="bold" lengthAdjust="spacing" textLength="14.46" x="796.2896" y="773.4873">18</text><text fill="#000000" font-family="sans-serif" font-size="13" lengthAdjust="spacing" textLength="128.1274" x="814.7495" y="773.4873">ride_id = "ride_77218"</text><polygon fill="#181818" points="2112.5029,804.6953,2122.5029,808.6953,2112.5029,812.6953,2116.5029,808.6953" style="stroke:#181818;stroke-width:1.0;"/><line style="stroke:#181818;stroke-width:1.0;" x1="779.2896" x2="2118.5029" y1="808.6953" y2="808.6953"/><text fill="#000000" font-family="sans-serif" font-size="13" font-weight="bold" lengthAdjust="spacing" textLength="14.46" x="786.2896" y="803.8389">19</text><text fill="#000000" font-family="sans-serif" font-size="13" lengthAdjust="spacing" textLength="509.6089" x="804.7495" y="803.8389">Publish(topic: "order.lifecycle.events", key: "ride_77218", type: "ORDER_REQUESTED")</text><polygon fill="#181818" points="415.7583,835.0469,405.7583,839.0469,415.7583,843.0469,411.7583,839.0469" style="stroke:#181818;stroke-width:1.0;"/><line style="stroke:#181818;stroke-width:1.0;stroke-dasharray:2.0,2.0;" x1="409.7583" x2="778.2896" y1="839.0469" y2="839.0469"/><text fill="#000000" font-family="sans-serif" font-size="13" font-weight="bold" lengthAdjust="spacing" textLength="14.46" x="421.7583" y="834.1904">20</text><text fill="#000000" font-family="sans-serif" font-size="13" lengthAdjust="spacing" textLength="332.0713" x="440.2183" y="834.1904">201 Created {ride_id: "ride_77218", status: "MATCHING"}</text><polygon fill="#181818" points="66.8652,865.3984,56.8652,869.3984,66.8652,873.3984,62.8652,869.3984" style="stroke:#181818;stroke-width:1.0;"/><line style="stroke:#181818;stroke-width:1.0;stroke-dasharray:2.0,2.0;" x1="60.8652" x2="403.7583" y1="869.3984" y2="869.3984"/><text fill="#000000" font-family="sans-serif" font-size="13" font-weight="bold" lengthAdjust="spacing" textLength="14.46" x="72.8652" y="864.542">21</text><text fill="#000000" font-family="sans-serif" font-size="13" lengthAdjust="spacing" textLength="273.1333" x="91.3252" y="864.542">201 Created (Transition UI to Searching Radar)</text><!--SRC=[XLHjRzf84FxkNp6ogglf4OX9gn0aJeA02BeaE9XUlvnaRUm1LjYxxdhDnLVrlz-iNm9ELDqdUtUVUNlccM6vbY9Fdb5PsO6Bb2cMm5I-U2oAkDY1Utbsxp6bUSXJ9lJPkyL2BHNO7iio53jKC4bJ6rXclbPwiW5xuYrXmJJ-mmfmvk8eYqu9N7nhurOg8ZS-gYCFiKIKD_unREFMCjScYpuyi1JcOiT51QVZEx2dw9V0lu6Vgnsst9StxoocF8wDnJdItBrtxNlW-5hn52cNILIWg0gZ1ojYcZsp30acCxrJw3_TmwrK2BDf2PfDhUyvvWJuasqF31nfYktX4ONEAZ_bWsMDn-1hJC4TmHh99jDWA42goLI7CCyqJuXW68yjOXyk_Y1kH-2j_0tqMShxHxUlU8HP7slat-97oiD3dWOnq_rOYYxGipwTD5Dykmt2cDhxqrfyCpuRkdwLnbCkDLeDobXK3Hd10ZNCUAQP20rybYkckHJqJkozWBFormyTgqB3HIjKOpQ2OUyp79Bkg_K8t24aNBGYdWplfQJwuEwAiitW6cunZciDFEInvcdCIMsEs_lyqlc5YriMXtbiY9sQJluEpY61Jq3XiMDE5Fpr-AcoE_FKTC5mCu8Fxh3tvR8B6tb0Ijt-RiWAj3m4DpVkS71bqzFcdceQN6ObtsHElJHSwro9Ku-TobE7UApezsHSa63n99G1fIx5bYiprF9GoT-B6P7lARoOv7eFTpAE_byleS9ABQ_f8eaZPKL2AWqIr7iP1Jpg0g6Jb20YB8835eracW6cX4fFQy8vfzzQHntBQe3j1lp5OXwPeajfLTnHAVENbAkYJVKfKeKgJS6P938Nkg7_JQ1wgasFq90Y5VyN3J5Edg5QKbcL6JNNxRbVO0mV1cvlCEnOjQLnGiC-WXEbpMWu3THiYOlpO2NMpyCGCK9ACStIO4-cn2Ff8jm7Lu_kpT0-2z8ghunIjnUZTa6pwGYMZ_vylQ7FPWLb4y6X2T9vDlwudZzzdVkR-UnZ5tgzNiUQJTyuDmQK1rLgbx_NrmDtQBU3b5k9ECkVOvxj7Irfar3YrVgA-HR38eonNcGaQvB3gEMEjakHqaZOg_LilWvUiwAIJt5gJGuktLew4VoeitlhhIgFRXycczkxvUF2_jcQe7CVpaOnaV5o-tnTWfQqvfaAzsP6rYnYgcFz1m00]--></g></svg>