<svg xmlns="http://www.w3.org/2000/svg" xmlns:xlink="http://www.w3.org/1999/xlink" contentStyleType="text/css" height="202px" preserveAspectRatio="none" style="width:794px;height:202px;background:#FFFFFF;" version="1.1" viewBox="0 0 794 202" width="794px" zoomAndPan="magnify"><defs/><g><text fill="#000000" font-family="sans-serif" font-size="12" font-weight="bold" lengthAdjust="spacing" textLength="327.8496" x="6" y="17.1387">Passenger App &#183; Driver Arrived (SCR-RIDER-006)</text><rect fill="#EEEEEE" height="17.9688" rx="5" ry="5" style="stroke:#000000;stroke-width:2.5;" width="116" x="667.5" y="8.5"/><text fill="#000000" font-family="sans-serif" font-size="12" lengthAdjust="spacing" textLength="70.6934" x="690.1533" y="21.6387">&#128737;&#65039; Safety SOS</text><line style="stroke:#AAAAAA;stroke-width:1.0;" x1="6" x2="664" y1="34.4688" y2="34.4688"/><text fill="#000000" font-family="sans-serif" font-size="12" font-weight="bold" lengthAdjust="spacing" textLength="48.6973" x="7" y="51.1074">Status:</text><text fill="#008000" font-family="sans-serif" font-size="12" font-weight="bold" lengthAdjust="spacing" textLength="276.3633" x="57.6973" y="51.1074">&#10003; DRIVER HAS ARRIVED AT PICKUP SPOT</text><line style="stroke:#AAAAAA;stroke-width:1.0;" x1="6" x2="664" y1="59.4375" y2="59.4375"/><line style="stroke:#AAAAAA;stroke-width:1.0;" x1="6" x2="664" y1="61.4375" y2="61.4375"/><text fill="#000000" font-family="sans-serif" font-size="12" font-weight="bold" lengthAdjust="spacing" textLength="54.2461" x="7" y="77.0762">Vehicle:</text><text fill="#000000" font-family="sans-serif" font-size="12" lengthAdjust="spacing" textLength="4.6816" x="63.2461" y="77.0762">[</text><text fill="#000000" font-family="sans-serif" font-size="12" font-weight="bold" lengthAdjust="spacing" textLength="60.041" x="71.7422" y="77.0762">7XYZ912</text><text fill="#000000" font-family="sans-serif" font-size="12" lengthAdjust="spacing" textLength="173.9004" x="135.5977" y="77.0762">] Silver Toyota Camry Hybrid</text><text fill="#000000" font-family="sans-serif" font-size="12" font-weight="bold" lengthAdjust="spacing" textLength="46.6699" x="7" y="93.0449">Driver:</text><text fill="#000000" font-family="sans-serif" font-size="12" lengthAdjust="spacing" textLength="167.3027" x="63.2461" y="93.0449">Alex M. &#9733; 4.94 (2,840 trips)</text><rect fill="#EEEEEE" height="17.9688" rx="5" ry="5" style="stroke:#000000;stroke-width:2.5;" width="76" x="313.998" y="84.4063"/><text fill="#000000" font-family="sans-serif" font-size="12" lengthAdjust="spacing" textLength="26.2148" x="338.8906" y="97.5449">&#128222; Call</text><rect fill="#EEEEEE" height="17.9688" rx="5" ry="5" style="stroke:#000000;stroke-width:2.5;" width="76" x="396.998" y="84.4063"/><text fill="#000000" font-family="sans-serif" font-size="12" lengthAdjust="spacing" textLength="31.8574" x="419.0693" y="97.5449">&#128172; Chat</text><line style="stroke:#AAAAAA;stroke-width:1.0;" x1="6" x2="664" y1="111.375" y2="111.375"/><text fill="#000000" font-family="sans-serif" font-size="12" lengthAdjust="spacing" textLength="0" x="7" y="128.0137">&#9201;&#65039;</text><text fill="#000000" font-family="sans-serif" font-size="12" font-weight="bold" lengthAdjust="spacing" textLength="149.7891" x="10.8145" y="128.0137">Free Waiting Window:</text><text fill="#000000" font-family="sans-serif" font-size="12" font-weight="bold" lengthAdjust="spacing" textLength="38.1973" x="178.5293" y="128.0137">02:15</text><text fill="#000000" font-family="sans-serif" font-size="12" lengthAdjust="spacing" textLength="166.1719" x="220.541" y="128.0137">remaining (then $0.45/min)</text><text fill="#000000" font-family="sans-serif" font-size="12" lengthAdjust="spacing" textLength="0" x="7" y="143.9824">&#128272;</text><text fill="#000000" font-family="sans-serif" font-size="12" font-weight="bold" lengthAdjust="spacing" textLength="165.7148" x="10.8145" y="143.9824">Your Security OTP Code:</text><rect fill="#EEEEEE" height="22.625" rx="5" ry="5" style="stroke:#000000;stroke-width:2.5;" width="76" x="181.0293" y="135.3438"/><text fill="#000000" font-family="sans-serif" font-size="16" font-weight="bold" lengthAdjust="spacing" textLength="61.2422" x="188.4082" y="152.1953">4 9 1 2</text><line style="stroke:#AAAAAA;stroke-width:1.0;" x1="6" x2="664" y1="166.9688" y2="166.9688"/><rect fill="#EEEEEE" height="17.9688" rx="5" ry="5" style="stroke:#000000;stroke-width:2.5;" width="652" x="8.5" y="173.9688"/><text fill="#000000" font-family="sans-serif" font-size="12" lengthAdjust="spacing" textLength="172.7813" x="248.1094" y="187.1074">Cancel Ride (Fee may apply)</text><line style="stroke:#000000;stroke-width:1.0;" x1="5" x2="664" y1="5" y2="5"/><line style="stroke:#000000;stroke-width:1.0;" x1="664" x2="787" y1="5" y2="5"/><line style="stroke:#000000;stroke-width:1.0;" x1="5" x2="664" y1="195.4375" y2="195.4375"/><line style="stroke:#000000;stroke-width:1.0;" x1="664" x2="787" y1="195.4375" y2="195.4375"/><line style="stroke:#000000;stroke-width:1.0;" x1="5" x2="5" y1="5" y2="29.9688"/><line style="stroke:#000000;stroke-width:1.0;" x1="787" x2="787" y1="37.9688" y2="55.9375"/><line style="stroke:#000000;stroke-width:1.0;" x1="787" x2="787" y1="5" y2="29.9688"/><line style="stroke:#000000;stroke-width:1.0;" x1="5" x2="5" y1="162.4688" y2="170.4688"/><line style="stroke:#000000;stroke-width:1.0;" x1="5" x2="5" y1="106.875" y2="114.875"/><line style="stroke:#000000;stroke-width:1.0;" x1="787" x2="787" y1="162.4688" y2="170.4688"/><line style="stroke:#000000;stroke-width:1.0;" x1="5" x2="5" y1="55.9375" y2="63.9375"/><line style="stroke:#000000;stroke-width:1.0;" x1="787" x2="787" y1="106.875" y2="114.875"/><line style="stroke:#000000;stroke-width:1.0;" x1="5" x2="5" y1="29.9688" y2="37.9688"/><line style="stroke:#000000;stroke-width:1.0;" x1="787" x2="787" y1="55.9375" y2="63.9375"/><line style="stroke:#000000;stroke-width:1.0;" x1="787" x2="787" y1="29.9688" y2="37.9688"/><line style="stroke:#000000;stroke-width:1.0;" x1="5" x2="5" y1="170.4688" y2="195.4375"/><line style="stroke:#000000;stroke-width:1.0;" x1="5" x2="5" y1="114.875" y2="162.4688"/><line style="stroke:#000000;stroke-width:1.0;" x1="787" x2="787" y1="170.4688" y2="195.4375"/><line style="stroke:#000000;stroke-width:1.0;" x1="5" x2="5" y1="63.9375" y2="106.875"/><line style="stroke:#000000;stroke-width:1.0;" x1="787" x2="787" y1="114.875" y2="162.4688"/><line style="stroke:#000000;stroke-width:1.0;" x1="5" x2="5" y1="37.9688" y2="55.9375"/><line style="stroke:#000000;stroke-width:1.0;" x1="787" x2="787" y1="63.9375" y2="106.875"/><!--SRC=[]--></g></svg>