<svg xmlns="http://www.w3.org/2000/svg" xmlns:xlink="http://www.w3.org/1999/xlink" contentStyleType="text/css" height="866px" preserveAspectRatio="none" style="width:958px;height:866px;background:#FFFFFF;" version="1.1" viewBox="0 0 958 866" width="958px" zoomAndPan="magnify"><title>Driver Partner App - Screen Flow &amp; Navigation Graph</title><defs/><g><text fill="#000000" font-family="sans-serif" font-size="14" font-weight="bold" lengthAdjust="spacing" textLength="421.0322" x="261.5849" y="22.9951">Driver Partner App - Screen Flow &amp; Navigation Graph</text><!--entity D1--><g id="elem_D1"><rect fill="#F1F1F1" height="52.5938" rx="7.5" ry="7.5" style="stroke:#181818;stroke-width:0.5;" width="282.4863" x="607.33" y="44.2969"/><text fill="#000000" font-family="sans-serif" font-size="14" lengthAdjust="spacing" textLength="159.5713" x="668.7875" y="67.292">1. Driver Home Screen</text><text fill="#000000" font-family="sans-serif" font-size="14" lengthAdjust="spacing" textLength="262.4863" x="617.33" y="83.5889">(Offline State + "GO ONLINE" Button)</text></g><!--entity D2--><g id="elem_D2"><rect fill="#F1F1F1" height="52.5938" rx="7.5" ry="7.5" style="stroke:#181818;stroke-width:0.5;" width="278.6992" x="369.83" y="174.2969"/><text fill="#000000" font-family="sans-serif" font-size="14" lengthAdjust="spacing" textLength="233.3926" x="392.4833" y="197.292">2. Online Radar &amp; Shift Idle Mode</text><text fill="#000000" font-family="sans-serif" font-size="14" lengthAdjust="spacing" textLength="258.6992" x="379.83" y="213.5889">(Heatmap Overlay + Earning Gauge)</text></g><!--entity D3--><g id="elem_D3"><rect fill="#F1F1F1" height="52.5938" rx="7.5" ry="7.5" style="stroke:#181818;stroke-width:0.5;" width="286.082" x="88.33" y="304.2969"/><text fill="#000000" font-family="sans-serif" font-size="14" lengthAdjust="spacing" textLength="213.9102" x="124.4159" y="327.292">3. 15-Second Ride Offer Modal</text><text fill="#000000" font-family="sans-serif" font-size="14" lengthAdjust="spacing" textLength="266.082" x="98.33" y="343.5889">(Fare, Pickup Distance, Rating, Timer)</text></g><!--entity D4--><g id="elem_D4"><rect fill="#F1F1F1" height="52.5938" rx="7.5" ry="7.5" style="stroke:#181818;stroke-width:0.5;" width="290.5527" x="85.83" y="434.2969"/><text fill="#000000" font-family="sans-serif" font-size="14" lengthAdjust="spacing" textLength="207.8877" x="127.1625" y="457.292">4. Navigation to Pickup Route</text><text fill="#000000" font-family="sans-serif" font-size="14" lengthAdjust="spacing" textLength="270.5527" x="95.83" y="473.5889">(Turn-by-Turn GPS + "Arrived" Button)</text></g><!--entity D5--><g id="elem_D5"><rect fill="#F1F1F1" height="52.5938" rx="7.5" ry="7.5" style="stroke:#181818;stroke-width:0.5;" width="319.5166" x="317.33" y="564.2969"/><text fill="#000000" font-family="sans-serif" font-size="14" lengthAdjust="spacing" textLength="236.0859" x="359.0453" y="587.292">5. Waiting at Pickup Dwell Screen</text><text fill="#000000" font-family="sans-serif" font-size="14" lengthAdjust="spacing" textLength="299.5166" x="327.33" y="603.5889">(3min Free Waiting Timer + OTP Pin Input)</text></g><!--entity D6--><g id="elem_D6"><rect fill="#F1F1F1" height="52.5938" rx="7.5" ry="7.5" style="stroke:#181818;stroke-width:0.5;" width="315.0801" x="319.83" y="694.2969"/><text fill="#000000" font-family="sans-serif" font-size="14" lengthAdjust="spacing" textLength="195.7949" x="379.4726" y="717.292">6. In-Trip Navigation Screen</text><text fill="#000000" font-family="sans-serif" font-size="14" lengthAdjust="spacing" textLength="295.0801" x="329.83" y="733.5889">(Destination Route + "Slide to Complete")</text></g><!--entity D7--><g id="elem_D7"><rect fill="#F1F1F1" height="36.2969" rx="7.5" ry="7.5" style="stroke:#181818;stroke-width:0.5;" width="289.6982" x="590.33" y="824.2969"/><text fill="#000000" font-family="sans-serif" font-size="14" lengthAdjust="spacing" textLength="269.6982" x="600.33" y="847.292">7. Trip Earnings Summary &amp; Feedback</text></g><!--link D1 to D2--><g id="link_D1_D2"><path d="M607.15,88.9669 C562.03,97.5569 520.16,109.9369 506.33,127.2969 C496.04,140.2069 495.7394,153.0363 499.1894,168.2063 " fill="none" id="D1-to-D2" style="stroke:#181818;stroke-width:1.0;"/><polygon fill="#181818" points="500.52,174.0569,502.4246,164.3939,499.4112,169.1814,494.6238,166.168,500.52,174.0569" style="stroke:#181818;stroke-width:1.0;"/><text fill="#000000" font-family="sans-serif" font-size="13" lengthAdjust="spacing" textLength="197.1265" x="507.33" y="140.3638">Tap "GO ONLINE" (KYC active)</text></g><!--link D2 to D1--><g id="link_D2_D1"><path d="M648.96,176.7869 C670.64,168.9369 691.66,158.4069 709.33,144.2969 C724.29,132.3469 732.0884,118.6262 738.2084,102.9462 " fill="none" id="D2-to-D1" style="stroke:#181818;stroke-width:1.0;"/><polygon fill="#181818" points="740.39,97.3569,733.3914,104.2865,738.572,102.0147,740.8439,107.1953,740.39,97.3569" style="stroke:#181818;stroke-width:1.0;"/><text fill="#000000" font-family="sans-serif" font-size="13" lengthAdjust="spacing" textLength="24.1592" x="725.33" y="140.3638">Tap</text><text fill="#000000" font-family="sans-serif" font-size="13" lengthAdjust="spacing" textLength="78.6411" x="652.1388" y="116.9334">GO OFFLINE</text></g><!--link D2 to D3--><g id="link_D2_D3"><path d="M369.6,208.7769 C237.27,216.8569 55.54,232.3469 33.33,257.2969 C6,287.9869 34.8437,304.4471 82.4337,314.6671 " fill="none" id="D2-to-D3" style="stroke:#181818;stroke-width:1.0;"/><polygon fill="#181818" points="88.3,315.9269,80.3405,310.1264,83.4115,314.8771,78.6608,317.948,88.3,315.9269" style="stroke:#181818;stroke-width:1.0;"/><text fill="#000000" font-family="sans-serif" font-size="13" lengthAdjust="spacing" textLength="178.5342" x="34.33" y="270.3638">Event: OFFER_DISPATCHED</text></g><!--link D3 to D2--><g id="link_D3_D2"><path d="M232.72,304.2369 C234.95,288.5469 240.37,269.2469 253.33,257.2969 C271.38,240.6469 313.8524,229.2156 363.7624,220.3556 " fill="none" id="D3-to-D2" style="stroke:#181818;stroke-width:1.0;"/><polygon fill="#181818" points="369.67,219.3069,360.1094,216.9415,364.747,220.1808,361.5077,224.8184,369.67,219.3069" style="stroke:#181818;stroke-width:1.0;"/><text fill="#000000" font-family="sans-serif" font-size="13" lengthAdjust="spacing" textLength="228.9346" x="254.33" y="270.3638">Tap "Decline" or 15s Timer Expired</text></g><!--link D3 to D4--><g id="link_D3_D4"><path d="M231.33,357.3969 C231.33,379.7169 231.33,405.9369 231.33,428.2469 " fill="none" id="D3-to-D4" style="stroke:#181818;stroke-width:1.0;"/><polygon fill="#181818" points="231.33,434.2469,235.33,425.2469,231.33,429.2469,227.33,425.2469,231.33,434.2469" style="stroke:#181818;stroke-width:1.0;"/><text fill="#000000" font-family="sans-serif" font-size="13" lengthAdjust="spacing" textLength="155.7969" x="232.33" y="400.3638">Tap "Accept" within 15s</text></g><!--link D4 to D5--><g id="link_D4_D5"><path d="M222.5,487.5669 C219.03,502.7369 218,521.4169 228.33,534.2969 C241.04,550.1469 270.7449,560.5491 311.1749,568.9291 " fill="none" id="D4-to-D5" style="stroke:#181818;stroke-width:1.0;"/><polygon fill="#181818" points="317.05,570.1469,309.0491,564.4035,312.1541,569.1321,307.4255,572.237,317.05,570.1469" style="stroke:#181818;stroke-width:1.0;"/><text fill="#000000" font-family="sans-serif" font-size="13" lengthAdjust="spacing" textLength="253.4111" x="229.33" y="530.3638">Tap "I Have Arrived" (Geofence &lt;50m)</text></g><!--link D5 to D6--><g id="link_D5_D6"><path d="M477.33,617.3969 C477.33,639.7169 477.33,665.9369 477.33,688.2469 " fill="none" id="D5-to-D6" style="stroke:#181818;stroke-width:1.0;"/><polygon fill="#181818" points="477.33,694.2469,481.33,685.2469,477.33,689.2469,473.33,685.2469,477.33,694.2469" style="stroke:#181818;stroke-width:1.0;"/><text fill="#000000" font-family="sans-serif" font-size="13" lengthAdjust="spacing" textLength="189.0459" x="478.33" y="660.3638">Enter 4-digit Rider OTP &amp; tap</text><text fill="#000000" font-family="sans-serif" font-size="13" lengthAdjust="spacing" textLength="61.0391" x="408.8906" y="683.0798">Start Trip</text></g><!--link D5 to D2--><g id="link_D5_D2"><path d="M482.56,564.1869 C484.31,554.8169 486.12,544.1069 487.33,534.2969 C501.32,420.3169 506.6499,289.1839 508.4199,233.3339 " fill="none" id="D5-to-D2" style="stroke:#181818;stroke-width:1.0;"/><polygon fill="#181818" points="508.61,227.3369,504.3269,236.2057,508.4516,232.3344,512.3229,236.4591,508.61,227.3369" style="stroke:#181818;stroke-width:1.0;"/><text fill="#000000" font-family="sans-serif" font-size="13" lengthAdjust="spacing" textLength="201.9443" x="502.33" y="400.3638">Rider No-Show Cancel (&gt;5min)</text></g><!--link D6 to D7--><g id="link_D6_D7"><path d="M468.39,747.3669 C464.79,762.6669 463.66,781.5369 474.33,794.2969 C490.24,813.3269 533.0416,823.8816 584.1716,830.6316 " fill="none" id="D6-to-D7" style="stroke:#181818;stroke-width:1.0;"/><polygon fill="#181818" points="590.12,831.4169,581.7209,826.2734,585.163,830.7625,580.6739,834.2045,590.12,831.4169" style="stroke:#181818;stroke-width:1.0;"/><text fill="#000000" font-family="sans-serif" font-size="13" lengthAdjust="spacing" textLength="233.9175" x="475.33" y="790.3638">Slide "Complete Trip" at destination</text></g><!--link D7 to D2--><g id="link_D7_D2"><path d="M735.33,824.2769 C735.33,801.0969 735.33,758.3069 735.33,721.7969 C735.33,329.7969 735.33,329.7969 735.33,329.7969 C735.33,277.0369 693.7672,247.794 642.5072,229.394 " fill="none" id="D7-to-D2" style="stroke:#181818;stroke-width:1.0;"/><polygon fill="#181818" points="636.86,227.3669,643.9794,234.1723,641.566,229.0561,646.6822,226.6427,636.86,227.3669" style="stroke:#181818;stroke-width:1.0;"/><text fill="#000000" font-family="sans-serif" font-size="13" lengthAdjust="spacing" textLength="24.1592" x="736.33" y="530.3638">Tap</text><text fill="#000000" font-family="sans-serif" font-size="13" lengthAdjust="spacing" textLength="92.3647" x="562.7675" y="246.9455">Continue Shift</text></g><!--link D7 to D1--><g id="link_D7_D1"><path d="M759.37,823.9869 C785.43,803.0169 823.33,765.0769 823.33,721.7969 C823.33,199.7969 823.33,199.7969 823.33,199.7969 C823.33,160.1369 800.1894,126.3396 778.5594,102.1496 " fill="none" id="D7-to-D1" style="stroke:#181818;stroke-width:1.0;"/><polygon fill="#181818" points="774.56,97.6769,777.5772,107.0522,777.8928,101.4041,783.5408,101.7197,774.56,97.6769" style="stroke:#181818;stroke-width:1.0;"/><text fill="#000000" font-family="sans-serif" font-size="13" lengthAdjust="spacing" textLength="24.1592" x="824.33" y="465.3638">Tap</text><text fill="#000000" font-family="sans-serif" font-size="13" lengthAdjust="spacing" textLength="155.27" x="795.932" y="116.8902">Finish Shift &amp; Go Offline</text></g><!--SRC=[NLDTQzj047o_Nx7e8JWq4dLiEH1AmBNyHLlRM89Ir58kqbe-8js9qyc9_ttt95bn-cBXtTcvsTdTwaN8acjUG8e7NkScmZSppKKc2vG64lf1pQeUfLKjqvdI4ZKC_Qj4eefIIOA7vfmZQ4mCbrcEZ1bXA11eSQAQ7TV6raxB4bm84uqeOP6hLxY13J-9Z1kX92mrBu-CnKFlKhXI1NRuttAmFHno8IbWk47u1Cvo2zlDz_Lcxi3NsXWbR_y0ho0OilZUWwriq7kUSaqFXKTnCB1EITOFbIBnhP2RWfUmfQToVYR6ETTIo0oMlCwm8xjdySYZjjqG4oLJs8iKWQIGFEBXEH4jkCOxs8dafIuX41MPa51WJst9x0uYKQ3ks4Oi7dlNJHjrATohsbXPKQsb-tnsxHUMkz1sEjNMaFI_FiSizZtuoOLz1xZf9RnYdh_xDYe4sKr_UcYZY7YtqOvg9AnbMPkEr6VnnAE86sbHNYlj-GAiYAKDDgAjmZ2tlb0tCzg970qw7T-4nGyUD6ITlHM4TL5mVQQfB13JPvwyjDW7ne8XkEuJsGwF4D5mheSy-FPh1ZmnPCKj8qG375u35ui6sIT7b9oVQ44VRMw-_nkimzqqcgtc0QFanvS2JEp6EA3icbUTI_EtKcXCU_Zu0fyc2PR6WLTXZkGXLJ1ADXZ_Wbd3YfyG-l4DbgWEIDi1N_pF1JNXjmKJgzDU7OpTL6J2D6kccm7TWB5KjFNQD3uwVPcLtW8toWsFT50pktev39vy6ZhnJrhW0m7R2JcN-RHKTclIztaoGduqPQOa9MjixyVf0Rtj2o55TUpEwmQM2hexTTW_]--></g></svg>