<svg xmlns="http://www.w3.org/2000/svg" xmlns:xlink="http://www.w3.org/1999/xlink" contentStyleType="text/css" height="1461px" preserveAspectRatio="none" style="width:854px;height:1461px;background:#FFFFFF;" version="1.1" viewBox="0 0 854 1461" width="854px" zoomAndPan="magnify"><title>Core Relational Database ER Diagram (PostgreSQL)</title><defs/><g><text fill="#000000" font-family="sans-serif" font-size="14" font-weight="bold" lengthAdjust="spacing" textLength="346.1992" x="247.3835" y="24.5332">Core Relational Database ER Diagram (PostgreSQL)</text><!--class users--><g id="elem_users"><rect codeLine="6" fill="#F1F1F1" height="202.0938" id="users" rx="2.5" ry="2.5" style="stroke:#181818;stroke-width:0.5;" width="372.1719" x="317.5" y="45.6094"/><text fill="#000000" font-family="sans-serif" font-size="14" lengthAdjust="spacing" textLength="34.2344" x="486.4688" y="65.1426">users</text><line style="stroke:#181818;stroke-width:0.5;" x1="318.5" x2="688.6719" y1="73.2188" y2="73.2188"/><ellipse cx="328.5" cy="87.5234" fill="#000000" rx="3" ry="3" style="stroke:#000000;stroke-width:1.0;"/><text fill="#000000" font-family="sans-serif" font-size="14" lengthAdjust="spacing" textLength="94.9238" x="337.5" y="91.752">id : UUID &#171;PK&#187;</text><line style="stroke:#181818;stroke-width:1.0;" x1="318.5" x2="688.6719" y1="98.8281" y2="98.8281"/><ellipse cx="328.5" cy="113.1328" fill="#000000" rx="3" ry="3" style="stroke:#000000;stroke-width:1.0;"/><text fill="#000000" font-family="sans-serif" font-size="14" lengthAdjust="spacing" textLength="273.1162" x="337.5" y="117.3613">phone_number : VARCHAR(32) &#171;UNIQUE&#187;</text><ellipse cx="328.5" cy="130.7422" fill="#000000" rx="3" ry="3" style="stroke:#000000;stroke-width:1.0;"/><text fill="#000000" font-family="sans-serif" font-size="14" lengthAdjust="spacing" textLength="146.2617" x="337.5" y="134.9707">email : VARCHAR(255)</text><ellipse cx="328.5" cy="148.3516" fill="#000000" rx="3" ry="3" style="stroke:#000000;stroke-width:1.0;"/><text fill="#000000" font-family="sans-serif" font-size="14" lengthAdjust="spacing" textLength="173.5098" x="337.5" y="152.5801">full_name : VARCHAR(128)</text><ellipse cx="328.5" cy="165.9609" fill="#000000" rx="3" ry="3" style="stroke:#000000;stroke-width:1.0;"/><text fill="#000000" font-family="sans-serif" font-size="14" lengthAdjust="spacing" textLength="346.1719" x="337.5" y="170.1895">role : VARCHAR(32) -- PASSENGER, DRIVER, ADMIN</text><ellipse cx="328.5" cy="183.5703" fill="#000000" rx="3" ry="3" style="stroke:#000000;stroke-width:1.0;"/><text fill="#000000" font-family="sans-serif" font-size="14" lengthAdjust="spacing" textLength="171.165" x="337.5" y="187.7988">rating_avg : NUMERIC(3,2)</text><ellipse cx="328.5" cy="201.1797" fill="#000000" rx="3" ry="3" style="stroke:#000000;stroke-width:1.0;"/><text fill="#000000" font-family="sans-serif" font-size="14" lengthAdjust="spacing" textLength="150.9512" x="337.5" y="205.4082">rating_count : INTEGER</text><ellipse cx="328.5" cy="218.7891" fill="#000000" rx="3" ry="3" style="stroke:#000000;stroke-width:1.0;"/><text fill="#000000" font-family="sans-serif" font-size="14" lengthAdjust="spacing" textLength="133.8271" x="337.5" y="223.0176">is_active : BOOLEAN</text><ellipse cx="328.5" cy="236.3984" fill="#000000" rx="3" ry="3" style="stroke:#000000;stroke-width:1.0;"/><text fill="#000000" font-family="sans-serif" font-size="14" lengthAdjust="spacing" textLength="176.5996" x="337.5" y="240.627">created_at : TIMESTAMPTZ</text></g><!--class drivers--><g id="elem_drivers"><rect codeLine="19" fill="#F1F1F1" height="202.0938" id="drivers" rx="2.5" ry="2.5" style="stroke:#181818;stroke-width:0.5;" width="445.3027" x="7" y="307.6094"/><text fill="#000000" font-family="sans-serif" font-size="14" lengthAdjust="spacing" textLength="87.9238" x="185.6895" y="327.1426">driver_profiles</text><line style="stroke:#181818;stroke-width:0.5;" x1="8" x2="451.3027" y1="335.2188" y2="335.2188"/><ellipse cx="18" cy="349.5234" fill="#000000" rx="3" ry="3" style="stroke:#000000;stroke-width:1.0;"/><text fill="#000000" font-family="sans-serif" font-size="14" lengthAdjust="spacing" textLength="94.9238" x="27" y="353.752">id : UUID &#171;PK&#187;</text><line style="stroke:#181818;stroke-width:1.0;" x1="8" x2="451.3027" y1="360.8281" y2="360.8281"/><ellipse cx="18" cy="375.1328" fill="#000000" rx="3" ry="3" style="stroke:#000000;stroke-width:1.0;"/><text fill="#000000" font-family="sans-serif" font-size="14" lengthAdjust="spacing" textLength="129.1582" x="27" y="379.3613">user_id : UUID &#171;FK&#187;</text><ellipse cx="18" cy="392.7422" fill="#000000" rx="3" ry="3" style="stroke:#000000;stroke-width:1.0;"/><text fill="#000000" font-family="sans-serif" font-size="14" lengthAdjust="spacing" textLength="203.8545" x="27" y="396.9707">license_number : VARCHAR(64)</text><ellipse cx="18" cy="410.3516" fill="#000000" rx="3" ry="3" style="stroke:#000000;stroke-width:1.0;"/><text fill="#000000" font-family="sans-serif" font-size="14" lengthAdjust="spacing" textLength="419.3027" x="27" y="414.5801">kyc_status : VARCHAR(32) -- PENDING, APPROVED, REJECTED</text><ellipse cx="18" cy="427.9609" fill="#000000" rx="3" ry="3" style="stroke:#000000;stroke-width:1.0;"/><text fill="#000000" font-family="sans-serif" font-size="14" lengthAdjust="spacing" textLength="230.3438" x="27" y="432.1895">payout_account_id : VARCHAR(128)</text><ellipse cx="18" cy="445.5703" fill="#000000" rx="3" ry="3" style="stroke:#000000;stroke-width:1.0;"/><text fill="#000000" font-family="sans-serif" font-size="14" lengthAdjust="spacing" textLength="196.8613" x="27" y="449.7988">current_vehicle_id : UUID &#171;FK&#187;</text><ellipse cx="18" cy="463.1797" fill="#000000" rx="3" ry="3" style="stroke:#000000;stroke-width:1.0;"/><text fill="#000000" font-family="sans-serif" font-size="14" lengthAdjust="spacing" textLength="357.8613" x="27" y="467.4082">shift_status : VARCHAR(32) -- OFFLINE, ONLINE, BUSY</text><ellipse cx="18" cy="480.7891" fill="#000000" rx="3" ry="3" style="stroke:#000000;stroke-width:1.0;"/><text fill="#000000" font-family="sans-serif" font-size="14" lengthAdjust="spacing" textLength="209.3027" x="27" y="485.0176">acceptance_rate : NUMERIC(5,2)</text><ellipse cx="18" cy="498.3984" fill="#000000" rx="3" ry="3" style="stroke:#000000;stroke-width:1.0;"/><text fill="#000000" font-family="sans-serif" font-size="14" lengthAdjust="spacing" textLength="211.6338" x="27" y="502.627">cancellation_rate : NUMERIC(5,2)</text></g><!--class vehicles--><g id="elem_vehicles"><rect codeLine="32" fill="#F1F1F1" height="219.7031" id="vehicles" rx="2.5" ry="2.5" style="stroke:#181818;stroke-width:0.5;" width="444.4961" x="281.5" y="569.6094"/><text fill="#000000" font-family="sans-serif" font-size="14" lengthAdjust="spacing" textLength="50.5791" x="478.4585" y="589.1426">vehicles</text><line style="stroke:#181818;stroke-width:0.5;" x1="282.5" x2="724.9961" y1="597.2188" y2="597.2188"/><ellipse cx="292.5" cy="611.5234" fill="#000000" rx="3" ry="3" style="stroke:#000000;stroke-width:1.0;"/><text fill="#000000" font-family="sans-serif" font-size="14" lengthAdjust="spacing" textLength="94.9238" x="301.5" y="615.752">id : UUID &#171;PK&#187;</text><line style="stroke:#181818;stroke-width:1.0;" x1="282.5" x2="724.9961" y1="622.8281" y2="622.8281"/><ellipse cx="292.5" cy="637.1328" fill="#000000" rx="3" ry="3" style="stroke:#000000;stroke-width:1.0;"/><text fill="#000000" font-family="sans-serif" font-size="14" lengthAdjust="spacing" textLength="182.8477" x="301.5" y="641.3613">owner_driver_id : UUID &#171;FK&#187;</text><ellipse cx="292.5" cy="654.7422" fill="#000000" rx="3" ry="3" style="stroke:#000000;stroke-width:1.0;"/><text fill="#000000" font-family="sans-serif" font-size="14" lengthAdjust="spacing" textLength="175.0957" x="301.5" y="658.9707">fleet_tenant_id : UUID &#171;FK&#187;</text><ellipse cx="292.5" cy="672.3516" fill="#000000" rx="3" ry="3" style="stroke:#000000;stroke-width:1.0;"/><text fill="#000000" font-family="sans-serif" font-size="14" lengthAdjust="spacing" textLength="260.6543" x="301.5" y="676.5801">license_plate : VARCHAR(32) &#171;UNIQUE&#187;</text><ellipse cx="292.5" cy="689.9609" fill="#000000" rx="3" ry="3" style="stroke:#000000;stroke-width:1.0;"/><text fill="#000000" font-family="sans-serif" font-size="14" lengthAdjust="spacing" textLength="139.2549" x="301.5" y="694.1895">make : VARCHAR(64)</text><ellipse cx="292.5" cy="707.5703" fill="#000000" rx="3" ry="3" style="stroke:#000000;stroke-width:1.0;"/><text fill="#000000" font-family="sans-serif" font-size="14" lengthAdjust="spacing" textLength="143.1514" x="301.5" y="711.7988">model : VARCHAR(64)</text><ellipse cx="292.5" cy="725.1797" fill="#000000" rx="3" ry="3" style="stroke:#000000;stroke-width:1.0;"/><text fill="#000000" font-family="sans-serif" font-size="14" lengthAdjust="spacing" textLength="101.1309" x="301.5" y="729.4082">year : INTEGER</text><ellipse cx="292.5" cy="742.7891" fill="#000000" rx="3" ry="3" style="stroke:#000000;stroke-width:1.0;"/><text fill="#000000" font-family="sans-serif" font-size="14" lengthAdjust="spacing" textLength="135.3652" x="301.5" y="747.0176">color : VARCHAR(32)</text><ellipse cx="292.5" cy="760.3984" fill="#000000" rx="3" ry="3" style="stroke:#000000;stroke-width:1.0;"/><text fill="#000000" font-family="sans-serif" font-size="14" lengthAdjust="spacing" textLength="418.4961" x="301.5" y="764.627">tariff_class : VARCHAR(32) -- ECONOMY, COMFORT, BUSINESS</text><ellipse cx="292.5" cy="778.0078" fill="#000000" rx="3" ry="3" style="stroke:#000000;stroke-width:1.0;"/><text fill="#000000" font-family="sans-serif" font-size="14" lengthAdjust="spacing" textLength="142.3857" x="301.5" y="782.2363">is_verified : BOOLEAN</text></g><!--class rides--><g id="elem_rides"><rect codeLine="46" fill="#F1F1F1" height="342.9688" id="rides" rx="2.5" ry="2.5" style="stroke:#181818;stroke-width:0.5;" width="633.5576" x="186.5" y="849.6094"/><text fill="#000000" font-family="sans-serif" font-size="14" lengthAdjust="spacing" textLength="30.3447" x="488.1064" y="869.1426">rides</text><line style="stroke:#181818;stroke-width:0.5;" x1="187.5" x2="819.0576" y1="877.2188" y2="877.2188"/><ellipse cx="197.5" cy="891.5234" fill="#000000" rx="3" ry="3" style="stroke:#000000;stroke-width:1.0;"/><text fill="#000000" font-family="sans-serif" font-size="14" lengthAdjust="spacing" textLength="94.9238" x="206.5" y="895.752">id : UUID &#171;PK&#187;</text><line style="stroke:#181818;stroke-width:1.0;" x1="187.5" x2="819.0576" y1="902.8281" y2="902.8281"/><ellipse cx="197.5" cy="917.1328" fill="#000000" rx="3" ry="3" style="stroke:#000000;stroke-width:1.0;"/><text fill="#000000" font-family="sans-serif" font-size="14" lengthAdjust="spacing" textLength="167.3027" x="206.5" y="921.3613">passenger_id : UUID &#171;FK&#187;</text><ellipse cx="197.5" cy="934.7422" fill="#000000" rx="3" ry="3" style="stroke:#000000;stroke-width:1.0;"/><text fill="#000000" font-family="sans-serif" font-size="14" lengthAdjust="spacing" textLength="136.9307" x="206.5" y="938.9707">driver_id : UUID &#171;FK&#187;</text><ellipse cx="197.5" cy="952.3516" fill="#000000" rx="3" ry="3" style="stroke:#000000;stroke-width:1.0;"/><text fill="#000000" font-family="sans-serif" font-size="14" lengthAdjust="spacing" textLength="145.5029" x="206.5" y="956.5801">vehicle_id : UUID &#171;FK&#187;</text><ellipse cx="197.5" cy="969.9609" fill="#000000" rx="3" ry="3" style="stroke:#000000;stroke-width:1.0;"/><text fill="#000000" font-family="sans-serif" font-size="14" lengthAdjust="spacing" textLength="607.5576" x="206.5" y="974.1895">status : VARCHAR(32) -- DRAFT, REQUESTED, ALLOCATED, IN_PROGRESS, COMPLETED...</text><ellipse cx="197.5" cy="987.5703" fill="#000000" rx="3" ry="3" style="stroke:#000000;stroke-width:1.0;"/><text fill="#000000" font-family="sans-serif" font-size="14" lengthAdjust="spacing" textLength="171.9307" x="206.5" y="991.7988">tariff_class : VARCHAR(32)</text><ellipse cx="197.5" cy="1005.1797" fill="#000000" rx="3" ry="3" style="stroke:#000000;stroke-width:1.0;"/><text fill="#000000" font-family="sans-serif" font-size="14" lengthAdjust="spacing" textLength="204.6064" x="206.5" y="1009.4082">surge_multiplier : NUMERIC(4,2)</text><ellipse cx="197.5" cy="1022.7891" fill="#000000" rx="3" ry="3" style="stroke:#000000;stroke-width:1.0;"/><text fill="#000000" font-family="sans-serif" font-size="14" lengthAdjust="spacing" textLength="206.1787" x="206.5" y="1027.0176">estimated_fare : NUMERIC(10,2)</text><ellipse cx="197.5" cy="1040.3984" fill="#000000" rx="3" ry="3" style="stroke:#000000;stroke-width:1.0;"/><text fill="#000000" font-family="sans-serif" font-size="14" lengthAdjust="spacing" textLength="171.165" x="206.5" y="1044.627">final_fare : NUMERIC(10,2)</text><ellipse cx="197.5" cy="1058.0078" fill="#000000" rx="3" ry="3" style="stroke:#000000;stroke-width:1.0;"/><text fill="#000000" font-family="sans-serif" font-size="14" lengthAdjust="spacing" textLength="150.917" x="206.5" y="1062.2363">currency : VARCHAR(3)</text><ellipse cx="197.5" cy="1075.6172" fill="#000000" rx="3" ry="3" style="stroke:#000000;stroke-width:1.0;"/><text fill="#000000" font-family="sans-serif" font-size="14" lengthAdjust="spacing" textLength="172.751" x="206.5" y="1079.8457">payment_method_id : UUID</text><ellipse cx="197.5" cy="1093.2266" fill="#000000" rx="3" ry="3" style="stroke:#000000;stroke-width:1.0;"/><text fill="#000000" font-family="sans-serif" font-size="14" lengthAdjust="spacing" textLength="188.3164" x="206.5" y="1097.4551">psp_hold_id : VARCHAR(128)</text><ellipse cx="197.5" cy="1110.8359" fill="#000000" rx="3" ry="3" style="stroke:#000000;stroke-width:1.0;"/><text fill="#000000" font-family="sans-serif" font-size="14" lengthAdjust="spacing" textLength="203.8682" x="206.5" y="1115.0645">pickup_h3_res8 : VARCHAR(15)</text><ellipse cx="197.5" cy="1128.4453" fill="#000000" rx="3" ry="3" style="stroke:#000000;stroke-width:1.0;"/><text fill="#000000" font-family="sans-serif" font-size="14" lengthAdjust="spacing" textLength="206.9854" x="206.5" y="1132.6738">dropoff_h3_res8 : VARCHAR(15)</text><ellipse cx="197.5" cy="1146.0547" fill="#000000" rx="3" ry="3" style="stroke:#000000;stroke-width:1.0;"/><text fill="#000000" font-family="sans-serif" font-size="14" lengthAdjust="spacing" textLength="172.7031" x="206.5" y="1150.2832">started_at : TIMESTAMPTZ</text><ellipse cx="197.5" cy="1163.6641" fill="#000000" rx="3" ry="3" style="stroke:#000000;stroke-width:1.0;"/><text fill="#000000" font-family="sans-serif" font-size="14" lengthAdjust="spacing" textLength="194.4961" x="206.5" y="1167.8926">completed_at : TIMESTAMPTZ</text><ellipse cx="197.5" cy="1181.2734" fill="#000000" rx="3" ry="3" style="stroke:#000000;stroke-width:1.0;"/><text fill="#000000" font-family="sans-serif" font-size="14" lengthAdjust="spacing" textLength="176.5996" x="206.5" y="1185.502">created_at : TIMESTAMPTZ</text></g><!--class ride_stops--><g id="elem_ride_stops"><rect codeLine="67" fill="#F1F1F1" height="202.0938" id="ride_stops" rx="2.5" ry="2.5" style="stroke:#181818;stroke-width:0.5;" width="449.1855" x="92" y="1252.6094"/><text fill="#000000" font-family="sans-serif" font-size="14" lengthAdjust="spacing" textLength="64.5928" x="284.2964" y="1272.1426">ride_stops</text><line style="stroke:#181818;stroke-width:0.5;" x1="93" x2="540.1855" y1="1280.2188" y2="1280.2188"/><ellipse cx="103" cy="1294.5234" fill="#000000" rx="3" ry="3" style="stroke:#000000;stroke-width:1.0;"/><text fill="#000000" font-family="sans-serif" font-size="14" lengthAdjust="spacing" textLength="94.9238" x="112" y="1298.752">id : UUID &#171;PK&#187;</text><line style="stroke:#181818;stroke-width:1.0;" x1="93" x2="540.1855" y1="1305.8281" y2="1305.8281"/><ellipse cx="103" cy="1320.1328" fill="#000000" rx="3" ry="3" style="stroke:#000000;stroke-width:1.0;"/><text fill="#000000" font-family="sans-serif" font-size="14" lengthAdjust="spacing" textLength="125.2686" x="112" y="1324.3613">ride_id : UUID &#171;FK&#187;</text><ellipse cx="103" cy="1337.7422" fill="#000000" rx="3" ry="3" style="stroke:#000000;stroke-width:1.0;"/><text fill="#000000" font-family="sans-serif" font-size="14" lengthAdjust="spacing" textLength="168.8613" x="112" y="1341.9707">stop_sequence : INTEGER</text><ellipse cx="103" cy="1355.3516" fill="#000000" rx="3" ry="3" style="stroke:#000000;stroke-width:1.0;"/><text fill="#000000" font-family="sans-serif" font-size="14" lengthAdjust="spacing" textLength="423.1855" x="112" y="1359.5801">stop_type : VARCHAR(32) -- PICKUP, DROPOFF, INTERMEDIATE</text><ellipse cx="103" cy="1372.9609" fill="#000000" rx="3" ry="3" style="stroke:#000000;stroke-width:1.0;"/><text fill="#000000" font-family="sans-serif" font-size="14" lengthAdjust="spacing" textLength="195.2891" x="112" y="1377.1895">latitude : DOUBLE PRECISION</text><ellipse cx="103" cy="1390.5703" fill="#000000" rx="3" ry="3" style="stroke:#000000;stroke-width:1.0;"/><text fill="#000000" font-family="sans-serif" font-size="14" lengthAdjust="spacing" textLength="206.9717" x="112" y="1394.7988">longitude : DOUBLE PRECISION</text><ellipse cx="103" cy="1408.1797" fill="#000000" rx="3" ry="3" style="stroke:#000000;stroke-width:1.0;"/><text fill="#000000" font-family="sans-serif" font-size="14" lengthAdjust="spacing" textLength="127.6064" x="112" y="1412.4082">address_text : TEXT</text><ellipse cx="103" cy="1425.7891" fill="#000000" rx="3" ry="3" style="stroke:#000000;stroke-width:1.0;"/><text fill="#000000" font-family="sans-serif" font-size="14" lengthAdjust="spacing" textLength="187.5166" x="112" y="1430.0176">planned_eta : TIMESTAMPTZ</text><ellipse cx="103" cy="1443.3984" fill="#000000" rx="3" ry="3" style="stroke:#000000;stroke-width:1.0;"/><text fill="#000000" font-family="sans-serif" font-size="14" lengthAdjust="spacing" textLength="217.8408" x="112" y="1447.627">actual_arrived_at : TIMESTAMPTZ</text></g><!--class ride_reviews--><g id="elem_ride_reviews"><rect codeLine="80" fill="#F1F1F1" height="184.4844" id="ride_reviews" rx="2.5" ry="2.5" style="stroke:#181818;stroke-width:0.5;" width="229.8682" x="576.5" y="1261.6094"/><text fill="#000000" font-family="sans-serif" font-size="14" lengthAdjust="spacing" textLength="78.5859" x="652.1411" y="1281.1426">ride_reviews</text><line style="stroke:#181818;stroke-width:0.5;" x1="577.5" x2="805.3682" y1="1289.2188" y2="1289.2188"/><ellipse cx="587.5" cy="1303.5234" fill="#000000" rx="3" ry="3" style="stroke:#000000;stroke-width:1.0;"/><text fill="#000000" font-family="sans-serif" font-size="14" lengthAdjust="spacing" textLength="94.9238" x="596.5" y="1307.752">id : UUID &#171;PK&#187;</text><line style="stroke:#181818;stroke-width:1.0;" x1="577.5" x2="805.3682" y1="1314.8281" y2="1314.8281"/><ellipse cx="587.5" cy="1329.1328" fill="#000000" rx="3" ry="3" style="stroke:#000000;stroke-width:1.0;"/><text fill="#000000" font-family="sans-serif" font-size="14" lengthAdjust="spacing" textLength="125.2686" x="596.5" y="1333.3613">ride_id : UUID &#171;FK&#187;</text><ellipse cx="587.5" cy="1346.7422" fill="#000000" rx="3" ry="3" style="stroke:#000000;stroke-width:1.0;"/><text fill="#000000" font-family="sans-serif" font-size="14" lengthAdjust="spacing" textLength="176.6406" x="596.5" y="1350.9707">author_user_id : UUID &#171;FK&#187;</text><ellipse cx="587.5" cy="1364.3516" fill="#000000" rx="3" ry="3" style="stroke:#000000;stroke-width:1.0;"/><text fill="#000000" font-family="sans-serif" font-size="14" lengthAdjust="spacing" textLength="189.8613" x="596.5" y="1368.5801">recipient_user_id : UUID &#171;FK&#187;</text><ellipse cx="587.5" cy="1381.9609" fill="#000000" rx="3" ry="3" style="stroke:#000000;stroke-width:1.0;"/><text fill="#000000" font-family="sans-serif" font-size="14" lengthAdjust="spacing" textLength="154.8203" x="596.5" y="1386.1895">score : SMALLINT -- 1..5</text><ellipse cx="587.5" cy="1399.5703" fill="#000000" rx="3" ry="3" style="stroke:#000000;stroke-width:1.0;"/><text fill="#000000" font-family="sans-serif" font-size="14" lengthAdjust="spacing" textLength="203.8682" x="596.5" y="1403.7988">feedback_tags : VARCHAR(64)[]</text><ellipse cx="587.5" cy="1417.1797" fill="#000000" rx="3" ry="3" style="stroke:#000000;stroke-width:1.0;"/><text fill="#000000" font-family="sans-serif" font-size="14" lengthAdjust="spacing" textLength="135.3721" x="596.5" y="1421.4082">comment_text : TEXT</text><ellipse cx="587.5" cy="1434.7891" fill="#000000" rx="3" ry="3" style="stroke:#000000;stroke-width:1.0;"/><text fill="#000000" font-family="sans-serif" font-size="14" lengthAdjust="spacing" textLength="176.5996" x="596.5" y="1439.0176">created_at : TIMESTAMPTZ</text></g><!--class tenants--><g id="elem_tenants"><rect codeLine="92" fill="#F1F1F1" height="149.2656" id="tenants" rx="2.5" ry="2.5" style="stroke:#181818;stroke-width:0.5;" width="238.4199" x="487.5" y="334.1094"/><text fill="#000000" font-family="sans-serif" font-size="14" lengthAdjust="spacing" textLength="77.0684" x="568.1758" y="353.6426">tenants_b2b</text><line style="stroke:#181818;stroke-width:0.5;" x1="488.5" x2="724.9199" y1="361.7188" y2="361.7188"/><ellipse cx="498.5" cy="376.0234" fill="#000000" rx="3" ry="3" style="stroke:#000000;stroke-width:1.0;"/><text fill="#000000" font-family="sans-serif" font-size="14" lengthAdjust="spacing" textLength="94.9238" x="507.5" y="380.252">id : UUID &#171;PK&#187;</text><line style="stroke:#181818;stroke-width:1.0;" x1="488.5" x2="724.9199" y1="387.3281" y2="387.3281"/><ellipse cx="498.5" cy="401.6328" fill="#000000" rx="3" ry="3" style="stroke:#000000;stroke-width:1.0;"/><text fill="#000000" font-family="sans-serif" font-size="14" lengthAdjust="spacing" textLength="212.4199" x="507.5" y="405.8613">company_name : VARCHAR(128)</text><ellipse cx="498.5" cy="419.2422" fill="#000000" rx="3" ry="3" style="stroke:#000000;stroke-width:1.0;"/><text fill="#000000" font-family="sans-serif" font-size="14" lengthAdjust="spacing" textLength="142.3789" x="507.5" y="423.4707">tax_id : VARCHAR(64)</text><ellipse cx="498.5" cy="436.8516" fill="#000000" rx="3" ry="3" style="stroke:#000000;stroke-width:1.0;"/><text fill="#000000" font-family="sans-serif" font-size="14" lengthAdjust="spacing" textLength="180.4756" x="507.5" y="441.0801">credit_limit : NUMERIC(12,2)</text><ellipse cx="498.5" cy="454.4609" fill="#000000" rx="3" ry="3" style="stroke:#000000;stroke-width:1.0;"/><text fill="#000000" font-family="sans-serif" font-size="14" lengthAdjust="spacing" textLength="189.8477" x="507.5" y="458.6895">billing_email : VARCHAR(255)</text><ellipse cx="498.5" cy="472.0703" fill="#000000" rx="3" ry="3" style="stroke:#000000;stroke-width:1.0;"/><text fill="#000000" font-family="sans-serif" font-size="14" lengthAdjust="spacing" textLength="176.5996" x="507.5" y="476.2988">created_at : TIMESTAMPTZ</text></g><!--link users to drivers--><g id="link_users_drivers"><path codeLine="102" d="M384.75,255.9094 C384.75,275.4894 384.75,273.0094 384.75,292.5794 " fill="none" id="users-drivers" style="stroke:#181818;stroke-width:1.0;"/><line style="stroke:#181818;stroke-width:1.0;" x1="380.75" x2="388.75" y1="251.9094" y2="251.9094"/><line style="stroke:#181818;stroke-width:1.0;" x1="380.75" x2="388.75" y1="254.9094" y2="254.9094"/><line style="stroke:#181818;stroke-width:1.0;" x1="384.75" x2="384.75" y1="255.9094" y2="247.9094"/><line style="stroke:#181818;stroke-width:1.0;" x1="384.75" x2="384.75" y1="296.5794" y2="307.5794"/><ellipse cx="384.75" cy="296.5794" fill="none" rx="4" ry="4" style="stroke:#181818;stroke-width:1.0;"/><line style="stroke:#181818;stroke-width:1.0;" x1="388.75" x2="380.75" y1="303.5794" y2="303.5794"/><text fill="#000000" font-family="sans-serif" font-size="13" lengthAdjust="spacing" textLength="59.979" x="324.75" y="274.2345">has profile</text></g><!--link drivers to vehicles--><g id="link_drivers_vehicles"><path codeLine="103" d="M366.75,517.9094 C366.75,537.2994 366.75,531.6894 366.75,551.3494 " fill="none" id="drivers-vehicles" style="stroke:#181818;stroke-width:1.0;"/><line style="stroke:#181818;stroke-width:1.0;" x1="362.75" x2="370.75" y1="513.9094" y2="513.9094"/><line style="stroke:#181818;stroke-width:1.0;" x1="362.75" x2="370.75" y1="516.9094" y2="516.9094"/><line style="stroke:#181818;stroke-width:1.0;" x1="366.75" x2="366.75" y1="517.9094" y2="509.9094"/><line style="stroke:#181818;stroke-width:1.0;" x1="366.75" x2="372.75" y1="561.3494" y2="569.3494"/><line style="stroke:#181818;stroke-width:1.0;" x1="366.75" x2="360.75" y1="561.3494" y2="569.3494"/><line style="stroke:#181818;stroke-width:1.0;" x1="366.75" x2="366.75" y1="561.3494" y2="569.3494"/><ellipse cx="366.75" cy="555.3494" fill="none" rx="4" ry="4" style="stroke:#181818;stroke-width:1.0;"/><text fill="#000000" font-family="sans-serif" font-size="13" lengthAdjust="spacing" textLength="50.5908" x="315.75" y="536.1245">operates</text></g><!--link tenants to vehicles--><g id="link_tenants_vehicles"><path codeLine="104" d="M606.5,491.3794 C606.5,518.0094 606.5,522.5894 606.5,551.5594 " fill="none" id="tenants-vehicles" style="stroke:#181818;stroke-width:1.0;"/><line style="stroke:#181818;stroke-width:1.0;" x1="602.5" x2="610.5" y1="487.3794" y2="487.3794"/><line style="stroke:#181818;stroke-width:1.0;" x1="602.5" x2="610.5" y1="490.3794" y2="490.3794"/><line style="stroke:#181818;stroke-width:1.0;" x1="606.5" x2="606.5" y1="491.3794" y2="483.3794"/><line style="stroke:#181818;stroke-width:1.0;" x1="606.5" x2="612.5" y1="561.5594" y2="569.5594"/><line style="stroke:#181818;stroke-width:1.0;" x1="606.5" x2="600.5" y1="561.5594" y2="569.5594"/><line style="stroke:#181818;stroke-width:1.0;" x1="606.5" x2="606.5" y1="561.5594" y2="569.5594"/><ellipse cx="606.5" cy="555.5594" fill="none" rx="4" ry="4" style="stroke:#181818;stroke-width:1.0;"/><text fill="#000000" font-family="sans-serif" font-size="13" lengthAdjust="spacing" textLength="58.5317" x="547.5" y="522.9645">owns fleet</text></g><!--link users to rides--><g id="link_users_rides"><path codeLine="105" d="M697.57,146.6094 C744.08,146.6094 773,146.6094 773,146.6094 C773,146.6094 773,576.6994 773,831.3794 " fill="none" id="users-rides" style="stroke:#181818;stroke-width:1.0;"/><line style="stroke:#181818;stroke-width:1.0;" x1="693.57" x2="693.57" y1="150.6094" y2="142.6094"/><line style="stroke:#181818;stroke-width:1.0;" x1="696.57" x2="696.57" y1="150.6094" y2="142.6094"/><line style="stroke:#181818;stroke-width:1.0;" x1="697.57" x2="689.57" y1="146.6094" y2="146.6094"/><line style="stroke:#181818;stroke-width:1.0;" x1="773" x2="779" y1="841.3794" y2="849.3794"/><line style="stroke:#181818;stroke-width:1.0;" x1="773" x2="767" y1="841.3794" y2="849.3794"/><line style="stroke:#181818;stroke-width:1.0;" x1="773" x2="773" y1="841.3794" y2="849.3794"/><ellipse cx="773" cy="835.3794" fill="none" rx="4" ry="4" style="stroke:#181818;stroke-width:1.0;"/><text fill="#000000" font-family="sans-serif" font-size="13" lengthAdjust="spacing" textLength="72.9663" x="774" y="452.7745">books (rider)</text></g><!--link drivers to rides--><g id="link_drivers_rides"><path codeLine="106" d="M234,517.7494 C234,609.9194 234,721.9494 234,831.3794 " fill="none" id="drivers-rides" style="stroke:#181818;stroke-width:1.0;"/><line style="stroke:#181818;stroke-width:1.0;" x1="230" x2="238" y1="513.7494" y2="513.7494"/><line style="stroke:#181818;stroke-width:1.0;" x1="230" x2="238" y1="516.7494" y2="516.7494"/><line style="stroke:#181818;stroke-width:1.0;" x1="234" x2="234" y1="517.7494" y2="509.7494"/><line style="stroke:#181818;stroke-width:1.0;" x1="234" x2="240" y1="841.3794" y2="849.3794"/><line style="stroke:#181818;stroke-width:1.0;" x1="234" x2="228" y1="841.3794" y2="849.3794"/><line style="stroke:#181818;stroke-width:1.0;" x1="234" x2="234" y1="841.3794" y2="849.3794"/><ellipse cx="234" cy="835.3794" fill="none" rx="4" ry="4" style="stroke:#181818;stroke-width:1.0;"/><text fill="#000000" font-family="sans-serif" font-size="13" lengthAdjust="spacing" textLength="96.8081" x="137" y="676.0645">executes (driver)</text></g><!--link vehicles to rides--><g id="link_vehicles_rides"><path codeLine="107" d="M503.5,798.0094 C503.5,817.0094 503.5,811.1594 503.5,831.3194 " fill="none" id="vehicles-rides" style="stroke:#181818;stroke-width:1.0;"/><line style="stroke:#181818;stroke-width:1.0;" x1="499.5" x2="507.5" y1="794.0094" y2="794.0094"/><line style="stroke:#181818;stroke-width:1.0;" x1="499.5" x2="507.5" y1="797.0094" y2="797.0094"/><line style="stroke:#181818;stroke-width:1.0;" x1="503.5" x2="503.5" y1="798.0094" y2="790.0094"/><line style="stroke:#181818;stroke-width:1.0;" x1="503.5" x2="509.5" y1="841.3194" y2="849.3194"/><line style="stroke:#181818;stroke-width:1.0;" x1="503.5" x2="497.5" y1="841.3194" y2="849.3194"/><line style="stroke:#181818;stroke-width:1.0;" x1="503.5" x2="503.5" y1="841.3194" y2="849.3194"/><ellipse cx="503.5" cy="835.3194" fill="none" rx="4" ry="4" style="stroke:#181818;stroke-width:1.0;"/><text fill="#000000" font-family="sans-serif" font-size="13" lengthAdjust="spacing" textLength="96.1162" x="406.5" y="816.1645">assigned vehicle</text></g><!--link rides to ride_stops--><g id="link_rides_ride_stops"><path codeLine="108" d="M363.75,1200.7194 C363.75,1221.1994 363.75,1225.5794 363.75,1244.5994 " fill="none" id="rides-ride_stops" style="stroke:#181818;stroke-width:1.0;"/><line style="stroke:#181818;stroke-width:1.0;" x1="359.75" x2="367.75" y1="1196.7194" y2="1196.7194"/><line style="stroke:#181818;stroke-width:1.0;" x1="359.75" x2="367.75" y1="1199.7194" y2="1199.7194"/><line style="stroke:#181818;stroke-width:1.0;" x1="363.75" x2="363.75" y1="1200.7194" y2="1192.7194"/><line style="stroke:#181818;stroke-width:1.0;" x1="363.75" x2="369.75" y1="1244.5994" y2="1252.5994"/><line style="stroke:#181818;stroke-width:1.0;" x1="363.75" x2="357.75" y1="1244.5994" y2="1252.5994"/><line style="stroke:#181818;stroke-width:1.0;" x1="363.75" x2="363.75" y1="1244.5994" y2="1252.5994"/><line style="stroke:#181818;stroke-width:1.0;" x1="367.75" x2="359.75" y1="1242.5994" y2="1242.5994"/><text fill="#000000" font-family="sans-serif" font-size="13" lengthAdjust="spacing" textLength="61.4136" x="301.75" y="1219.1545">consists of</text></g><!--link rides to ride_reviews--><g id="link_rides_ride_reviews"><path codeLine="109" d="M691.5,1200.7194 C691.5,1224.3794 691.5,1221.8894 691.5,1243.3394 " fill="none" id="rides-ride_reviews" style="stroke:#181818;stroke-width:1.0;"/><line style="stroke:#181818;stroke-width:1.0;" x1="687.5" x2="695.5" y1="1196.7194" y2="1196.7194"/><line style="stroke:#181818;stroke-width:1.0;" x1="687.5" x2="695.5" y1="1199.7194" y2="1199.7194"/><line style="stroke:#181818;stroke-width:1.0;" x1="691.5" x2="691.5" y1="1200.7194" y2="1192.7194"/><line style="stroke:#181818;stroke-width:1.0;" x1="691.5" x2="697.5" y1="1253.3394" y2="1261.3394"/><line style="stroke:#181818;stroke-width:1.0;" x1="691.5" x2="685.5" y1="1253.3394" y2="1261.3394"/><line style="stroke:#181818;stroke-width:1.0;" x1="691.5" x2="691.5" y1="1253.3394" y2="1261.3394"/><ellipse cx="691.5" cy="1247.3394" fill="none" rx="4" ry="4" style="stroke:#181818;stroke-width:1.0;"/><text fill="#000000" font-family="sans-serif" font-size="13" lengthAdjust="spacing" textLength="46.9727" x="644.5" y="1223.5245">rated by</text></g><!--SRC=[hLPjR-8u4FwUNs7ngQoWkjBjQRLQhKH9wEKA2HkWkhtJAJB901PEdBETjgYz_twJDvAMb_BX-4BYUIOUFpFFZDSi118m6N0mr8R52PKq8fp5eBS9427rMXY6Pfe36GW9n0DEDHCnvSIacYwe0c9vn6HqbNbUJ8JIAmdJ7wEsOK2CdblIIXL8rI9KaVo9l1W4Vvy82ybNCf_R9ldsRNB__Nk-tEsMrcGjOl3ZD5g0HDn3tnlyrlSkhdjjXCyT-yVSAbq-4OWeumrGx-QcNPgMAUT-J2DecAzwNogp51pUVRtR9PF-T6evTvRN8QPdFsJ_VNDiEvKJSX2lVFguGbTdFhOyUt1ntUcrtze3aSOQ4ROpi_1RrQcLJmFD7hDjRrrtPFMhpmOIg8RGfvdJp1vRqrb_F9dzQVnRSnbAz9H-8iMISIXOBTREvJNBWT-43EztF78MGAmEiFxhv-ficstWAqrrgWxGPZccxTmXMPE9vpvOPeTurk_MO6QPLLBfLgGQ2SYvAS8ua9KWbH9Fx3_2cc5j7WjNhTbI7ut67Gv7jcDrYEiK_xVpwS_I4mE0HDCu01-J1OqqtjHf338xBmh-8AoHbpBI8Y7LovaP4KynfgJCx96ZBZc0zZN4jABjUFOINiHwKZ8HtS3114SY17xGiWKgzyev45oyqsTfqLIovT8FE5K7icCDNCST_-oGWJiUkjuiJm-cQJgjTO9yi2M3iA6K1kKIcrV1T_vqRbl1Q21U7MVwT1u-giWZjMXw_U4iKmEcO3hBXD4VZTn1Ft-q7H_bSkVXsNCw9YCBroylBpyaijerbIlmevHhbd2M2xUgqyzrEOFIBCeRp9BAPYrV_LA3bWnx-ob08SrWsmoaNQixocGR0SwDiEQeCgl4NmiU7fLzme9DYfXhNuBwqiJisdaeHIAGZ5COJ88ys4UhYeqI3gS0P_JXhEImyuYahi3YzSmop1sE5f58V0N_fCWpx0akj-RZUR__seFx-IIRMUu4krydz_J6bcbZeLLD0jkPJiFCstJdjoEBJ3nhO4zjjnf3NCIh3o0q395zXVteEUV8-cDMfP3JE4RkGDE3tEBeIx70gCnKTWR54XuPF3L8BXV-1vffYbKg_LFpK4B04fQLz2cK2aGkb-aOHOsKPwcukhoygIG542veiF4rNQctZVMll-kQp9MpJ-WvnLYC1UKlUekSgFBzJ8uoFT1uU-AIfEdpMytMCm732vdsEOkORdQCNjqn5eppx3fquf9swf35dV7rjTiLhxkhpbVIMkD1osjGowZMSzXBFO0H9nB8PhTg6HKjXq1FiIfcRAkvuKivMX2n46AZo4NsBjjx6-vWy0n1YhkHYmA1qDq-xx7OpjaAnL95qZ8AKuPxVMds50G78bPCOVHYsSILtzl90f7PQKEosBQC_m00]--></g></svg>