<svg xmlns="http://www.w3.org/2000/svg" xmlns:xlink="http://www.w3.org/1999/xlink" contentStyleType="text/css" height="302px" preserveAspectRatio="none" style="width:1673px;height:302px;background:#FFFFFF;" version="1.1" viewBox="0 0 1673 302" width="1673px" zoomAndPan="magnify"><defs/><g><text fill="#000000" font-family="sans-serif" font-size="14" font-weight="bold" lengthAdjust="spacing" textLength="236.8037" x="7" y="19.9951">CRITICAL P0 INCIDENT ACTIVE</text><text fill="#000000" font-family="sans-serif" font-size="12" lengthAdjust="spacing" textLength="78.7148" x="1388.2695" y="18.1387">Ride #77218</text><text fill="#000000" font-family="sans-serif" font-size="12" lengthAdjust="spacing" textLength="152.5723" x="1511.752" y="18.1387">SOS Triggered 14:22:15Z</text><text fill="#000000" font-family="sans-serif" font-size="12" lengthAdjust="spacing" textLength="274.0137" x="7" y="36.4355">High-G Crash Sensor Detected (8.4 G Impact)</text><text fill="#000000" font-family="sans-serif" font-size="12" lengthAdjust="spacing" textLength="121.4824" x="1388.2695" y="36.4355">SFO Airport Corridor</text><text fill="#000000" font-family="sans-serif" font-size="12" lengthAdjust="spacing" textLength="108.1934" x="1511.752" y="36.4355">Priority Escalation</text><text fill="#000000" font-family="sans-serif" font-size="14" font-weight="bold" lengthAdjust="spacing" textLength="295.5723" x="8" y="71.2295">Multi-Pane Incident Command Center</text><text fill="#000000" font-family="sans-serif" font-size="14" font-weight="bold" lengthAdjust="spacing" textLength="281.7432" x="9" y="90.5264">Telemetry &amp; Spatial Tracking (50%)</text><text fill="#000000" font-family="sans-serif" font-size="12" lengthAdjust="spacing" textLength="215.7188" x="10" y="107.9668">Live Vector Map @ 10 Hz Telemetry</text><text fill="#000000" font-family="sans-serif" font-size="12" lengthAdjust="spacing" textLength="103.2949" x="10" y="123.9355">Snapped Polyline</text><text fill="#000000" font-family="sans-serif" font-size="12" lengthAdjust="spacing" textLength="286.2012" x="227.7188" y="123.9355">Vehicle: 37.78972, -122.40015 (Speed: 0 km/h)</text><line style="stroke:#000000;stroke-width:1.0;" x1="9" x2="226.7188" y1="95.8281" y2="95.8281"/><line style="stroke:#000000;stroke-width:1.0;" x1="226.7188" x2="514.9199" y1="95.8281" y2="95.8281"/><line style="stroke:#000000;stroke-width:1.0;" x1="9" x2="226.7188" y1="127.7656" y2="127.7656"/><line style="stroke:#000000;stroke-width:1.0;" x1="226.7188" x2="514.9199" y1="127.7656" y2="127.7656"/><line style="stroke:#000000;stroke-width:1.0;" x1="9" x2="9" y1="95.8281" y2="111.7969"/><line style="stroke:#000000;stroke-width:1.0;" x1="514.9199" x2="514.9199" y1="111.7969" y2="127.7656"/><line style="stroke:#000000;stroke-width:1.0;" x1="514.9199" x2="514.9199" y1="95.8281" y2="111.7969"/><line style="stroke:#000000;stroke-width:1.0;" x1="9" x2="9" y1="111.7969" y2="127.7656"/><rect fill="none" height="31.9375" style="stroke:#000000;stroke-width:1.0;" width="15" x="518.9199" y="95.8281"/><line style="stroke:#000000;stroke-width:1.0;" x1="518.9199" x2="533.9199" y1="107.8281" y2="107.8281"/><line style="stroke:#000000;stroke-width:1.0;" x1="518.9199" x2="533.9199" y1="115.7656" y2="115.7656"/><path d="M525.9199,99.8281 L528.9199,104.8281 L522.9199,104.8281 L525.9199,99.8281 " fill="#000000" style="stroke:#000000;stroke-width:1.0;"/><path d="M525.9199,124.7656 L528.9199,119.7656 L522.9199,119.7656 L525.9199,124.7656 " fill="#000000" style="stroke:#000000;stroke-width:1.0;"/><line style="stroke:#AAAAAA;stroke-width:1.0;" x1="9" x2="545.9199" y1="133.2656" y2="133.2656"/><text fill="#000000" font-family="sans-serif" font-size="12" lengthAdjust="spacing" textLength="218.6367" x="9" y="148.9043">IMU Accelerometer Telemetry Curve</text><text fill="#000000" font-family="sans-serif" font-size="12" lengthAdjust="spacing" textLength="151.1602" x="9" y="164.873">Impact Vector: Front-Left</text><text fill="#000000" font-family="sans-serif" font-size="12" lengthAdjust="spacing" textLength="146.6777" x="546.9199" y="164.873">Peak 8.4 G @ 14:22:14Z</text><text fill="#000000" font-family="sans-serif" font-size="12" lengthAdjust="spacing" textLength="127.1074" x="695.5977" y="164.873">Post-crash stationary</text><line style="stroke:#000000;stroke-width:1.0;" x1="8" x2="545.9199" y1="76.5313" y2="76.5313"/><line style="stroke:#000000;stroke-width:1.0;" x1="545.9199" x2="694.5977" y1="76.5313" y2="76.5313"/><line style="stroke:#000000;stroke-width:1.0;" x1="694.5977" x2="823.7051" y1="76.5313" y2="76.5313"/><line style="stroke:#000000;stroke-width:1.0;" x1="8" x2="545.9199" y1="168.7031" y2="168.7031"/><line style="stroke:#000000;stroke-width:1.0;" x1="545.9199" x2="694.5977" y1="168.7031" y2="168.7031"/><line style="stroke:#000000;stroke-width:1.0;" x1="694.5977" x2="823.7051" y1="168.7031" y2="168.7031"/><line style="stroke:#000000;stroke-width:1.0;" x1="8" x2="8" y1="76.5313" y2="94.8281"/><line style="stroke:#000000;stroke-width:1.0;" x1="823.7051" x2="823.7051" y1="136.7656" y2="152.7344"/><line style="stroke:#000000;stroke-width:1.0;" x1="823.7051" x2="823.7051" y1="128.7656" y2="136.7656"/><line style="stroke:#000000;stroke-width:1.0;" x1="823.7051" x2="823.7051" y1="94.8281" y2="128.7656"/><line style="stroke:#000000;stroke-width:1.0;" x1="823.7051" x2="823.7051" y1="76.5313" y2="94.8281"/><line style="stroke:#000000;stroke-width:1.0;" x1="8" x2="8" y1="152.7344" y2="168.7031"/><line style="stroke:#000000;stroke-width:1.0;" x1="8" x2="8" y1="136.7656" y2="152.7344"/><line style="stroke:#000000;stroke-width:1.0;" x1="8" x2="8" y1="128.7656" y2="136.7656"/><line style="stroke:#000000;stroke-width:1.0;" x1="8" x2="8" y1="94.8281" y2="128.7656"/><line style="stroke:#000000;stroke-width:1.0;" x1="823.7051" x2="823.7051" y1="152.7344" y2="168.7031"/><text fill="#000000" font-family="sans-serif" font-size="14" font-weight="bold" lengthAdjust="spacing" textLength="248.6094" x="826.7051" y="90.5264">Parties &amp; Incident Triage (50%)</text><text fill="#000000" font-family="sans-serif" font-size="12" font-weight="bold" lengthAdjust="spacing" textLength="40.7988" x="826.7051" y="106.9668">Rider:</text><text fill="#000000" font-family="sans-serif" font-size="12" lengthAdjust="spacing" textLength="157.5762" x="871.3184" y="106.9668">Sarah K. (+14155551234)</text><text fill="#000000" font-family="sans-serif" font-size="12" lengthAdjust="spacing" textLength="61.6875" x="1149.3359" y="106.9668">Contacted</text><text fill="#000000" font-family="sans-serif" font-size="12" font-weight="bold" lengthAdjust="spacing" textLength="46.6699" x="826.7051" y="122.9355">Driver:</text><text fill="#000000" font-family="sans-serif" font-size="12" lengthAdjust="spacing" textLength="61.9277" x="877.1895" y="122.9355">Michael R.</text><text fill="#000000" font-family="sans-serif" font-size="12" lengthAdjust="spacing" textLength="151.9336" x="1149.3359" y="122.9355">Toyota Camry (7XYZ912)</text><line style="stroke:#AAAAAA;stroke-width:1.0;" x1="826.7051" x2="1148.3359" y1="131.2656" y2="131.2656"/><text fill="#000000" font-family="sans-serif" font-size="12" font-weight="bold" lengthAdjust="spacing" textLength="130.9277" x="826.7051" y="146.9043">3-Way VoIP Bridge:</text><rect fill="#EEEEEE" height="17.9688" rx="5" ry="5" style="stroke:#000000;stroke-width:2.5;" width="92" x="829.2051" y="154.2344"/><text fill="#000000" font-family="sans-serif" font-size="12" lengthAdjust="spacing" textLength="74.8418" x="837.7842" y="167.373">Operator OK</text><rect fill="#EEEEEE" height="17.9688" rx="5" ry="5" style="stroke:#000000;stroke-width:2.5;" width="108" x="1151.8359" y="154.2344"/><text fill="#000000" font-family="sans-serif" font-size="12" lengthAdjust="spacing" textLength="85.4531" x="1163.1094" y="167.373">Rider OFFLINE</text><rect fill="#EEEEEE" height="17.9688" rx="5" ry="5" style="stroke:#000000;stroke-width:2.5;" width="76" x="1305.7695" y="154.2344"/><text fill="#000000" font-family="sans-serif" font-size="12" lengthAdjust="spacing" textLength="58.0547" x="1314.7422" y="167.373">Driver OK</text><text fill="#000000" font-family="sans-serif" font-size="12" lengthAdjust="spacing" textLength="253.5527" x="826.7051" y="187.8418">Cabin audio recording enabled &amp; archived</text><line style="stroke:#AAAAAA;stroke-width:1.0;" x1="826.7051" x2="1148.3359" y1="196.1719" y2="196.1719"/><rect fill="#EEEEEE" height="17.9688" rx="5" ry="5" style="stroke:#000000;stroke-width:2.5;" width="308" x="829.2051" y="203.1719"/><text fill="#000000" font-family="sans-serif" font-size="12" font-weight="bold" lengthAdjust="spacing" textLength="254.8008" x="855.8047" y="216.3105">PUSH LIVE GPS TO POLICE / 911 PSAP</text><text fill="#000000" font-family="sans-serif" font-size="12" lengthAdjust="spacing" textLength="320.6309" x="826.7051" y="236.7793">Transmits real-time cryptographic tracking token link</text><line style="stroke:#000000;stroke-width:1.0;" x1="825.7051" x2="1148.3359" y1="76.5313" y2="76.5313"/><line style="stroke:#000000;stroke-width:1.0;" x1="1148.3359" x2="1302.2695" y1="76.5313" y2="76.5313"/><line style="stroke:#000000;stroke-width:1.0;" x1="1302.2695" x2="1385.2695" y1="76.5313" y2="76.5313"/><line style="stroke:#000000;stroke-width:1.0;" x1="825.7051" x2="1148.3359" y1="240.6094" y2="240.6094"/><line style="stroke:#000000;stroke-width:1.0;" x1="1148.3359" x2="1302.2695" y1="240.6094" y2="240.6094"/><line style="stroke:#000000;stroke-width:1.0;" x1="1302.2695" x2="1385.2695" y1="240.6094" y2="240.6094"/><line style="stroke:#000000;stroke-width:1.0;" x1="825.7051" x2="825.7051" y1="76.5313" y2="94.8281"/><line style="stroke:#000000;stroke-width:1.0;" x1="1385.2695" x2="1385.2695" y1="110.7969" y2="126.7656"/><line style="stroke:#000000;stroke-width:1.0;" x1="1385.2695" x2="1385.2695" y1="76.5313" y2="94.8281"/><line style="stroke:#000000;stroke-width:1.0;" x1="825.7051" x2="825.7051" y1="224.6406" y2="240.6094"/><line style="stroke:#000000;stroke-width:1.0;" x1="825.7051" x2="825.7051" y1="191.6719" y2="199.6719"/><line style="stroke:#000000;stroke-width:1.0;" x1="1385.2695" x2="1385.2695" y1="224.6406" y2="240.6094"/><line style="stroke:#000000;stroke-width:1.0;" x1="825.7051" x2="825.7051" y1="150.7344" y2="175.7031"/><line style="stroke:#000000;stroke-width:1.0;" x1="1385.2695" x2="1385.2695" y1="191.6719" y2="199.6719"/><line style="stroke:#000000;stroke-width:1.0;" x1="825.7051" x2="825.7051" y1="126.7656" y2="134.7656"/><line style="stroke:#000000;stroke-width:1.0;" x1="1385.2695" x2="1385.2695" y1="150.7344" y2="175.7031"/><line style="stroke:#000000;stroke-width:1.0;" x1="825.7051" x2="825.7051" y1="94.8281" y2="110.7969"/><line style="stroke:#000000;stroke-width:1.0;" x1="1385.2695" x2="1385.2695" y1="126.7656" y2="134.7656"/><line style="stroke:#000000;stroke-width:1.0;" x1="1385.2695" x2="1385.2695" y1="94.8281" y2="110.7969"/><line style="stroke:#000000;stroke-width:1.0;" x1="825.7051" x2="825.7051" y1="199.6719" y2="224.6406"/><line style="stroke:#000000;stroke-width:1.0;" x1="825.7051" x2="825.7051" y1="175.7031" y2="191.6719"/><line style="stroke:#000000;stroke-width:1.0;" x1="1385.2695" x2="1385.2695" y1="199.6719" y2="224.6406"/><line style="stroke:#000000;stroke-width:1.0;" x1="825.7051" x2="825.7051" y1="134.7656" y2="150.7344"/><line style="stroke:#000000;stroke-width:1.0;" x1="1385.2695" x2="1385.2695" y1="175.7031" y2="191.6719"/><line style="stroke:#000000;stroke-width:1.0;" x1="825.7051" x2="825.7051" y1="110.7969" y2="126.7656"/><line style="stroke:#000000;stroke-width:1.0;" x1="1385.2695" x2="1385.2695" y1="134.7656" y2="150.7344"/><line style="stroke:#000000;stroke-width:1.0;" x1="7" x2="824.7051" y1="57.2344" y2="57.2344"/><line style="stroke:#000000;stroke-width:1.0;" x1="824.7051" x2="1386.2695" y1="57.2344" y2="57.2344"/><line style="stroke:#000000;stroke-width:1.0;" x1="7" x2="824.7051" y1="241.6094" y2="241.6094"/><line style="stroke:#000000;stroke-width:1.0;" x1="824.7051" x2="1386.2695" y1="241.6094" y2="241.6094"/><line style="stroke:#000000;stroke-width:1.0;" x1="7" x2="7" y1="57.2344" y2="75.5313"/><line style="stroke:#000000;stroke-width:1.0;" x1="1386.2695" x2="1386.2695" y1="75.5313" y2="241.6094"/><line style="stroke:#000000;stroke-width:1.0;" x1="1386.2695" x2="1386.2695" y1="57.2344" y2="75.5313"/><line style="stroke:#000000;stroke-width:1.0;" x1="7" x2="7" y1="75.5313" y2="241.6094"/><text fill="#000000" font-family="sans-serif" font-size="14" font-weight="bold" lengthAdjust="spacing" textLength="189.0137" x="8" y="273.5732">Compliance &amp; Audit Log</text><text fill="#000000" font-family="sans-serif" font-size="12" lengthAdjust="spacing" textLength="555.9141" x="8" y="290.0137">14:22:15Z SOS Signal Ingested -&gt; 14:22:18Z Operator Assigned -&gt; 14:22:24Z PSAP Notified</text><line style="stroke:#000000;stroke-width:1.0;" x1="7" x2="564.9141" y1="259.5781" y2="259.5781"/><line style="stroke:#000000;stroke-width:1.0;" x1="7" x2="564.9141" y1="293.8438" y2="293.8438"/><line style="stroke:#000000;stroke-width:1.0;" x1="7" x2="7" y1="259.5781" y2="277.875"/><line style="stroke:#000000;stroke-width:1.0;" x1="564.9141" x2="564.9141" y1="277.875" y2="293.8438"/><line style="stroke:#000000;stroke-width:1.0;" x1="564.9141" x2="564.9141" y1="259.5781" y2="277.875"/><line style="stroke:#000000;stroke-width:1.0;" x1="7" x2="7" y1="277.875" y2="293.8438"/><line style="stroke:#000000;stroke-width:1.0;" x1="6" x2="1387.2695" y1="6" y2="6"/><line style="stroke:#000000;stroke-width:1.0;" x1="1510.752" x2="1665.3242" y1="40.2656" y2="40.2656"/><line style="stroke:#000000;stroke-width:1.0;" x1="1387.2695" x2="1510.752" y1="6" y2="6"/><line style="stroke:#000000;stroke-width:1.0;" x1="1510.752" x2="1665.3242" y1="6" y2="6"/><line style="stroke:#000000;stroke-width:1.0;" x1="6" x2="1387.2695" y1="258.5781" y2="258.5781"/><line style="stroke:#000000;stroke-width:1.0;" x1="6" x2="1387.2695" y1="56.2344" y2="56.2344"/><line style="stroke:#000000;stroke-width:1.0;" x1="6" x2="1387.2695" y1="24.2969" y2="24.2969"/><line style="stroke:#000000;stroke-width:1.0;" x1="1387.2695" x2="1510.752" y1="24.2969" y2="24.2969"/><line style="stroke:#000000;stroke-width:1.0;" x1="1510.752" x2="1665.3242" y1="24.2969" y2="24.2969"/><line style="stroke:#000000;stroke-width:1.0;" x1="6" x2="1387.2695" y1="294.8438" y2="294.8438"/><line style="stroke:#000000;stroke-width:1.0;" x1="1387.2695" x2="1510.752" y1="294.8438" y2="294.8438"/><line style="stroke:#000000;stroke-width:1.0;" x1="1510.752" x2="1665.3242" y1="294.8438" y2="294.8438"/><line style="stroke:#000000;stroke-width:1.0;" x1="6" x2="1387.2695" y1="242.6094" y2="242.6094"/><line style="stroke:#000000;stroke-width:1.0;" x1="6" x2="1387.2695" y1="40.2656" y2="40.2656"/><line style="stroke:#000000;stroke-width:1.0;" x1="1387.2695" x2="1510.752" y1="40.2656" y2="40.2656"/><line style="stroke:#000000;stroke-width:1.0;" x1="6" x2="6" y1="6" y2="24.2969"/><line style="stroke:#000000;stroke-width:1.0;" x1="1665.3242" x2="1665.3242" y1="40.2656" y2="56.2344"/><line style="stroke:#000000;stroke-width:1.0;" x1="1387.2695" x2="1387.2695" y1="6" y2="24.2969"/><line style="stroke:#000000;stroke-width:1.0;" x1="1510.752" x2="1510.752" y1="6" y2="24.2969"/><line style="stroke:#000000;stroke-width:1.0;" x1="1665.3242" x2="1665.3242" y1="6" y2="24.2969"/><line style="stroke:#000000;stroke-width:1.0;" x1="6" x2="6" y1="258.5781" y2="294.8438"/><line style="stroke:#000000;stroke-width:1.0;" x1="1387.2695" x2="1387.2695" y1="258.5781" y2="294.8438"/><line style="stroke:#000000;stroke-width:1.0;" x1="6" x2="6" y1="56.2344" y2="242.6094"/><line style="stroke:#000000;stroke-width:1.0;" x1="1665.3242" x2="1665.3242" y1="258.5781" y2="294.8438"/><line style="stroke:#000000;stroke-width:1.0;" x1="1387.2695" x2="1387.2695" y1="56.2344" y2="242.6094"/><line style="stroke:#000000;stroke-width:1.0;" x1="6" x2="6" y1="24.2969" y2="40.2656"/><line style="stroke:#000000;stroke-width:1.0;" x1="1665.3242" x2="1665.3242" y1="56.2344" y2="242.6094"/><line style="stroke:#000000;stroke-width:1.0;" x1="1387.2695" x2="1387.2695" y1="24.2969" y2="40.2656"/><line style="stroke:#000000;stroke-width:1.0;" x1="1510.752" x2="1510.752" y1="24.2969" y2="40.2656"/><line style="stroke:#000000;stroke-width:1.0;" x1="1665.3242" x2="1665.3242" y1="24.2969" y2="40.2656"/><line style="stroke:#000000;stroke-width:1.0;" x1="6" x2="6" y1="242.6094" y2="258.5781"/><line style="stroke:#000000;stroke-width:1.0;" x1="1387.2695" x2="1387.2695" y1="242.6094" y2="258.5781"/><line style="stroke:#000000;stroke-width:1.0;" x1="6" x2="6" y1="40.2656" y2="56.2344"/><line style="stroke:#000000;stroke-width:1.0;" x1="1665.3242" x2="1665.3242" y1="242.6094" y2="258.5781"/><line style="stroke:#000000;stroke-width:1.0;" x1="1387.2695" x2="1387.2695" y1="40.2656" y2="56.2344"/><line style="stroke:#000000;stroke-width:1.0;" x1="5" x2="1666.3242" y1="5" y2="5"/><line style="stroke:#000000;stroke-width:1.0;" x1="5" x2="1666.3242" y1="295.8438" y2="295.8438"/><line style="stroke:#000000;stroke-width:1.0;" x1="5" x2="5" y1="5" y2="295.8438"/><line style="stroke:#000000;stroke-width:1.0;" x1="1666.3242" x2="1666.3242" y1="5" y2="295.8438"/><rect fill="none" height="31.9375" style="stroke:#000000;stroke-width:1.0;" width="15" x="518.9199" y="95.8281"/><line style="stroke:#000000;stroke-width:1.0;" x1="518.9199" x2="533.9199" y1="107.8281" y2="107.8281"/><line style="stroke:#000000;stroke-width:1.0;" x1="518.9199" x2="533.9199" y1="115.7656" y2="115.7656"/><path d="M525.9199,99.8281 L528.9199,104.8281 L522.9199,104.8281 L525.9199,99.8281 " fill="#000000" style="stroke:#000000;stroke-width:1.0;"/><path d="M525.9199,124.7656 L528.9199,119.7656 L522.9199,119.7656 L525.9199,124.7656 " fill="#000000" style="stroke:#000000;stroke-width:1.0;"/><!--SRC=[TLDTJzim57tlhpZID5J2KfhGggKI4rre8Q8V4IbiAzg3IKrgDR4Zno1rqF- -cr3IRc9viEpShtFFFJTdYQdLNevgmCidEe2pCtWt_ipt-YC4JVWJpxyOJ6ReUpF_Re1Nt8W5nwTEntMwz0gd8MPQn37NV06drNFTdjEUbwckHBoqB-5fbYyHSfahZGjkU6J8jTvjj709FyrOP0wBJCCf-a9dIXjuIckn8FTN15eeBSmQWpnY2JD2oJ9vepnBv5lOuwV423jWaiEN4Q6KHQ8qPN81ZnvSRtshe39inXEUSgFNE42OKG6MK4SiMWaPezvkVZwil5z2lxe38_7CSKVT4Cunot0Efuchtxk4UxwXP5b6NGSgMIU24BvIv5942U_XfDFeT4yxxXVOZkisMiscqqOzp3XVzD34AZrUxY1igfjjszNT7z-Y7qLKM2igpVLULzwJVkOxpvBlBUmUXbf9Ou_ueocevco5jx6Slu-oDIyCAZTsL8unD-K8MDNTXkn_4nemRGJFYSvg3AGG5lD_sBIiGagwPra8cMPBN3TGFt9QJfi-nprf5Qhm21yh1BCNTg69-J9kBA8bumbk6kGwKsjb63oMKjVrpe-VyrF7FVoGByiwiR-pDUwK7-0RIItcbAuotqyphbanr-drByfyNmB5T3WS-PD1-USDGs6leZps82JOqq8eQ1uflIWKn2LxI6Zo1s0wMbBGuaD4zvOLt8PN61LBTXdGKaqHJ4U-Dy0nJXq7GTWFB6jNZIGgyrIOd6gnn3OYvOZqEZCgrYmZQS6yYzYe5PSWsQrg-oBQ_6UFQ6UoH30PSGBTftOCHYhUsgiDBpS_5B6aTV5bpFDYgUslxmxTEIeI-tbEVljcbsHLD8I9Ck9HR3af06rgczeV]--></g></svg>