<svg xmlns="http://www.w3.org/2000/svg" xmlns:xlink="http://www.w3.org/1999/xlink" contentStyleType="text/css" height="397px" preserveAspectRatio="none" style="width:795px;height:397px;background:#FFFFFF;" version="1.1" viewBox="0 0 795 397" width="795px" zoomAndPan="magnify"><defs/><g><text fill="#000000" font-family="sans-serif" font-size="14" font-weight="bold" lengthAdjust="spacing" textLength="460.6875" x="6" y="18.9951">Passenger App - Route &amp; Tariff Selection (SCR-RIDER-002)</text><text fill="#000000" font-family="sans-serif" font-size="14" font-weight="bold" lengthAdjust="spacing" textLength="402.623" x="7" y="54.2607">Layer 1: Top Address &amp; Route Bar (Floating Island)</text><text fill="#000000" font-family="sans-serif" font-size="12" lengthAdjust="spacing" textLength="64.7695" x="7" y="70.7012">[A] Pickup:</text><text fill="#000000" font-family="sans-serif" font-size="12" lengthAdjust="spacing" textLength="175.4707" x="414.623" y="70.7012">555 Market St, San Francisco</text><line style="stroke:#000000;stroke-width:1.0;" x1="412.623" x2="671.623" y1="73.5313" y2="73.5313"/><line style="stroke:#000000;stroke-width:1.0;" x1="412.623" x2="412.623" y1="70.5313" y2="72.5313"/><line style="stroke:#000000;stroke-width:1.0;" x1="671.623" x2="671.623" y1="70.5313" y2="72.5313"/><text fill="#000000" font-family="sans-serif" font-size="12" lengthAdjust="spacing" textLength="70.377" x="7" y="88.6699">[B] Dropoff:</text><text fill="#000000" font-family="sans-serif" font-size="12" lengthAdjust="spacing" textLength="137.0801" x="414.623" y="88.6699">SFO Airport Terminal 2</text><line style="stroke:#000000;stroke-width:1.0;" x1="412.623" x2="671.623" y1="91.5" y2="91.5"/><line style="stroke:#000000;stroke-width:1.0;" x1="412.623" x2="412.623" y1="88.5" y2="90.5"/><line style="stroke:#000000;stroke-width:1.0;" x1="671.623" x2="671.623" y1="88.5" y2="90.5"/><rect fill="#EEEEEE" height="17.9688" rx="5" ry="5" style="stroke:#000000;stroke-width:2.5;" width="188" x="9.5" y="98"/><text fill="#000000" font-family="sans-serif" font-size="12" lengthAdjust="spacing" textLength="149.8535" x="28.5732" y="111.1387">+ Add Intermediate Stop</text><line style="stroke:#000000;stroke-width:1.0;" x1="6" x2="410.623" y1="40.2656" y2="40.2656"/><line style="stroke:#000000;stroke-width:1.0;" x1="410.623" x2="674.623" y1="40.2656" y2="40.2656"/><line style="stroke:#000000;stroke-width:1.0;" x1="6" x2="410.623" y1="119.4688" y2="119.4688"/><line style="stroke:#000000;stroke-width:1.0;" x1="410.623" x2="674.623" y1="119.4688" y2="119.4688"/><line style="stroke:#000000;stroke-width:1.0;" x1="6" x2="6" y1="40.2656" y2="58.5625"/><line style="stroke:#000000;stroke-width:1.0;" x1="674.623" x2="674.623" y1="76.5313" y2="94.5"/><line style="stroke:#000000;stroke-width:1.0;" x1="674.623" x2="674.623" y1="58.5625" y2="76.5313"/><line style="stroke:#000000;stroke-width:1.0;" x1="674.623" x2="674.623" y1="40.2656" y2="58.5625"/><line style="stroke:#000000;stroke-width:1.0;" x1="6" x2="6" y1="94.5" y2="119.4688"/><line style="stroke:#000000;stroke-width:1.0;" x1="6" x2="6" y1="76.5313" y2="94.5"/><line style="stroke:#000000;stroke-width:1.0;" x1="6" x2="6" y1="58.5625" y2="76.5313"/><line style="stroke:#000000;stroke-width:1.0;" x1="674.623" x2="674.623" y1="94.5" y2="119.4688"/><text fill="#000000" font-family="sans-serif" font-size="14" font-weight="bold" lengthAdjust="spacing" textLength="355.5645" x="7" y="151.4326">Layer 0: Full-Screen 3D Vector Map Viewport</text><text fill="#000000" font-family="sans-serif" font-size="12" lengthAdjust="spacing" textLength="135.4277" x="8" y="168.873">Route Polyline: 24 min</text><text fill="#000000" font-family="sans-serif" font-size="12" lengthAdjust="spacing" textLength="160.7109" x="145.4277" y="168.873">11.4 km (No traffic delays)</text><line style="stroke:#000000;stroke-width:1.0;" x1="7" x2="144.4277" y1="156.7344" y2="156.7344"/><line style="stroke:#000000;stroke-width:1.0;" x1="144.4277" x2="307.1387" y1="172.7031" y2="172.7031"/><line style="stroke:#000000;stroke-width:1.0;" x1="144.4277" x2="307.1387" y1="156.7344" y2="156.7344"/><line style="stroke:#000000;stroke-width:1.0;" x1="7" x2="144.4277" y1="172.7031" y2="172.7031"/><line style="stroke:#000000;stroke-width:1.0;" x1="7" x2="7" y1="156.7344" y2="172.7031"/><line style="stroke:#000000;stroke-width:1.0;" x1="307.1387" x2="307.1387" y1="156.7344" y2="172.7031"/><rect fill="none" height="15.9688" style="stroke:#000000;stroke-width:1.0;" width="15" x="311.1387" y="156.7344"/><line style="stroke:#000000;stroke-width:1.0;" x1="311.1387" x2="326.1387" y1="168.7344" y2="168.7344"/><line style="stroke:#000000;stroke-width:1.0;" x1="311.1387" x2="326.1387" y1="160.7031" y2="160.7031"/><path d="M318.1387,160.7344 L321.1387,165.7344 L315.1387,165.7344 L318.1387,160.7344 " fill="#000000" style="stroke:#000000;stroke-width:1.0;"/><path d="M318.1387,169.7031 L321.1387,164.7031 L315.1387,164.7031 L318.1387,169.7031 " fill="#000000" style="stroke:#000000;stroke-width:1.0;"/><line style="stroke:#000000;stroke-width:1.0;" x1="6" x2="363.5645" y1="137.4375" y2="137.4375"/><line style="stroke:#000000;stroke-width:1.0;" x1="6" x2="363.5645" y1="173.7031" y2="173.7031"/><line style="stroke:#000000;stroke-width:1.0;" x1="6" x2="6" y1="137.4375" y2="155.7344"/><line style="stroke:#000000;stroke-width:1.0;" x1="363.5645" x2="363.5645" y1="155.7344" y2="173.7031"/><line style="stroke:#000000;stroke-width:1.0;" x1="363.5645" x2="363.5645" y1="137.4375" y2="155.7344"/><line style="stroke:#000000;stroke-width:1.0;" x1="6" x2="6" y1="155.7344" y2="173.7031"/><text fill="#000000" font-family="sans-serif" font-size="14" font-weight="bold" lengthAdjust="spacing" textLength="236.8311" x="7" y="205.667">Layer 2: Sliding Bottom Sheet</text><text fill="#000000" font-family="sans-serif" font-size="14" font-weight="bold" lengthAdjust="spacing" textLength="281.2988" x="8" y="224.9639">Horizontal Tariff Selection Carousel</text><text fill="#000000" font-family="sans-serif" font-size="12" font-weight="bold" lengthAdjust="spacing" textLength="60.668" x="9" y="242.4043">Economy</text><text fill="#000000" font-family="sans-serif" font-size="12" font-weight="bold" lengthAdjust="spacing" textLength="46.3066" x="9" y="258.373">$18.50</text><text fill="#000000" font-family="sans-serif" font-size="12" lengthAdjust="spacing" textLength="65.1563" x="9" y="274.3418">1.3x Surge</text><text fill="#000000" font-family="sans-serif" font-size="12" lengthAdjust="spacing" textLength="61.0137" x="9" y="290.3105">3 min ETA</text><line style="stroke:#000000;stroke-width:1.0;" x1="8" x2="75.1563" y1="230.2656" y2="230.2656"/><line style="stroke:#000000;stroke-width:1.0;" x1="8" x2="75.1563" y1="294.1406" y2="294.1406"/><line style="stroke:#000000;stroke-width:1.0;" x1="8" x2="8" y1="230.2656" y2="246.2344"/><line style="stroke:#000000;stroke-width:1.0;" x1="75.1563" x2="75.1563" y1="246.2344" y2="262.2031"/><line style="stroke:#000000;stroke-width:1.0;" x1="75.1563" x2="75.1563" y1="230.2656" y2="246.2344"/><line style="stroke:#000000;stroke-width:1.0;" x1="8" x2="8" y1="278.1719" y2="294.1406"/><line style="stroke:#000000;stroke-width:1.0;" x1="8" x2="8" y1="262.2031" y2="278.1719"/><line style="stroke:#000000;stroke-width:1.0;" x1="75.1563" x2="75.1563" y1="278.1719" y2="294.1406"/><line style="stroke:#000000;stroke-width:1.0;" x1="8" x2="8" y1="246.2344" y2="262.2031"/><line style="stroke:#000000;stroke-width:1.0;" x1="75.1563" x2="75.1563" y1="262.2031" y2="278.1719"/><text fill="#000000" font-family="sans-serif" font-size="12" lengthAdjust="spacing" textLength="48.6152" x="292.2988" y="242.4043">Comfort</text><text fill="#000000" font-family="sans-serif" font-size="12" lengthAdjust="spacing" textLength="41.9883" x="292.2988" y="258.373">$24.00</text><text fill="#000000" font-family="sans-serif" font-size="12" lengthAdjust="spacing" textLength="88.4824" x="292.2988" y="274.3418">Extra Legroom</text><text fill="#000000" font-family="sans-serif" font-size="12" lengthAdjust="spacing" textLength="61.0137" x="292.2988" y="290.3105">5 min ETA</text><line style="stroke:#000000;stroke-width:1.0;" x1="291.2988" x2="381.7813" y1="230.2656" y2="230.2656"/><line style="stroke:#000000;stroke-width:1.0;" x1="291.2988" x2="381.7813" y1="294.1406" y2="294.1406"/><line style="stroke:#000000;stroke-width:1.0;" x1="291.2988" x2="291.2988" y1="230.2656" y2="246.2344"/><line style="stroke:#000000;stroke-width:1.0;" x1="381.7813" x2="381.7813" y1="246.2344" y2="262.2031"/><line style="stroke:#000000;stroke-width:1.0;" x1="381.7813" x2="381.7813" y1="230.2656" y2="246.2344"/><line style="stroke:#000000;stroke-width:1.0;" x1="291.2988" x2="291.2988" y1="278.1719" y2="294.1406"/><line style="stroke:#000000;stroke-width:1.0;" x1="291.2988" x2="291.2988" y1="262.2031" y2="278.1719"/><line style="stroke:#000000;stroke-width:1.0;" x1="381.7813" x2="381.7813" y1="278.1719" y2="294.1406"/><line style="stroke:#000000;stroke-width:1.0;" x1="291.2988" x2="291.2988" y1="246.2344" y2="262.2031"/><line style="stroke:#000000;stroke-width:1.0;" x1="381.7813" x2="381.7813" y1="262.2031" y2="278.1719"/><text fill="#000000" font-family="sans-serif" font-size="12" lengthAdjust="spacing" textLength="52.916" x="384.7813" y="242.4043">Business</text><text fill="#000000" font-family="sans-serif" font-size="12" lengthAdjust="spacing" textLength="41.9883" x="384.7813" y="258.373">$38.00</text><text fill="#000000" font-family="sans-serif" font-size="12" lengthAdjust="spacing" textLength="100.1836" x="384.7813" y="274.3418">Executive Sedan</text><text fill="#000000" font-family="sans-serif" font-size="12" lengthAdjust="spacing" textLength="61.0137" x="384.7813" y="290.3105">8 min ETA</text><line style="stroke:#000000;stroke-width:1.0;" x1="383.7813" x2="485.9648" y1="230.2656" y2="230.2656"/><line style="stroke:#000000;stroke-width:1.0;" x1="383.7813" x2="485.9648" y1="294.1406" y2="294.1406"/><line style="stroke:#000000;stroke-width:1.0;" x1="383.7813" x2="383.7813" y1="230.2656" y2="246.2344"/><line style="stroke:#000000;stroke-width:1.0;" x1="485.9648" x2="485.9648" y1="246.2344" y2="262.2031"/><line style="stroke:#000000;stroke-width:1.0;" x1="485.9648" x2="485.9648" y1="230.2656" y2="246.2344"/><line style="stroke:#000000;stroke-width:1.0;" x1="383.7813" x2="383.7813" y1="278.1719" y2="294.1406"/><line style="stroke:#000000;stroke-width:1.0;" x1="383.7813" x2="383.7813" y1="262.2031" y2="278.1719"/><line style="stroke:#000000;stroke-width:1.0;" x1="485.9648" x2="485.9648" y1="278.1719" y2="294.1406"/><line style="stroke:#000000;stroke-width:1.0;" x1="383.7813" x2="383.7813" y1="246.2344" y2="262.2031"/><line style="stroke:#000000;stroke-width:1.0;" x1="485.9648" x2="485.9648" y1="262.2031" y2="278.1719"/><text fill="#000000" font-family="sans-serif" font-size="12" lengthAdjust="spacing" textLength="55.5176" x="488.9648" y="242.4043">XL Group</text><text fill="#000000" font-family="sans-serif" font-size="12" lengthAdjust="spacing" textLength="41.9883" x="488.9648" y="258.373">$46.50</text><text fill="#000000" font-family="sans-serif" font-size="12" lengthAdjust="spacing" textLength="79.7637" x="488.9648" y="274.3418">6-Seater SUV</text><text fill="#000000" font-family="sans-serif" font-size="12" lengthAdjust="spacing" textLength="61.0137" x="488.9648" y="290.3105">6 min ETA</text><line style="stroke:#000000;stroke-width:1.0;" x1="487.9648" x2="569.7285" y1="230.2656" y2="230.2656"/><line style="stroke:#000000;stroke-width:1.0;" x1="487.9648" x2="569.7285" y1="294.1406" y2="294.1406"/><line style="stroke:#000000;stroke-width:1.0;" x1="487.9648" x2="487.9648" y1="230.2656" y2="246.2344"/><line style="stroke:#000000;stroke-width:1.0;" x1="569.7285" x2="569.7285" y1="246.2344" y2="262.2031"/><line style="stroke:#000000;stroke-width:1.0;" x1="569.7285" x2="569.7285" y1="230.2656" y2="246.2344"/><line style="stroke:#000000;stroke-width:1.0;" x1="487.9648" x2="487.9648" y1="278.1719" y2="294.1406"/><line style="stroke:#000000;stroke-width:1.0;" x1="487.9648" x2="487.9648" y1="262.2031" y2="278.1719"/><line style="stroke:#000000;stroke-width:1.0;" x1="569.7285" x2="569.7285" y1="278.1719" y2="294.1406"/><line style="stroke:#000000;stroke-width:1.0;" x1="487.9648" x2="487.9648" y1="246.2344" y2="262.2031"/><line style="stroke:#000000;stroke-width:1.0;" x1="569.7285" x2="569.7285" y1="262.2031" y2="278.1719"/><line style="stroke:#000000;stroke-width:1.0;" x1="7" x2="290.2988" y1="210.9688" y2="210.9688"/><line style="stroke:#000000;stroke-width:1.0;" x1="382.7813" x2="486.9648" y1="295.1406" y2="295.1406"/><line style="stroke:#000000;stroke-width:1.0;" x1="290.2988" x2="382.7813" y1="210.9688" y2="210.9688"/><line style="stroke:#000000;stroke-width:1.0;" x1="486.9648" x2="570.7285" y1="295.1406" y2="295.1406"/><line style="stroke:#000000;stroke-width:1.0;" x1="382.7813" x2="486.9648" y1="210.9688" y2="210.9688"/><line style="stroke:#000000;stroke-width:1.0;" x1="486.9648" x2="570.7285" y1="210.9688" y2="210.9688"/><line style="stroke:#000000;stroke-width:1.0;" x1="7" x2="290.2988" y1="295.1406" y2="295.1406"/><line style="stroke:#000000;stroke-width:1.0;" x1="290.2988" x2="382.7813" y1="295.1406" y2="295.1406"/><line style="stroke:#000000;stroke-width:1.0;" x1="7" x2="7" y1="210.9688" y2="229.2656"/><line style="stroke:#000000;stroke-width:1.0;" x1="570.7285" x2="570.7285" y1="229.2656" y2="295.1406"/><line style="stroke:#000000;stroke-width:1.0;" x1="570.7285" x2="570.7285" y1="210.9688" y2="229.2656"/><line style="stroke:#000000;stroke-width:1.0;" x1="7" x2="7" y1="229.2656" y2="295.1406"/><text fill="#000000" font-family="sans-serif" font-size="14" font-weight="bold" lengthAdjust="spacing" textLength="233.7617" x="8" y="327.1045">Payment Method &amp; Discounts</text><text fill="#000000" font-family="sans-serif" font-size="12" lengthAdjust="spacing" textLength="87.3164" x="8" y="343.5449">Visa **** 4242</text><rect fill="#EEEEEE" height="17.9688" rx="5" ry="5" style="stroke:#000000;stroke-width:2.5;" width="52" x="246.2617" y="334.9063"/><text fill="#000000" font-family="sans-serif" font-size="12" lengthAdjust="spacing" textLength="45.9434" x="249.29" y="348.0449">Change</text><text fill="#000000" font-family="sans-serif" font-size="12" lengthAdjust="spacing" textLength="181.8281" x="302.7617" y="343.5449">Promo: SUMMER2026 (-$5.00)</text><rect fill="#EEEEEE" height="17.9688" rx="5" ry="5" style="stroke:#000000;stroke-width:2.5;" width="100" x="489.0898" y="334.9063"/><text fill="#000000" font-family="sans-serif" font-size="12" lengthAdjust="spacing" textLength="76.7871" x="500.6963" y="348.0449">Ride Options</text><line style="stroke:#000000;stroke-width:1.0;" x1="7" x2="242.7617" y1="313.1094" y2="313.1094"/><line style="stroke:#000000;stroke-width:1.0;" x1="301.7617" x2="485.5898" y1="356.375" y2="356.375"/><line style="stroke:#000000;stroke-width:1.0;" x1="242.7617" x2="301.7617" y1="313.1094" y2="313.1094"/><line style="stroke:#000000;stroke-width:1.0;" x1="485.5898" x2="592.5898" y1="356.375" y2="356.375"/><line style="stroke:#000000;stroke-width:1.0;" x1="301.7617" x2="485.5898" y1="313.1094" y2="313.1094"/><line style="stroke:#000000;stroke-width:1.0;" x1="485.5898" x2="592.5898" y1="313.1094" y2="313.1094"/><line style="stroke:#000000;stroke-width:1.0;" x1="7" x2="242.7617" y1="356.375" y2="356.375"/><line style="stroke:#000000;stroke-width:1.0;" x1="242.7617" x2="301.7617" y1="356.375" y2="356.375"/><line style="stroke:#000000;stroke-width:1.0;" x1="7" x2="7" y1="313.1094" y2="331.4063"/><line style="stroke:#000000;stroke-width:1.0;" x1="592.5898" x2="592.5898" y1="331.4063" y2="356.375"/><line style="stroke:#000000;stroke-width:1.0;" x1="592.5898" x2="592.5898" y1="313.1094" y2="331.4063"/><line style="stroke:#000000;stroke-width:1.0;" x1="7" x2="7" y1="331.4063" y2="356.375"/><text fill="#000000" font-family="sans-serif" font-size="12" lengthAdjust="spacing" textLength="189.9199" x="7" y="385.4824">[**CONFIRM &amp; BOOK ECONOMY</text><text fill="#000000" font-family="sans-serif" font-size="12" lengthAdjust="spacing" textLength="191.7305" x="594.5898" y="385.4824">$18.50** (Quote Locked: 118s)]</text><line style="stroke:#000000;stroke-width:1.0;" x1="6" x2="593.5898" y1="191.6719" y2="191.6719"/><line style="stroke:#000000;stroke-width:1.0;" x1="593.5898" x2="787.3203" y1="191.6719" y2="191.6719"/><line style="stroke:#000000;stroke-width:1.0;" x1="6" x2="593.5898" y1="389.3125" y2="389.3125"/><line style="stroke:#000000;stroke-width:1.0;" x1="593.5898" x2="787.3203" y1="389.3125" y2="389.3125"/><line style="stroke:#000000;stroke-width:1.0;" x1="6" x2="6" y1="191.6719" y2="209.9688"/><line style="stroke:#000000;stroke-width:1.0;" x1="787.3203" x2="787.3203" y1="296.1406" y2="312.1094"/><line style="stroke:#000000;stroke-width:1.0;" x1="787.3203" x2="787.3203" y1="209.9688" y2="296.1406"/><line style="stroke:#000000;stroke-width:1.0;" x1="787.3203" x2="787.3203" y1="191.6719" y2="209.9688"/><line style="stroke:#000000;stroke-width:1.0;" x1="6" x2="6" y1="373.3438" y2="389.3125"/><line style="stroke:#000000;stroke-width:1.0;" x1="6" x2="6" y1="357.375" y2="373.3438"/><line style="stroke:#000000;stroke-width:1.0;" x1="6" x2="6" y1="312.1094" y2="357.375"/><line style="stroke:#000000;stroke-width:1.0;" x1="787.3203" x2="787.3203" y1="373.3438" y2="389.3125"/><line style="stroke:#000000;stroke-width:1.0;" x1="6" x2="6" y1="296.1406" y2="312.1094"/><line style="stroke:#000000;stroke-width:1.0;" x1="787.3203" x2="787.3203" y1="357.375" y2="373.3438"/><line style="stroke:#000000;stroke-width:1.0;" x1="6" x2="6" y1="209.9688" y2="296.1406"/><line style="stroke:#000000;stroke-width:1.0;" x1="787.3203" x2="787.3203" y1="312.1094" y2="357.375"/><line style="stroke:#000000;stroke-width:1.0;" x1="5" x2="788.3203" y1="5" y2="5"/><line style="stroke:#000000;stroke-width:1.0;" x1="5" x2="788.3203" y1="390.3125" y2="390.3125"/><line style="stroke:#000000;stroke-width:1.0;" x1="5" x2="5" y1="5" y2="23.2969"/><line style="stroke:#000000;stroke-width:1.0;" x1="788.3203" x2="788.3203" y1="5" y2="23.2969"/><line style="stroke:#000000;stroke-width:1.0;" x1="5" x2="5" y1="174.7031" y2="190.6719"/><line style="stroke:#000000;stroke-width:1.0;" x1="788.3203" x2="788.3203" y1="174.7031" y2="190.6719"/><line style="stroke:#000000;stroke-width:1.0;" x1="5" x2="5" y1="120.4688" y2="136.4375"/><line style="stroke:#000000;stroke-width:1.0;" x1="788.3203" x2="788.3203" y1="120.4688" y2="136.4375"/><line style="stroke:#000000;stroke-width:1.0;" x1="5" x2="5" y1="23.2969" y2="39.2656"/><line style="stroke:#000000;stroke-width:1.0;" x1="788.3203" x2="788.3203" y1="23.2969" y2="39.2656"/><line style="stroke:#000000;stroke-width:1.0;" x1="5" x2="5" y1="190.6719" y2="390.3125"/><line style="stroke:#000000;stroke-width:1.0;" x1="788.3203" x2="788.3203" y1="190.6719" y2="390.3125"/><line style="stroke:#000000;stroke-width:1.0;" x1="5" x2="5" y1="136.4375" y2="174.7031"/><line style="stroke:#000000;stroke-width:1.0;" x1="788.3203" x2="788.3203" y1="136.4375" y2="174.7031"/><line style="stroke:#000000;stroke-width:1.0;" x1="5" x2="5" y1="39.2656" y2="120.4688"/><line style="stroke:#000000;stroke-width:1.0;" x1="788.3203" x2="788.3203" y1="39.2656" y2="120.4688"/><rect fill="none" height="15.9688" style="stroke:#000000;stroke-width:1.0;" width="15" x="311.1387" y="156.7344"/><line style="stroke:#000000;stroke-width:1.0;" x1="311.1387" x2="326.1387" y1="168.7344" y2="168.7344"/><line style="stroke:#000000;stroke-width:1.0;" x1="311.1387" x2="326.1387" y1="160.7031" y2="160.7031"/><path d="M318.1387,160.7344 L321.1387,165.7344 L315.1387,165.7344 L318.1387,160.7344 " fill="#000000" style="stroke:#000000;stroke-width:1.0;"/><path d="M318.1387,169.7031 L321.1387,164.7031 L315.1387,164.7031 L318.1387,169.7031 " fill="#000000" style="stroke:#000000;stroke-width:1.0;"/><!--SRC=[VLFRRjf047tdAqOHgi0fo1Y8458UkBQe4AYNe5OH3ojxJLROEzRkkWrD-VUEkHZQgB64nOxdd3bpPjRms9PAhxSbWFjxM71ZXDe83RqqXHhuc5a17s39jOmYO28MWPMeeC86VisV34T-pNMzAg7hz3lG78YcV4SaZIuiCOLU66fX3F4S-VfSGsKS8xTIRM1YOgx2wW7vr5l3GWRRBEt2RxXfjzimutehB33x4HXNCDPS1T84cAVV747zDGmrfXX51nGRpw4dTOhQmbBeH2eUWmV5SqBTvhfWeYobY51o4iOifclwklzFFsuNnbaSrrYWXL3G7CAA_41D8bDOIV4phtc0lB99wLZjsF82urqibUY2rm9IH3eRZNeBjWbK7X2ivb4a0mX5p7VcwCN-7I5U5rWimzo-FbgB2R1d8KwbRq-LAVipQlaBbIK3tenmm3LcHiIdx086u3YZ01KcEyUvYfKRdNhRlGerwiqNO9dUY2BKFFGsMlPEaJtrUKKym2GwEvG_PQzLTztYE7eX7s0gDXenAQBjzpdxcI5VZRcGDZj_aueWi_87JLU4N1NnplkqtwRmYVn9BxIjEsg_EDxLcA2LqS0ULvVWlvoboxl-PZWBlak4iZ0JzXb3kXt3VAypPS-zhAJXPBpZGCjhUQJlQV3CwNQkwUz2OuAq1O-psSZtNEyEAhLocnglvdc-30NCqtpEPlr6n9FZ3EOFuua_ewBz-VmBZEWydtqdw7dAKFcQ8Itk58Ej2BkqhHrJFTwDVUaF]--></g></svg>