<svg xmlns="http://www.w3.org/2000/svg" xmlns:xlink="http://www.w3.org/1999/xlink" contentStyleType="text/css" height="395px" preserveAspectRatio="none" style="width:596px;height:395px;background:#FFFFFF;" version="1.1" viewBox="0 0 596 395" width="596px" zoomAndPan="magnify"><defs/><g><text fill="#000000" font-family="sans-serif" font-size="14" font-weight="bold" lengthAdjust="spacing" textLength="288.6475" x="6" y="18.9951">Safety Toolkit Modal (SCR-COM-008)</text><text fill="#000000" font-family="sans-serif" font-size="14" font-weight="bold" lengthAdjust="spacing" textLength="235.9082" x="7" y="54.2607">Layer 1: Safety Shield Header</text><text fill="#000000" font-family="sans-serif" font-size="12" font-weight="bold" lengthAdjust="spacing" textLength="94.4531" x="7" y="70.7012">Safety Toolkit</text><text fill="#000000" font-family="sans-serif" font-size="12" lengthAdjust="spacing" textLength="100.3477" x="244.9082" y="70.7012">Ride #ride_9918</text><rect fill="#EEEEEE" height="17.9688" rx="5" ry="5" style="stroke:#000000;stroke-width:2.5;" width="60" x="376.9902" y="62.0625"/><text fill="#000000" font-family="sans-serif" font-size="12" lengthAdjust="spacing" textLength="44.7246" x="384.6279" y="75.2012">X Close</text><line style="stroke:#AAAAAA;stroke-width:1.0;" x1="7" x2="243.9082" y1="88.0313" y2="88.0313"/><text fill="#000000" font-family="sans-serif" font-size="12" lengthAdjust="spacing" textLength="156.9434" x="7" y="103.6699">Verified Driver: Michael R.</text><text fill="#000000" font-family="sans-serif" font-size="12" lengthAdjust="spacing" textLength="127.582" x="244.9082" y="103.6699">Background Checked</text><text fill="#000000" font-family="sans-serif" font-size="12" lengthAdjust="spacing" textLength="54.3105" x="374.4902" y="103.6699">7XYZ981</text><line style="stroke:#000000;stroke-width:1.0;" x1="6" x2="243.9082" y1="40.2656" y2="40.2656"/><line style="stroke:#000000;stroke-width:1.0;" x1="243.9082" x2="373.4902" y1="40.2656" y2="40.2656"/><line style="stroke:#000000;stroke-width:1.0;" x1="373.4902" x2="440.4902" y1="40.2656" y2="40.2656"/><line style="stroke:#000000;stroke-width:1.0;" x1="6" x2="243.9082" y1="107.5" y2="107.5"/><line style="stroke:#000000;stroke-width:1.0;" x1="243.9082" x2="373.4902" y1="107.5" y2="107.5"/><line style="stroke:#000000;stroke-width:1.0;" x1="373.4902" x2="440.4902" y1="107.5" y2="107.5"/><line style="stroke:#000000;stroke-width:1.0;" x1="6" x2="6" y1="40.2656" y2="58.5625"/><line style="stroke:#000000;stroke-width:1.0;" x1="440.4902" x2="440.4902" y1="91.5313" y2="107.5"/><line style="stroke:#000000;stroke-width:1.0;" x1="440.4902" x2="440.4902" y1="83.5313" y2="91.5313"/><line style="stroke:#000000;stroke-width:1.0;" x1="440.4902" x2="440.4902" y1="58.5625" y2="83.5313"/><line style="stroke:#000000;stroke-width:1.0;" x1="440.4902" x2="440.4902" y1="40.2656" y2="58.5625"/><line style="stroke:#000000;stroke-width:1.0;" x1="6" x2="6" y1="91.5313" y2="107.5"/><line style="stroke:#000000;stroke-width:1.0;" x1="6" x2="6" y1="83.5313" y2="91.5313"/><line style="stroke:#000000;stroke-width:1.0;" x1="6" x2="6" y1="58.5625" y2="83.5313"/><text fill="#000000" font-family="sans-serif" font-size="14" font-weight="bold" lengthAdjust="spacing" textLength="258.959" x="7" y="139.4639">Layer 2: 4-Digit Security PIN Box</text><text fill="#000000" font-family="sans-serif" font-size="12" lengthAdjust="spacing" textLength="112.6699" x="7" y="155.9043">Your Boarding PIN:</text><text fill="#000000" font-family="sans-serif" font-size="12" font-weight="bold" lengthAdjust="spacing" textLength="123.2285" x="7" y="171.873">[ 4 ] [ 8 ] [ 9 ] [ 2 ]</text><text fill="#000000" font-family="sans-serif" font-size="12" lengthAdjust="spacing" textLength="322.6113" x="7" y="187.8418">Ensure your driver confirms this code before entering</text><line style="stroke:#000000;stroke-width:1.0;" x1="6" x2="330.6113" y1="125.4688" y2="125.4688"/><line style="stroke:#000000;stroke-width:1.0;" x1="6" x2="330.6113" y1="191.6719" y2="191.6719"/><line style="stroke:#000000;stroke-width:1.0;" x1="6" x2="6" y1="125.4688" y2="143.7656"/><line style="stroke:#000000;stroke-width:1.0;" x1="330.6113" x2="330.6113" y1="143.7656" y2="159.7344"/><line style="stroke:#000000;stroke-width:1.0;" x1="330.6113" x2="330.6113" y1="125.4688" y2="143.7656"/><line style="stroke:#000000;stroke-width:1.0;" x1="6" x2="6" y1="175.7031" y2="191.6719"/><line style="stroke:#000000;stroke-width:1.0;" x1="6" x2="6" y1="159.7344" y2="175.7031"/><line style="stroke:#000000;stroke-width:1.0;" x1="330.6113" x2="330.6113" y1="175.7031" y2="191.6719"/><line style="stroke:#000000;stroke-width:1.0;" x1="6" x2="6" y1="143.7656" y2="159.7344"/><line style="stroke:#000000;stroke-width:1.0;" x1="330.6113" x2="330.6113" y1="159.7344" y2="175.7031"/><text fill="#000000" font-family="sans-serif" font-size="14" font-weight="bold" lengthAdjust="spacing" textLength="306.0381" x="7" y="223.6357">Layer 3: Security &amp; Monitoring Actions</text><rect fill="#EEEEEE" height="17.9688" rx="5" ry="5" style="stroke:#000000;stroke-width:2.5;" width="460" x="9.5" y="231.4375"/><text fill="#000000" font-family="sans-serif" font-size="12" lengthAdjust="spacing" textLength="341.9121" x="68.5439" y="244.5762">Share Live Trip Status (SMS GPS link to trusted contacts)</text><line style="stroke:#AAAAAA;stroke-width:1.0;" x1="7" x2="505" y1="257.4063" y2="257.4063"/><text fill="#000000" font-family="sans-serif" font-size="12" lengthAdjust="spacing" textLength="270.0234" x="7" y="273.0449">[Record In-Cabin Audio (Encrypted on device</text><text fill="#000000" font-family="sans-serif" font-size="12" lengthAdjust="spacing" textLength="81.6621" x="506" y="273.0449">Safety vault)]</text><line style="stroke:#AAAAAA;stroke-width:1.0;" x1="7" x2="505" y1="281.375" y2="281.375"/><rect fill="#EEEEEE" height="17.9688" rx="5" ry="5" style="stroke:#000000;stroke-width:2.5;" width="492" x="9.5" y="288.375"/><text fill="#000000" font-family="sans-serif" font-size="12" lengthAdjust="spacing" textLength="379.9746" x="65.5127" y="301.5137">24/7 Platform Safety Response Agent (Direct voice connection)</text><line style="stroke:#000000;stroke-width:1.0;" x1="6" x2="505" y1="209.6406" y2="209.6406"/><line style="stroke:#000000;stroke-width:1.0;" x1="505" x2="588.6621" y1="209.6406" y2="209.6406"/><line style="stroke:#000000;stroke-width:1.0;" x1="6" x2="505" y1="309.8438" y2="309.8438"/><line style="stroke:#000000;stroke-width:1.0;" x1="505" x2="588.6621" y1="309.8438" y2="309.8438"/><line style="stroke:#000000;stroke-width:1.0;" x1="6" x2="6" y1="209.6406" y2="227.9375"/><line style="stroke:#000000;stroke-width:1.0;" x1="588.6621" x2="588.6621" y1="252.9063" y2="260.9063"/><line style="stroke:#000000;stroke-width:1.0;" x1="588.6621" x2="588.6621" y1="227.9375" y2="252.9063"/><line style="stroke:#000000;stroke-width:1.0;" x1="588.6621" x2="588.6621" y1="209.6406" y2="227.9375"/><line style="stroke:#000000;stroke-width:1.0;" x1="6" x2="6" y1="284.875" y2="309.8438"/><line style="stroke:#000000;stroke-width:1.0;" x1="6" x2="6" y1="276.875" y2="284.875"/><line style="stroke:#000000;stroke-width:1.0;" x1="6" x2="6" y1="260.9063" y2="276.875"/><line style="stroke:#000000;stroke-width:1.0;" x1="588.6621" x2="588.6621" y1="284.875" y2="309.8438"/><line style="stroke:#000000;stroke-width:1.0;" x1="6" x2="6" y1="252.9063" y2="260.9063"/><line style="stroke:#000000;stroke-width:1.0;" x1="588.6621" x2="588.6621" y1="276.875" y2="284.875"/><line style="stroke:#000000;stroke-width:1.0;" x1="6" x2="6" y1="227.9375" y2="252.9063"/><line style="stroke:#000000;stroke-width:1.0;" x1="588.6621" x2="588.6621" y1="260.9063" y2="276.875"/><text fill="#000000" font-family="sans-serif" font-size="14" font-weight="bold" lengthAdjust="spacing" textLength="306.7354" x="7" y="341.8076">Layer 4: Critical Emergency Assistance</text><rect fill="#EEEEEE" height="17.9688" rx="5" ry="5" style="stroke:#000000;stroke-width:2.5;" width="316" x="9.5" y="349.6094"/><text fill="#000000" font-family="sans-serif" font-size="12" font-weight="bold" lengthAdjust="spacing" textLength="276.1172" x="29.4414" y="362.748">CALL 911 / 112 EMERGENCY ASSISTANCE</text><text fill="#000000" font-family="sans-serif" font-size="12" lengthAdjust="spacing" textLength="417.5508" x="7" y="383.2168">Transmits vehicle GPS, license plate, and identities to police dispatch</text><line style="stroke:#000000;stroke-width:1.0;" x1="6" x2="425.5508" y1="327.8125" y2="327.8125"/><line style="stroke:#000000;stroke-width:1.0;" x1="6" x2="425.5508" y1="387.0469" y2="387.0469"/><line style="stroke:#000000;stroke-width:1.0;" x1="6" x2="6" y1="327.8125" y2="346.1094"/><line style="stroke:#000000;stroke-width:1.0;" x1="425.5508" x2="425.5508" y1="346.1094" y2="371.0781"/><line style="stroke:#000000;stroke-width:1.0;" x1="425.5508" x2="425.5508" y1="327.8125" y2="346.1094"/><line style="stroke:#000000;stroke-width:1.0;" x1="6" x2="6" y1="371.0781" y2="387.0469"/><line style="stroke:#000000;stroke-width:1.0;" x1="6" x2="6" y1="346.1094" y2="371.0781"/><line style="stroke:#000000;stroke-width:1.0;" x1="425.5508" x2="425.5508" y1="371.0781" y2="387.0469"/><line style="stroke:#000000;stroke-width:1.0;" x1="5" x2="589.6621" y1="5" y2="5"/><line style="stroke:#000000;stroke-width:1.0;" x1="5" x2="589.6621" y1="388.0469" y2="388.0469"/><line style="stroke:#000000;stroke-width:1.0;" x1="5" x2="5" y1="5" y2="23.2969"/><line style="stroke:#000000;stroke-width:1.0;" x1="589.6621" x2="589.6621" y1="5" y2="23.2969"/><line style="stroke:#000000;stroke-width:1.0;" x1="5" x2="5" y1="310.8438" y2="326.8125"/><line style="stroke:#000000;stroke-width:1.0;" x1="589.6621" x2="589.6621" y1="310.8438" y2="326.8125"/><line style="stroke:#000000;stroke-width:1.0;" x1="5" x2="5" y1="192.6719" y2="208.6406"/><line style="stroke:#000000;stroke-width:1.0;" x1="589.6621" x2="589.6621" y1="192.6719" y2="208.6406"/><line style="stroke:#000000;stroke-width:1.0;" x1="5" x2="5" y1="108.5" y2="124.4688"/><line style="stroke:#000000;stroke-width:1.0;" x1="589.6621" x2="589.6621" y1="108.5" y2="124.4688"/><line style="stroke:#000000;stroke-width:1.0;" x1="5" x2="5" y1="23.2969" y2="39.2656"/><line style="stroke:#000000;stroke-width:1.0;" x1="589.6621" x2="589.6621" y1="23.2969" y2="39.2656"/><line style="stroke:#000000;stroke-width:1.0;" x1="5" x2="5" y1="326.8125" y2="388.0469"/><line style="stroke:#000000;stroke-width:1.0;" x1="589.6621" x2="589.6621" y1="326.8125" y2="388.0469"/><line style="stroke:#000000;stroke-width:1.0;" x1="5" x2="5" y1="208.6406" y2="310.8438"/><line style="stroke:#000000;stroke-width:1.0;" x1="589.6621" x2="589.6621" y1="208.6406" y2="310.8438"/><line style="stroke:#000000;stroke-width:1.0;" x1="5" x2="5" y1="124.4688" y2="192.6719"/><line style="stroke:#000000;stroke-width:1.0;" x1="589.6621" x2="589.6621" y1="124.4688" y2="192.6719"/><line style="stroke:#000000;stroke-width:1.0;" x1="5" x2="5" y1="39.2656" y2="108.5"/><line style="stroke:#000000;stroke-width:1.0;" x1="589.6621" x2="589.6621" y1="39.2656" y2="108.5"/><!--SRC=[VL9XQzim5FoUNt4m6AbNjtKMQ1Be1zSrNI79IXn6kn26Ah_48euK93aqhFtlUrPRHWVT1pyZwUwzkvESg7sdy_jB1xYuG25Mv0-O6rDlbCV4bA96jyXcSVPz4f-T3OuOTy9V80JAM1p88XczSOjAKLtY6ucIR015qVksKOGdp5H9-6Iv_XeEam7lBEwGrSRHCf3YE0x_7sJLIb69AwlsP4UOA5a9gZ4xOSwba9krDOqkaLKaDunxmldT_S_X867wymTgUoFquokrPei5oSOg5dTxCyMbUGp0UzDONWXRAhrkJqQlHXReOua51g4EG-rX6KNXFDUkiOH3oow3N4YZLyfk7Nob7A_Oz0Ej3AD8UxQcr_-H-NNqLzvdlWojl6afIALNHhk0NXILu7PZ7eUvLJiKNlZ6yQrD2bpV5gYLti0RUDiupm6n92-aTqVlWrxCI1fRuaR7cNXG6cbJAeDkhgKzx5gYqIXfhoHnngytkXTDxVzjrEkVdkEs5fvzRj-GCt8xban8r-mStIjbINhiJTkF9MaAdaAlZ_BeZv1n64hoeyotPBcJF21rJZaljAINyL6KfUCnXac2KoH93_aadrtdq-mUQL7S5FDqckLHz29wReLsM-KTzbGfMLCRsJ5d9gaLksCNT0p1xujVglOyd5mRviwq49JAxOINLH3ztFa3]--></g></svg>